G04 DipTrace 2.3.1.0*
%INAutoPilot.GBL*%
%MOIN*%
%ADD13C,0.012*%
%ADD14C,0.005*%
%ADD15C,0.04*%
%ADD18C,0.015*%
%ADD20C,0.018*%
%ADD23C,0.025*%
%ADD24C,0.013*%
%ADD28C,0.07*%
%ADD41C,0.0669*%
%ADD44R,0.0591X0.0591*%
%ADD46C,0.0591*%
%ADD65C,0.06*%
%ADD66R,0.06X0.06*%
%ADD67C,0.1*%
%FSLAX44Y44*%
G04*
G70*
G90*
G75*
G01*
%LNBottom*%
%LPD*%
X783Y22861D2*
D13*
Y22268D1*
X770Y22255D1*
X23800Y11200D2*
D15*
Y12200D1*
Y9200D2*
Y10200D1*
Y16200D2*
Y16801D1*
X23081Y17520D1*
X21670D1*
X20397D1*
X18952Y18965D1*
X18138D1*
X15543Y21560D1*
X12480D1*
X23800Y15200D2*
Y16200D1*
Y14200D2*
Y15200D1*
Y13200D2*
Y14200D1*
Y12200D2*
Y13200D1*
Y11200D2*
Y10200D1*
X21670Y17520D2*
D18*
Y20090D1*
X17760Y9910D2*
D14*
Y11800D1*
X18420Y12460D1*
X12522Y12546D2*
X12487D1*
X12395Y12638D1*
X9982D1*
X9760Y12860D1*
X13880Y12460D2*
Y16090D1*
X15837Y787D2*
X17441D1*
X19033Y2379D1*
Y3291D1*
X19555Y3813D1*
X24178D1*
X25210Y4845D1*
Y17790D1*
X24000Y19000D1*
X11500Y12460D2*
X11690Y12270D1*
X14680D1*
X15140Y12730D1*
X17150D1*
X17250Y12630D1*
Y9670D1*
X17350Y9570D1*
X19430D1*
X20820Y10960D1*
X21870D1*
X21970Y10860D1*
Y10030D1*
X22800Y9200D1*
X23005Y8742D2*
Y7367D1*
X22342Y6704D1*
X19006D1*
X18664Y6363D1*
Y4363D1*
X17840Y12990D2*
X19470D1*
X19570Y12890D1*
Y11160D1*
X19670Y11060D1*
X22190D1*
X22290Y10960D1*
Y10710D1*
X22800Y10200D1*
X19386Y4169D2*
Y4145D1*
X23915D1*
X24210Y4440D1*
Y17940D1*
X24110Y18040D1*
X22580D1*
X22480Y18140D1*
Y20280D1*
X22580Y20380D1*
X23620D1*
X24000Y20000D1*
X15077Y15032D2*
Y15038D1*
X17576D1*
X18134Y15596D1*
X20244D1*
X20333Y15507D1*
Y11300D1*
X20433Y11200D1*
X22800D1*
X19150Y3977D2*
Y3984D1*
X24084D1*
X24310Y4210D1*
Y18040D1*
X24210Y18140D1*
X22680D1*
X22580Y18240D1*
Y19580D1*
X23000Y20000D1*
X8690Y10710D2*
X7450D1*
X7340Y10820D1*
Y11890D1*
X7240Y11990D1*
X5523D1*
X5193Y12320D1*
Y14603D1*
X7184Y16594D1*
X16699D1*
X17759Y17654D1*
X18903D1*
X20878Y15679D1*
Y12300D1*
X20978Y12200D1*
X22800D1*
X11210Y3300D2*
X15370D1*
X15477Y3407D1*
Y7980D1*
X15577Y8080D1*
X20390D1*
X20494Y8184D1*
Y10104D1*
X21130Y10740D1*
X21800Y13420D2*
X22800D1*
Y13200D1*
X22310Y21000D2*
X23000D1*
X11610Y3130D2*
X17160D1*
X17265Y3235D1*
Y7130D1*
X17405Y7270D1*
X21210D1*
X21360Y7420D1*
Y10580D1*
X21791Y12770D2*
X21630Y12931D1*
Y14200D1*
X22800D1*
X24000Y21463D2*
Y22000D1*
X10559Y1385D2*
X17811D1*
X18430Y2004D1*
Y6792D1*
X18766Y7128D1*
X21430D1*
X21530Y7228D1*
Y10790D1*
X21540Y12731D2*
X21530D1*
Y15200D1*
X22800D1*
X21800Y9240D2*
Y9670D1*
X22140Y17870D2*
Y21140D1*
X23000Y22000D1*
X18863Y2460D2*
Y5841D1*
X19290Y6268D1*
X22351D1*
X23260Y7177D1*
Y16200D1*
X22800D1*
X10419Y10042D2*
X9499D1*
X10445Y11072D2*
X8468D1*
X15439Y11542D2*
X15299Y11682D1*
X8719D1*
X8023Y10986D1*
X15419Y12462D2*
X15119Y12162D1*
X5698D1*
X9433Y7662D2*
X9319D1*
X9249Y7592D1*
X5459D1*
X5359Y7692D1*
Y10042D1*
X10579Y9582D2*
X8699D1*
X8999Y7042D2*
X4879D1*
X10995Y3530D2*
X5241D1*
X2469Y6302D1*
Y8782D1*
X9059Y8452D2*
X12569D1*
X14249Y6772D1*
Y3522D1*
X11800Y9000D2*
X11389Y9411D1*
X9099D1*
X12259Y2962D2*
X7459D1*
X13319Y4542D2*
X9499D1*
X13659Y4741D2*
X6869D1*
X7899Y6702D2*
Y5872D1*
X7017Y6852D2*
Y6890D1*
X8305D1*
X9486Y5708D1*
X4479Y6882D2*
X5319Y6042D1*
X6769D1*
X4210Y6220D2*
X5068Y5362D1*
X7789D1*
X3051Y5960D2*
X3879Y5132D1*
X10419D1*
X13459Y7212D2*
X6769D1*
X3609D2*
X4959Y5862D1*
X7509D1*
X7859Y5512D1*
X13209D1*
X8509Y8792D2*
Y8805D1*
X16595D1*
X12950Y7420D2*
X3891D1*
X7059Y11572D2*
Y8782D1*
X9439Y8622D2*
X8179D1*
X12989Y11382D2*
X11359Y9752D1*
X7429D1*
X7329Y9652D1*
Y7822D1*
X7545Y21505D2*
D13*
X7695D1*
D14*
X7870Y21680D1*
X12758Y12616D2*
X12613Y12760D1*
X10120D1*
X9730Y13150D1*
X8620D1*
X8330Y12860D1*
X18634Y16143D2*
X18480D1*
X17740Y16883D1*
X16879Y14171D2*
Y13465D1*
X17420Y12924D1*
Y9910D1*
X18634Y14143D2*
X16907D1*
X16879Y14171D1*
X18634Y15143D2*
X19110Y14667D1*
Y13690D1*
X19010Y13590D1*
X17690D1*
X17590Y13490D1*
Y9740D1*
X14636Y16915D2*
Y18646D1*
X14750Y18760D1*
X17090D1*
X6695Y21755D2*
Y19455D1*
X12932Y12787D2*
X12792Y12926D1*
X11526D1*
X10622Y13830D1*
X7740D1*
X6780Y12870D1*
X14349Y11382D2*
X17249Y8482D1*
X19499D1*
X3210Y22870D2*
X3924D1*
X3933Y22861D1*
X10890Y14080D2*
X13160D1*
X13286Y13954D1*
Y12485D1*
X6070Y13930D2*
X6813D1*
X7083Y14200D1*
X17311Y973D2*
X16924D1*
X16792Y1106D1*
X6177D1*
X1729Y5554D1*
Y11801D1*
X1820Y11892D1*
Y14557D1*
X1450Y14926D1*
Y15841D1*
X1632Y16023D1*
X2452D1*
X2945Y15530D1*
X3370Y14105D2*
X3838D1*
X3933Y14200D1*
X17092Y1210D2*
X6236D1*
X1834Y5612D1*
Y11720D1*
X1938Y11825D1*
Y15523D1*
X1945Y15530D1*
X16820Y2480D2*
X16620Y2680D1*
X6780D1*
X6580Y2880D1*
X5595D1*
X2045Y6430D1*
Y11580D1*
X2845Y12380D1*
Y14405D1*
X3945Y15505D1*
Y15530D1*
X4470Y15005D1*
X5195D1*
X5420Y15230D1*
Y18160D1*
X2345Y21235D1*
Y22848D1*
X2358Y22861D1*
X17030Y1571D2*
X16320Y2280D1*
X5870D1*
X1938Y6212D1*
Y11658D1*
X2645Y12365D1*
Y14530D1*
X3445Y15330D1*
Y15855D1*
X3670Y16080D1*
X4820D1*
X4945Y15955D1*
Y15530D1*
X1571Y21680D2*
X3677Y19574D1*
Y16087D1*
X3670Y16080D1*
D20*
X10459Y3954D3*
X18209Y11514D3*
X770Y22255D3*
X1880Y20250D3*
X1181Y12101D3*
X21544Y5531D3*
X23421Y3290D3*
X22833Y1474D3*
X770Y22255D3*
X12522Y12546D3*
X9760Y12860D3*
X23005Y8742D3*
X18664Y4363D3*
X11210Y3300D3*
X21130Y10740D3*
X21800Y13420D3*
X11610Y3130D3*
X21360Y10580D3*
X21791Y12770D3*
X10559Y1385D3*
X21530Y10790D3*
X21540Y12731D3*
X18863Y2460D3*
X10419Y10042D3*
X9499D3*
X10445Y11072D3*
X8468D3*
X15439Y11542D3*
X8023Y10986D3*
X15419Y12462D3*
X5698Y12162D3*
X9433Y7662D3*
X5359Y10042D3*
X10579Y9582D3*
X8699D3*
X8999Y7042D3*
X4879D3*
X10995Y3530D3*
X2469Y8782D3*
X9059Y8452D3*
X14249Y3522D3*
X11800Y9000D3*
X9099Y9411D3*
X12259Y2962D3*
X7459D3*
X13319Y4542D3*
X9499D3*
X13659Y4741D3*
X6869D3*
X7899Y6702D3*
Y5872D3*
X7017Y6852D3*
X9486Y5708D3*
X4479Y6882D3*
X6769Y6042D3*
X4210Y6220D3*
X7789Y5362D3*
X3051Y5960D3*
X10419Y5132D3*
X13459Y7212D3*
X6769D3*
X3609D3*
X13209Y5512D3*
X8509Y8792D3*
X16595Y8805D3*
X12950Y7420D3*
X3891D3*
X7059Y11572D3*
Y8782D3*
X9439Y8622D3*
X8179D3*
X12989Y11382D3*
X7329Y7822D3*
X6001Y11701D3*
X18648Y21098D3*
X16837Y16373D3*
X8364Y3754D3*
X6020Y2620D3*
X7545Y21505D3*
X12695Y18455D3*
X22814Y1111D3*
X22683Y7844D3*
X8377Y13598D3*
X12758Y12616D3*
X8330Y12860D3*
X17740Y16883D3*
X6695Y21755D3*
Y19455D3*
X12932Y12787D3*
X6780Y12870D3*
X14349Y11382D3*
X19499Y8482D3*
X3210Y22870D3*
X10890Y14080D3*
X13286Y12485D3*
X6070Y13930D3*
X17311Y973D3*
X3370Y14105D3*
X17092Y1210D3*
X16820Y2480D3*
X17030Y1571D3*
X4545Y21005D3*
Y20655D3*
Y20305D3*
X4245Y21005D3*
Y20655D3*
Y20305D3*
X6120Y20955D3*
Y20330D3*
X5895Y20630D3*
X5645Y20955D3*
Y20330D3*
X5395Y20630D3*
X5170Y20955D3*
Y20330D3*
X15961Y23087D3*
X11645Y23905D3*
X11695Y21505D3*
X10295Y23905D3*
Y21505D3*
X9095Y23905D3*
X7545D3*
X15961Y23487D3*
X9095Y21505D3*
X11695Y22705D3*
X10295D3*
X9095D3*
X7545D3*
X15961Y23887D3*
Y24287D3*
Y24687D3*
X15561D3*
X15161D3*
X14761D3*
X14361D3*
X13961D3*
X13561D3*
X13161D3*
Y24287D3*
Y23887D3*
Y23487D3*
Y23087D3*
Y22687D3*
Y22287D3*
X15961Y22687D3*
Y22287D3*
X11908Y12467D3*
X5782Y7251D3*
Y5651D3*
Y3751D3*
Y11351D3*
Y3101D3*
X2232Y4651D3*
Y6601D3*
X19509Y10262D3*
X12379Y11508D3*
X11659Y11512D3*
X19467Y7909D3*
X19464Y6012D3*
X19470Y3380D3*
X18259Y2462D3*
X15709D3*
X13530Y2473D3*
X11180Y2462D3*
X10459Y5862D3*
Y7821D3*
X10467Y10370D3*
X16409Y11512D3*
X14809D3*
X19510Y9270D3*
X770Y21005D3*
X17488Y15443D3*
X16447Y16008D3*
X16413Y15493D3*
X16849Y17835D3*
X17238Y17828D3*
X18648Y21098D3*
X5782Y6577D3*
Y4701D3*
X23000Y1250D3*
X2232Y11301D3*
X20790Y19200D3*
X2273Y3742D3*
X12260Y15620D3*
X2232Y3101D3*
Y5651D3*
X2276Y7201D3*
X6001Y11701D3*
X15743Y14588D3*
X18209Y13421D3*
X12771Y14580D3*
X12059Y11512D3*
X21065Y9974D3*
X19476Y7600D3*
X19491Y5635D3*
X19499Y3081D3*
X6770Y13620D3*
X17959Y2462D3*
X22440Y1760D3*
X15409Y2462D3*
X24605Y5095D3*
X13228Y2462D3*
X23421Y3290D3*
X10859Y2462D3*
X18740Y19332D3*
X10468Y6189D3*
X17862Y22038D3*
X10447Y8148D3*
X17342Y13688D3*
X10459Y10712D3*
X16715Y11500D3*
X1181Y12101D3*
X15109Y11512D3*
X1880Y20250D3*
X21670Y20090D3*
X17488Y15793D3*
X18420Y12460D3*
X16463Y16368D3*
X17760Y9910D3*
X17263Y16393D3*
X13880Y16090D3*
Y12460D3*
X15837Y787D3*
X11500Y12460D3*
X17840Y12990D3*
X19386Y4169D3*
X15077Y15032D3*
X19150Y3977D3*
X8690Y10710D3*
X22310Y21000D3*
X24000Y21463D3*
X21800Y9670D3*
Y9240D3*
X22140Y17870D3*
X17420Y9910D3*
X16879Y14171D3*
X17590Y9740D3*
X14636Y16915D3*
X1945Y25026D2*
D23*
X19712D1*
X21125D2*
X25251D1*
X2063Y24778D2*
X3434D1*
X4555D2*
X4684D1*
X5805D2*
X12848D1*
X16273D2*
X19524D1*
X21309D2*
X25251D1*
X2102Y24529D2*
X3294D1*
X5945D2*
X12876D1*
X16242D2*
X19438D1*
X21398D2*
X25251D1*
X2074Y24280D2*
X3259D1*
X5981D2*
X12833D1*
X13488D2*
X15634D1*
X16289D2*
X19419D1*
X21418D2*
X25251D1*
X1981Y24032D2*
X3313D1*
X5930D2*
X7243D1*
X7844D2*
X8794D1*
X9395D2*
X9993D1*
X10594D2*
X11345D1*
X11945D2*
X12868D1*
X13453D2*
X15669D1*
X16250D2*
X19462D1*
X21371D2*
X25251D1*
X1789Y23783D2*
X3485D1*
X4504D2*
X4735D1*
X5754D2*
X7243D1*
X7848D2*
X8794D1*
X9398D2*
X9993D1*
X10598D2*
X11345D1*
X11945D2*
X12852D1*
X13469D2*
X15653D1*
X16270D2*
X19583D1*
X21254D2*
X25251D1*
X344Y23534D2*
X934D1*
X1266D2*
X12837D1*
X13484D2*
X15638D1*
X16285D2*
X19825D1*
X21012D2*
X25251D1*
X1168Y23285D2*
X1973D1*
X2742D2*
X3548D1*
X4316D2*
X5122D1*
X5895D2*
X6696D1*
X7469D2*
X12907D1*
X13414D2*
X15708D1*
X16215D2*
X22548D1*
X24449D2*
X25251D1*
X1188Y23037D2*
X1954D1*
X2762D2*
X2931D1*
X4340D2*
X5102D1*
X5914D2*
X6677D1*
X7488D2*
X12837D1*
X13484D2*
X15638D1*
X16285D2*
X22462D1*
X24535D2*
X25251D1*
X1188Y22788D2*
X1954D1*
X2762D2*
X2894D1*
X4340D2*
X5102D1*
X5914D2*
X6677D1*
X7859D2*
X8778D1*
X9410D2*
X9977D1*
X10609D2*
X11380D1*
X12012D2*
X12848D1*
X13473D2*
X15649D1*
X16270D2*
X22509D1*
X24492D2*
X25251D1*
X1188Y22539D2*
X1954D1*
X2762D2*
X3528D1*
X4340D2*
X5102D1*
X5914D2*
X6677D1*
X7824D2*
X8817D1*
X9375D2*
X10016D1*
X10574D2*
X11415D1*
X11973D2*
X12872D1*
X13449D2*
X15673D1*
X16250D2*
X22751D1*
X23250D2*
X23751D1*
X24250D2*
X25251D1*
X1094Y22291D2*
X2083D1*
X2609D2*
X12833D1*
X13488D2*
X15634D1*
X16289D2*
X17669D1*
X18055D2*
X22552D1*
X24449D2*
X25251D1*
X1012Y22042D2*
X1169D1*
X2609D2*
X2745D1*
X3551D2*
X4317D1*
X5125D2*
X5891D1*
X6816D2*
X7466D1*
X8273D2*
X11946D1*
X13363D2*
X15759D1*
X16164D2*
X17536D1*
X18191D2*
X19446D1*
X20512D2*
X22466D1*
X24535D2*
X25251D1*
X844Y21793D2*
X1165D1*
X2609D2*
X2737D1*
X3551D2*
X4313D1*
X5125D2*
X5891D1*
X7020D2*
X7427D1*
X8273D2*
X8977D1*
X9214D2*
X10177D1*
X10411D2*
X11579D1*
X11812D2*
X11946D1*
X13012D2*
X16802D1*
X17457D2*
X17661D1*
X18066D2*
X19446D1*
X20512D2*
X22431D1*
X24496D2*
X25251D1*
X2609Y21545D2*
X2737D1*
X3551D2*
X4313D1*
X5125D2*
X5891D1*
X6957D2*
X7220D1*
X8273D2*
X8770D1*
X9422D2*
X9970D1*
X10621D2*
X11368D1*
X13012D2*
X16591D1*
X17672D2*
X19446D1*
X20512D2*
X22184D1*
X23262D2*
X23684D1*
X24316D2*
X25251D1*
X3547Y21296D2*
X4138D1*
X5121D2*
X5895D1*
X6957D2*
X7302D1*
X8270D2*
X8852D1*
X9340D2*
X10052D1*
X10539D2*
X11450D1*
X13012D2*
X16544D1*
X17715D2*
X18395D1*
X18902D2*
X19446D1*
X20512D2*
X21934D1*
X24445D2*
X25251D1*
X2895Y21047D2*
X3919D1*
X6957D2*
X12309D1*
X12648D2*
X16610D1*
X17648D2*
X18325D1*
X18973D2*
X19735D1*
X20227D2*
X21876D1*
X24535D2*
X25251D1*
X3145Y20799D2*
X3954D1*
X6957D2*
X12005D1*
X12953D2*
X16891D1*
X17367D2*
X18575D1*
X18717D2*
X19493D1*
X20469D2*
X21876D1*
X24496D2*
X25251D1*
X3391Y20550D2*
X3934D1*
X6957D2*
X11946D1*
X13012D2*
X19450D1*
X20512D2*
X21876D1*
X24270D2*
X25251D1*
X3641Y20301D2*
X3919D1*
X6957D2*
X12016D1*
X12941D2*
X19536D1*
X20422D2*
X21876D1*
X24441D2*
X25251D1*
X3891Y20053D2*
X4052D1*
X4738D2*
X5024D1*
X5316D2*
X5497D1*
X5793D2*
X5973D1*
X6266D2*
X6431D1*
X6957D2*
X21876D1*
X24535D2*
X25251D1*
X4137Y19804D2*
X6431D1*
X6957D2*
X21876D1*
X24500D2*
X25251D1*
X4457Y19555D2*
X6384D1*
X7004D2*
X18509D1*
X18969D2*
X21876D1*
X24281D2*
X25251D1*
X4859Y19306D2*
X6407D1*
X6984D2*
X16931D1*
X17250D2*
X18415D1*
X19066D2*
X20481D1*
X21098D2*
X21876D1*
X24539D2*
X25251D1*
X5258Y19058D2*
X16587D1*
X17594D2*
X18587D1*
X18895D2*
X20497D1*
X21082D2*
X21876D1*
X24539D2*
X25251D1*
X5660Y18809D2*
X14438D1*
X17676D2*
X21876D1*
X24551D2*
X25251D1*
X6063Y18560D2*
X12388D1*
X13004D2*
X14372D1*
X17641D2*
X18321D1*
X18949D2*
X21876D1*
X24801D2*
X25251D1*
X6461Y18312D2*
X12403D1*
X12988D2*
X14372D1*
X14898D2*
X16723D1*
X17457D2*
X18130D1*
X19137D2*
X21876D1*
X25051D2*
X25251D1*
X6863Y18063D2*
X14372D1*
X14898D2*
X16626D1*
X17453D2*
X18106D1*
X19160D2*
X21876D1*
X7266Y17814D2*
X13544D1*
X15328D2*
X16520D1*
X19102D2*
X21817D1*
X7668Y17566D2*
X13544D1*
X15566D2*
X16684D1*
X19352D2*
X23946D1*
X8066Y17317D2*
X13544D1*
X15609D2*
X17059D1*
X19602D2*
X23946D1*
X8469Y17068D2*
X13544D1*
X15520D2*
X16813D1*
X19848D2*
X23946D1*
X20098Y16820D2*
X23946D1*
X20348Y16571D2*
X22372D1*
X23227D2*
X23946D1*
X20594Y16322D2*
X22243D1*
X23488D2*
X23946D1*
X20844Y16074D2*
X22243D1*
X23523D2*
X23946D1*
X21090Y15825D2*
X22376D1*
X23523D2*
X23946D1*
X21141Y15576D2*
X22376D1*
X23523D2*
X23946D1*
X21141Y15327D2*
X21306D1*
X23523D2*
X23946D1*
X21141Y15079D2*
X21270D1*
X23523D2*
X23946D1*
X21141Y14830D2*
X21270D1*
X23523D2*
X23946D1*
X21141Y14581D2*
X21270D1*
X23523D2*
X23946D1*
X21141Y14333D2*
X21270D1*
X23523D2*
X23946D1*
X21141Y14084D2*
X21270D1*
X23523D2*
X23946D1*
X21141Y13835D2*
X21270D1*
X23523D2*
X23946D1*
X21141Y13587D2*
X21270D1*
X23523D2*
X23946D1*
X21141Y13338D2*
X21270D1*
X23523D2*
X23946D1*
X21141Y13089D2*
X21270D1*
X21895D2*
X22239D1*
X23523D2*
X23946D1*
X22109Y12841D2*
X22360D1*
X23523D2*
X23946D1*
X22063Y12592D2*
X22391D1*
X23523D2*
X23946D1*
X23523Y12343D2*
X23946D1*
X23523Y12095D2*
X23946D1*
X23523Y11846D2*
X23946D1*
X23523Y11597D2*
X23946D1*
X23523Y11348D2*
X23946D1*
X23523Y11100D2*
X23946D1*
X23523Y10851D2*
X23946D1*
X23523Y10602D2*
X23946D1*
X23523Y10354D2*
X23946D1*
X23523Y10105D2*
X23946D1*
X23523Y9856D2*
X23946D1*
X23523Y9608D2*
X23946D1*
X23523Y9359D2*
X23946D1*
X23523Y9110D2*
X23946D1*
X23523Y8862D2*
X23946D1*
X17639Y18636D2*
X17599Y18518D1*
X17533Y18412D1*
X17445Y18323D1*
X17340Y18256D1*
X17223Y18213D1*
X17100Y18197D1*
X16975Y18209D1*
X16857Y18248D1*
X16750Y18312D1*
X16659Y18398D1*
X16583Y18520D1*
X14875Y18522D1*
X14874Y17822D1*
X14933Y17847D1*
X15056Y17867D1*
X15181Y17857D1*
X15299Y17816D1*
X15403Y17749D1*
X15488Y17657D1*
X15548Y17548D1*
X15580Y17428D1*
X15585Y17359D1*
X15569Y17235D1*
X15525Y17119D1*
X15453Y17017D1*
X15358Y16936D1*
X15247Y16880D1*
X15125Y16853D1*
X15000Y16857D1*
X14936Y16875D1*
X14934Y16832D1*
X16602D1*
X17302Y17533D1*
X17214Y17526D1*
X17095Y17561D1*
X17044Y17603D1*
X16948Y17549D1*
X16825Y17533D1*
X16706Y17568D1*
X16611Y17648D1*
X16556Y17759D1*
X16550Y17883D1*
X16594Y17999D1*
X16681Y18087D1*
X16796Y18133D1*
X16920Y18129D1*
X17032Y18076D1*
X17045Y18061D1*
X17070Y18080D1*
X17185Y18126D1*
X17309Y18122D1*
X17421Y18069D1*
X17503Y17975D1*
X17541Y17828D1*
X17526Y17756D1*
X17591Y17822D1*
X17702Y17884D1*
X17884Y17892D1*
X18193D1*
X18135Y18047D1*
X18126Y18171D1*
X18149Y18294D1*
X18200Y18407D1*
X18277Y18505D1*
X18376Y18581D1*
X18491Y18631D1*
X18614Y18651D1*
X18738Y18640D1*
X18856Y18600D1*
X18961Y18532D1*
X19046Y18441D1*
X19106Y18332D1*
X19138Y18211D1*
X19142Y18143D1*
X19127Y18019D1*
X19082Y17903D1*
X19044Y17849D1*
X21046Y15847D1*
X21108Y15736D1*
X21116Y15554D1*
Y12441D1*
X21466Y12438D1*
X21397Y12464D1*
X21302Y12543D1*
X21247Y12655D1*
X21241Y12779D1*
X21294Y12903D1*
X21292Y15200D1*
X21324Y15319D1*
X21412Y15406D1*
X21530Y15438D1*
X22307D1*
X22395Y15569D1*
X22489Y15651D1*
X22582Y15700D1*
X22545Y15715D1*
X22442Y15785D1*
X22358Y15877D1*
X22296Y15985D1*
X22261Y16105D1*
X22253Y16230D1*
X22274Y16352D1*
X22322Y16468D1*
X22395Y16569D1*
X22489Y16651D1*
X22599Y16709D1*
X22720Y16742D1*
X22844Y16746D1*
X22967Y16722D1*
X23080Y16670D1*
X23180Y16595D1*
X23259Y16499D1*
X23292Y16432D1*
X23379Y16406D1*
X23466Y16318D1*
X23498Y16200D1*
Y8751D1*
X23974D1*
X23972Y10315D1*
Y17803D1*
X22580Y17802D1*
X22458Y17837D1*
X22481Y17824D1*
X22346Y17647D1*
X22239Y17584D1*
X22116Y17568D1*
X21997Y17603D1*
X21902Y17683D1*
X21847Y17794D1*
X21841Y17918D1*
X21885Y18034D1*
X21904Y18053D1*
X21902Y20370D1*
Y21140D1*
X21937Y21262D1*
X22060Y21397D1*
X22510Y21847D1*
X22487Y22013D1*
X22506Y22137D1*
X22553Y22252D1*
X22627Y22352D1*
X22723Y22432D1*
X22836Y22486D1*
X22882Y22501D1*
X22765Y22544D1*
X22662Y22614D1*
X22579Y22707D1*
X22521Y22817D1*
X22491Y22939D1*
Y23063D1*
X22521Y23184D1*
X22580Y23294D1*
X22663Y23387D1*
X22766Y23457D1*
X22884Y23500D1*
X23008Y23513D1*
X23131Y23496D1*
X23247Y23450D1*
X23348Y23377D1*
X23429Y23282D1*
X23484Y23170D1*
X23500Y23114D1*
X23553Y23252D1*
X23627Y23352D1*
X23723Y23432D1*
X23836Y23486D1*
X23958Y23511D1*
X24082Y23506D1*
X24202Y23472D1*
X24310Y23409D1*
X24399Y23322D1*
X24465Y23216D1*
X24504Y23098D1*
X24513Y23000D1*
X24498Y22876D1*
X24453Y22760D1*
X24382Y22658D1*
X24288Y22575D1*
X24177Y22519D1*
X24105Y22502D1*
X24202Y22472D1*
X24310Y22409D1*
X24399Y22322D1*
X24465Y22216D1*
X24504Y22098D1*
X24513Y22000D1*
X24498Y21876D1*
X24453Y21760D1*
X24382Y21658D1*
X24285Y21574D1*
X24303Y21463D1*
X24294Y21421D1*
X24399Y21322D1*
X24465Y21216D1*
X24504Y21098D1*
X24513Y21000D1*
X24498Y20876D1*
X24453Y20760D1*
X24382Y20658D1*
X24288Y20575D1*
X24177Y20519D1*
X24105Y20502D1*
X24202Y20472D1*
X24310Y20409D1*
X24399Y20322D1*
X24465Y20216D1*
X24504Y20098D1*
X24513Y20000D1*
X24498Y19876D1*
X24453Y19760D1*
X24382Y19658D1*
X24288Y19575D1*
X24151Y19512D1*
X24513Y19513D1*
Y18822D1*
X25276Y18061D1*
X25275Y24001D1*
Y25275D1*
X20654D1*
X20806Y25224D1*
X20917Y25167D1*
X21020Y25096D1*
X21113Y25013D1*
X21195Y24919D1*
X21264Y24815D1*
X21319Y24702D1*
X21360Y24584D1*
X21385Y24462D1*
X21394Y24328D1*
X21386Y24203D1*
X21362Y24081D1*
X21323Y23962D1*
X21269Y23850D1*
X21201Y23745D1*
X21120Y23650D1*
X21027Y23566D1*
X20925Y23494D1*
X20814Y23436D1*
X20697Y23393D1*
X20575Y23365D1*
X20451Y23352D1*
X20326Y23356D1*
X20203Y23376D1*
X20083Y23411D1*
X19969Y23461D1*
X19862Y23525D1*
X19764Y23603D1*
X19677Y23692D1*
X19601Y23792D1*
X19540Y23901D1*
X19492Y24016D1*
X19460Y24137D1*
X19444Y24261D1*
X19443Y24386D1*
X19458Y24510D1*
X19489Y24631D1*
X19536Y24747D1*
X19596Y24856D1*
X19670Y24956D1*
X19757Y25047D1*
X19854Y25125D1*
X19960Y25191D1*
X20074Y25242D1*
X20183Y25275D1*
X1693D1*
X1796Y25185D1*
X1877Y25091D1*
X1946Y24987D1*
X2002Y24875D1*
X2042Y24756D1*
X2067Y24634D1*
X2076Y24500D1*
X2068Y24375D1*
X2044Y24253D1*
X2005Y24134D1*
X1951Y24022D1*
X1883Y23917D1*
X1802Y23822D1*
X1710Y23738D1*
X1607Y23666D1*
X1497Y23608D1*
X1380Y23565D1*
X1258Y23537D1*
X1134Y23524D1*
X1009Y23528D1*
X885Y23548D1*
X766Y23583D1*
X651Y23633D1*
X544Y23697D1*
X446Y23775D1*
X319Y23917D1*
Y22775D1*
X317Y22103D1*
X1191Y21564D1*
X1190Y22015D1*
X1226Y22133D1*
X1325Y22211D1*
X1403Y22228D1*
X1738D1*
X1856Y22192D1*
X1935Y22093D1*
X1951Y22015D1*
Y21636D1*
X2107Y21485D1*
Y22333D1*
X2073Y22349D1*
X1994Y22448D1*
X1978Y22526D1*
Y23196D1*
X2014Y23314D1*
X2112Y23393D1*
X2191Y23409D1*
X2526D1*
X2643Y23373D1*
X2722Y23274D1*
X2739Y23196D1*
Y22526D1*
X2703Y22409D1*
X2604Y22330D1*
X2674Y22375D1*
X2583Y22223D1*
Y21330D1*
X3486Y20431D1*
X4245Y19671D1*
X8828Y16831D1*
X14344Y16832D1*
X14342Y16851D1*
X13568D1*
Y17867D1*
X14400D1*
X14398Y18646D1*
X14433Y18768D1*
X14414Y18731D1*
X14467Y18814D1*
X14582Y18929D1*
X14676Y18986D1*
X14633Y18967D1*
X14750Y18998D1*
X16582D1*
X16636Y19093D1*
X16721Y19185D1*
X16823Y19256D1*
X16939Y19303D1*
X17062Y19323D1*
X17187Y19315D1*
X17306Y19280D1*
X17416Y19220D1*
X17509Y19137D1*
X17581Y19035D1*
X17630Y18920D1*
X17653Y18760D1*
X17639Y18636D1*
X17679Y21195D2*
X17638Y21077D1*
X17572Y20971D1*
X17485Y20882D1*
X17380Y20815D1*
X17262Y20772D1*
X17139Y20756D1*
X17015Y20768D1*
X16896Y20807D1*
X16789Y20871D1*
X16699Y20957D1*
X16629Y21060D1*
X16585Y21177D1*
X16567Y21300D1*
X16576Y21425D1*
X16613Y21544D1*
X16675Y21652D1*
X16760Y21744D1*
X16862Y21815D1*
X16978Y21861D1*
X17101Y21881D1*
X17226Y21874D1*
X17346Y21839D1*
X17455Y21779D1*
X17548Y21696D1*
X17621Y21594D1*
X17669Y21479D1*
X17692Y21319D1*
X17679Y21195D1*
X22309Y12435D2*
X22395Y12569D1*
X22489Y12651D1*
X22582Y12700D1*
X22545Y12715D1*
X22442Y12785D1*
X22358Y12877D1*
X22296Y12985D1*
X22261Y13105D1*
X22256Y13179D1*
X21984Y13182D1*
X21899Y13134D1*
X21864Y13129D1*
X21868Y13063D1*
X21974Y13011D1*
X22056Y12917D1*
X22094Y12770D1*
X22069Y12648D1*
X21997Y12547D1*
X21890Y12484D1*
X21767Y12468D1*
X21711Y12484D1*
X21728Y12438D1*
X22310D1*
X19597Y22098D2*
X20489D1*
Y21082D1*
X20110D1*
X20203Y21047D1*
X20307Y20980D1*
X20392Y20888D1*
X20452Y20779D1*
X20484Y20659D1*
X20489Y20590D1*
X20473Y20466D1*
X20428Y20350D1*
X20357Y20248D1*
X20262Y20167D1*
X20151Y20111D1*
X20029Y20084D1*
X19904Y20088D1*
X19784Y20121D1*
X19676Y20183D1*
X19586Y20270D1*
X19520Y20375D1*
X19481Y20494D1*
X19473Y20618D1*
X19495Y20741D1*
X19546Y20855D1*
X19624Y20952D1*
X19723Y21028D1*
X19864Y21082D1*
X19472D1*
Y22098D1*
X19597D1*
X11997Y22068D2*
X12951D1*
X12923Y22100D1*
X12867Y22211D1*
X12862Y22335D1*
X12906Y22451D1*
X12936Y22481D1*
X12867Y22611D1*
X12862Y22735D1*
X12906Y22851D1*
X12936Y22881D1*
X12867Y23011D1*
X12862Y23135D1*
X12906Y23251D1*
X12936Y23281D1*
X12867Y23411D1*
X12862Y23535D1*
X12906Y23651D1*
X12936Y23681D1*
X12867Y23811D1*
X12862Y23935D1*
X12906Y24051D1*
X12936Y24081D1*
X12867Y24211D1*
X12862Y24335D1*
X12906Y24451D1*
X12936Y24481D1*
X12867Y24611D1*
X12862Y24735D1*
X12906Y24851D1*
X12993Y24939D1*
X13108Y24985D1*
X13232Y24981D1*
X13344Y24928D1*
X13357Y24913D1*
X13393Y24939D1*
X13508Y24985D1*
X13632Y24981D1*
X13744Y24928D1*
X13757Y24913D1*
X13793Y24939D1*
X13908Y24985D1*
X14032Y24981D1*
X14144Y24928D1*
X14157Y24913D1*
X14193Y24939D1*
X14308Y24985D1*
X14432Y24981D1*
X14544Y24928D1*
X14557Y24913D1*
X14593Y24939D1*
X14708Y24985D1*
X14832Y24981D1*
X14944Y24928D1*
X14957Y24913D1*
X14993Y24939D1*
X15108Y24985D1*
X15232Y24981D1*
X15344Y24928D1*
X15357Y24913D1*
X15393Y24939D1*
X15508Y24985D1*
X15632Y24981D1*
X15744Y24928D1*
X15757Y24913D1*
X15793Y24939D1*
X15908Y24985D1*
X16032Y24981D1*
X16144Y24928D1*
X16226Y24834D1*
X16264Y24687D1*
X16238Y24565D1*
X16187Y24493D1*
X16226Y24434D1*
X16264Y24287D1*
X16238Y24165D1*
X16187Y24093D1*
X16226Y24034D1*
X16264Y23887D1*
X16238Y23765D1*
X16187Y23693D1*
X16226Y23634D1*
X16264Y23487D1*
X16238Y23365D1*
X16187Y23293D1*
X16226Y23234D1*
X16264Y23087D1*
X16238Y22965D1*
X16187Y22893D1*
X16226Y22834D1*
X16264Y22687D1*
X16238Y22565D1*
X16187Y22493D1*
X16226Y22434D1*
X16264Y22287D1*
X16238Y22165D1*
X16166Y22064D1*
X16060Y22001D1*
X15937Y21985D1*
X15818Y22020D1*
X15723Y22100D1*
X15667Y22211D1*
X15662Y22335D1*
X15706Y22451D1*
X15736Y22481D1*
X15667Y22611D1*
X15662Y22735D1*
X15706Y22851D1*
X15736Y22881D1*
X15667Y23011D1*
X15662Y23135D1*
X15706Y23251D1*
X15736Y23281D1*
X15667Y23411D1*
X15662Y23535D1*
X15706Y23651D1*
X15736Y23681D1*
X15667Y23811D1*
X15662Y23935D1*
X15706Y24051D1*
X15736Y24081D1*
X15667Y24211D1*
X15662Y24335D1*
X15691Y24411D1*
X15537Y24385D1*
X15418Y24420D1*
X15367Y24462D1*
X15260Y24401D1*
X15137Y24385D1*
X15018Y24420D1*
X14967Y24462D1*
X14860Y24401D1*
X14737Y24385D1*
X14618Y24420D1*
X14567Y24462D1*
X14460Y24401D1*
X14337Y24385D1*
X14218Y24420D1*
X14167Y24462D1*
X14060Y24401D1*
X13937Y24385D1*
X13818Y24420D1*
X13767Y24462D1*
X13660Y24401D1*
X13537Y24385D1*
X13436Y24414D1*
X13464Y24287D1*
X13438Y24165D1*
X13387Y24093D1*
X13426Y24034D1*
X13464Y23887D1*
X13438Y23765D1*
X13387Y23693D1*
X13426Y23634D1*
X13464Y23487D1*
X13438Y23365D1*
X13387Y23293D1*
X13426Y23234D1*
X13464Y23087D1*
X13438Y22965D1*
X13387Y22893D1*
X13426Y22834D1*
X13464Y22687D1*
X13438Y22565D1*
X13387Y22493D1*
X13426Y22434D1*
X13464Y22287D1*
X13438Y22165D1*
X13366Y22064D1*
X13260Y22001D1*
X13137Y21985D1*
X13018Y22020D1*
X12923Y22100D1*
X12988Y22038D1*
Y21052D1*
X12608D1*
X12702Y21017D1*
X12807Y20949D1*
X12892Y20858D1*
X12952Y20749D1*
X12984Y20628D1*
X12988Y20560D1*
X12973Y20436D1*
X12928Y20320D1*
X12856Y20218D1*
X12762Y20137D1*
X12650Y20081D1*
X12528Y20054D1*
X12404Y20057D1*
X12284Y20091D1*
X12175Y20153D1*
X12086Y20239D1*
X12019Y20345D1*
X11981Y20464D1*
X11973Y20588D1*
X11995Y20711D1*
X12046Y20825D1*
X12123Y20922D1*
X12222Y20998D1*
X12364Y21052D1*
X11972D1*
Y21382D1*
X11901Y21282D1*
X11794Y21219D1*
X11671Y21203D1*
X11552Y21238D1*
X11457Y21318D1*
X11402Y21429D1*
X11396Y21553D1*
X11440Y21669D1*
X11527Y21757D1*
X11642Y21803D1*
X11766Y21799D1*
X11879Y21746D1*
X11960Y21652D1*
X11972Y21612D1*
Y22068D1*
X11997D1*
X7828Y22228D2*
X8037D1*
X8155Y22192D1*
X8234Y22093D1*
X8250Y22015D1*
Y21345D1*
X8215Y21227D1*
X8116Y21149D1*
X8037Y21132D1*
X7703D1*
X7582Y21171D1*
X7552Y21197D1*
X7402Y21238D1*
X7307Y21318D1*
X7252Y21429D1*
X7246Y21553D1*
X7290Y21669D1*
X7377Y21757D1*
X7489Y21802D1*
X7490Y22015D1*
X7525Y22133D1*
X7624Y22211D1*
X7703Y22228D1*
X7828D1*
X7040Y23409D2*
X7250D1*
X7368Y23373D1*
X7447Y23274D1*
X7463Y23196D1*
Y22997D1*
X7492Y23003D1*
X7616Y22999D1*
X7729Y22946D1*
X7810Y22852D1*
X7848Y22705D1*
X7823Y22584D1*
X7751Y22482D1*
X7644Y22419D1*
X7521Y22403D1*
X7435Y22428D1*
X7427Y22409D1*
X7328Y22330D1*
X7250Y22313D1*
X6915D1*
X6797Y22349D1*
X6718Y22448D1*
X6702Y22526D1*
Y23196D1*
X6738Y23314D1*
X6837Y23393D1*
X6915Y23409D1*
X7040D1*
X6253Y22228D2*
X6463D1*
X6580Y22192D1*
X6659Y22093D1*
X6671Y22057D1*
X6766Y22049D1*
X6879Y21996D1*
X6960Y21902D1*
X6998Y21755D1*
X6973Y21634D1*
X6934Y21580D1*
X6933Y19642D1*
X6960Y19602D1*
X6998Y19455D1*
X6973Y19334D1*
X6901Y19232D1*
X6794Y19169D1*
X6671Y19153D1*
X6552Y19188D1*
X6457Y19268D1*
X6402Y19379D1*
X6396Y19503D1*
X6440Y19619D1*
X6459Y19638D1*
X6457Y21131D1*
X6385Y21102D1*
X6423Y20955D1*
X6398Y20834D1*
X6326Y20732D1*
X6219Y20669D1*
X6192Y20665D1*
X6197Y20626D1*
X6304Y20571D1*
X6385Y20477D1*
X6423Y20330D1*
X6398Y20209D1*
X6326Y20107D1*
X6219Y20044D1*
X6096Y20028D1*
X5977Y20063D1*
X5885Y20140D1*
X5851Y20107D1*
X5744Y20044D1*
X5621Y20028D1*
X5502Y20063D1*
X5410Y20140D1*
X5376Y20107D1*
X5269Y20044D1*
X5146Y20028D1*
X5027Y20063D1*
X4932Y20143D1*
X4877Y20254D1*
X4871Y20378D1*
X4915Y20494D1*
X5002Y20582D1*
X5092Y20618D1*
X5027Y20688D1*
X4932Y20768D1*
X4877Y20879D1*
X4871Y21003D1*
X4915Y21119D1*
X4934Y21138D1*
X4821Y21132D1*
X4848Y21005D1*
X4823Y20884D1*
X4789Y20836D1*
X4810Y20802D1*
X4848Y20655D1*
X4823Y20534D1*
X4789Y20486D1*
X4810Y20452D1*
X4848Y20305D1*
X4823Y20184D1*
X4751Y20082D1*
X4644Y20019D1*
X4521Y20003D1*
X4399Y20040D1*
X4344Y20019D1*
X4221Y20003D1*
X4102Y20038D1*
X4007Y20118D1*
X3952Y20229D1*
X3946Y20353D1*
X3998Y20477D1*
X3952Y20579D1*
X3946Y20703D1*
X3998Y20827D1*
X3952Y20929D1*
X3946Y21053D1*
X3990Y21169D1*
X4077Y21257D1*
X4192Y21303D1*
X4316Y21299D1*
X4348Y21284D1*
X4340Y21345D1*
Y22015D1*
X4376Y22133D1*
X4475Y22211D1*
X4553Y22228D1*
X4888D1*
X5006Y22192D1*
X5085Y22093D1*
X5101Y22015D1*
X5095Y21302D1*
X5117Y21253D1*
X5241Y21249D1*
X5354Y21196D1*
X5402Y21140D1*
X5477Y21207D1*
X5592Y21253D1*
X5716Y21249D1*
X5829Y21196D1*
X5877Y21140D1*
X5963Y21212D1*
X5919Y21302D1*
X5915Y21595D1*
Y22015D1*
X5951Y22133D1*
X6049Y22211D1*
X6128Y22228D1*
X6253D1*
X5465Y23409D2*
X5675D1*
X5793Y23373D1*
X5872Y23274D1*
X5888Y23196D1*
Y22526D1*
X5852Y22409D1*
X5754Y22330D1*
X5675Y22313D1*
X5340D1*
X5223Y22349D1*
X5144Y22448D1*
X5127Y22526D1*
Y23196D1*
X5163Y23314D1*
X5262Y23393D1*
X5340Y23409D1*
X5465D1*
X3891D2*
X4100D1*
X4218Y23373D1*
X4297Y23274D1*
X4313Y23196D1*
Y22526D1*
X4278Y22409D1*
X4179Y22330D1*
X4100Y22313D1*
X3766D1*
X3648Y22349D1*
X3569Y22448D1*
X3553Y22526D1*
X3549Y22632D1*
X3397D1*
X3309Y22584D1*
X3186Y22568D1*
X3067Y22603D1*
X2972Y22683D1*
X2917Y22794D1*
X2911Y22918D1*
X2955Y23034D1*
X3042Y23122D1*
X3157Y23168D1*
X3281Y23164D1*
X3396Y23108D1*
X3550D1*
X3553Y23196D1*
X3588Y23314D1*
X3687Y23393D1*
X3766Y23409D1*
X3891D1*
X3103Y22228D2*
X3313D1*
X3431Y22192D1*
X3510Y22093D1*
X3526Y22015D1*
Y21345D1*
X3490Y21227D1*
X3391Y21149D1*
X3313Y21132D1*
X2978D1*
X2860Y21168D1*
X2781Y21267D1*
X2765Y21345D1*
Y22015D1*
X2801Y22133D1*
X2900Y22211D1*
X2978Y22228D1*
X3103D1*
X741Y23409D2*
X951D1*
X1069Y23373D1*
X1148Y23274D1*
X1164Y23196D1*
Y22526D1*
X1125Y22406D1*
X1099Y22375D1*
X1072Y22284D1*
X1048Y22134D1*
X976Y22032D1*
X869Y21969D1*
X746Y21953D1*
X627Y21988D1*
X532Y22068D1*
X477Y22179D1*
X471Y22303D1*
X492Y22357D1*
X467Y22375D1*
X408Y22483D1*
X403Y22776D1*
Y23196D1*
X439Y23314D1*
X538Y23393D1*
X616Y23409D1*
X741D1*
X23500Y22886D2*
X23464Y22782D1*
X23398Y22677D1*
X23308Y22590D1*
X23200Y22528D1*
X23113Y22500D1*
X23202Y22472D1*
X23310Y22409D1*
X23399Y22322D1*
X23465Y22216D1*
X23500Y22109D1*
X23553Y22252D1*
X23627Y22352D1*
X23723Y22432D1*
X23836Y22486D1*
X23893Y22498D1*
X23810Y22523D1*
X23701Y22583D1*
X23609Y22668D1*
X23541Y22772D1*
X23500Y22886D1*
X23718Y21574D2*
X23609Y21668D1*
X23541Y21772D1*
X23498Y21876D1*
X23453Y21760D1*
X23382Y21658D1*
X23288Y21575D1*
X23177Y21519D1*
X23105Y21502D1*
X23202Y21472D1*
X23310Y21409D1*
X23399Y21322D1*
X23465Y21216D1*
X23500Y21109D1*
X23553Y21252D1*
X23627Y21352D1*
X23702Y21414D1*
X23701Y21511D1*
X23722Y21565D1*
X11923Y23784D2*
X11851Y23682D1*
X11744Y23619D1*
X11621Y23603D1*
X11502Y23638D1*
X11407Y23718D1*
X11352Y23829D1*
X11346Y23953D1*
X11390Y24069D1*
X11477Y24157D1*
X11592Y24203D1*
X11716Y24199D1*
X11829Y24146D1*
X11910Y24052D1*
X11948Y23905D1*
X11923Y23784D1*
X10573D2*
X10501Y23682D1*
X10394Y23619D1*
X10271Y23603D1*
X10152Y23638D1*
X10057Y23718D1*
X10002Y23829D1*
X9996Y23953D1*
X10040Y24069D1*
X10127Y24157D1*
X10242Y24203D1*
X10366Y24199D1*
X10479Y24146D1*
X10560Y24052D1*
X10598Y23905D1*
X10573Y23784D1*
Y21384D2*
X10501Y21282D1*
X10394Y21219D1*
X10271Y21203D1*
X10152Y21238D1*
X10057Y21318D1*
X10002Y21429D1*
X9996Y21553D1*
X10040Y21669D1*
X10127Y21757D1*
X10242Y21803D1*
X10366Y21799D1*
X10479Y21746D1*
X10560Y21652D1*
X10598Y21505D1*
X10573Y21384D1*
X9373Y23784D2*
X9301Y23682D1*
X9194Y23619D1*
X9071Y23603D1*
X8952Y23638D1*
X8857Y23718D1*
X8802Y23829D1*
X8796Y23953D1*
X8840Y24069D1*
X8927Y24157D1*
X9042Y24203D1*
X9166Y24199D1*
X9279Y24146D1*
X9360Y24052D1*
X9398Y23905D1*
X9373Y23784D1*
X7823D2*
X7751Y23682D1*
X7644Y23619D1*
X7521Y23603D1*
X7402Y23638D1*
X7307Y23718D1*
X7252Y23829D1*
X7246Y23953D1*
X7290Y24069D1*
X7377Y24157D1*
X7492Y24203D1*
X7616Y24199D1*
X7729Y24146D1*
X7810Y24052D1*
X7848Y23905D1*
X7823Y23784D1*
X9373Y21384D2*
X9301Y21282D1*
X9194Y21219D1*
X9071Y21203D1*
X8952Y21238D1*
X8857Y21318D1*
X8802Y21429D1*
X8796Y21553D1*
X8840Y21669D1*
X8927Y21757D1*
X9042Y21803D1*
X9166Y21799D1*
X9279Y21746D1*
X9360Y21652D1*
X9398Y21505D1*
X9373Y21384D1*
X11973Y22584D2*
X11901Y22482D1*
X11794Y22419D1*
X11671Y22403D1*
X11552Y22438D1*
X11457Y22518D1*
X11402Y22629D1*
X11396Y22753D1*
X11440Y22869D1*
X11527Y22957D1*
X11642Y23003D1*
X11766Y22999D1*
X11879Y22946D1*
X11960Y22852D1*
X11998Y22705D1*
X11973Y22584D1*
X10573D2*
X10501Y22482D1*
X10394Y22419D1*
X10271Y22403D1*
X10152Y22438D1*
X10057Y22518D1*
X10002Y22629D1*
X9996Y22753D1*
X10040Y22869D1*
X10127Y22957D1*
X10242Y23003D1*
X10366Y22999D1*
X10479Y22946D1*
X10560Y22852D1*
X10598Y22705D1*
X10573Y22584D1*
X9373D2*
X9301Y22482D1*
X9194Y22419D1*
X9071Y22403D1*
X8952Y22438D1*
X8857Y22518D1*
X8802Y22629D1*
X8796Y22753D1*
X8840Y22869D1*
X8927Y22957D1*
X9042Y23003D1*
X9166Y22999D1*
X9279Y22946D1*
X9360Y22852D1*
X9398Y22705D1*
X9373Y22584D1*
X18925Y20976D2*
X18853Y20875D1*
X18747Y20812D1*
X18624Y20796D1*
X18505Y20831D1*
X18409Y20911D1*
X18354Y21022D1*
X18348Y21146D1*
X18393Y21262D1*
X18480Y21350D1*
X18595Y21396D1*
X18719Y21392D1*
X18831Y21339D1*
X18912Y21245D1*
X18951Y21098D1*
X18925Y20976D1*
X21068Y19079D2*
X20996Y18977D1*
X20889Y18914D1*
X20766Y18898D1*
X20647Y18933D1*
X20552Y19013D1*
X20497Y19124D1*
X20491Y19248D1*
X20535Y19364D1*
X20622Y19452D1*
X20737Y19498D1*
X20861Y19494D1*
X20974Y19441D1*
X21055Y19347D1*
X21093Y19200D1*
X21068Y19079D1*
X19017Y19210D2*
X18945Y19109D1*
X18839Y19045D1*
X18716Y19030D1*
X18597Y19065D1*
X18502Y19145D1*
X18446Y19256D1*
X18441Y19380D1*
X18485Y19496D1*
X18572Y19584D1*
X18687Y19630D1*
X18811Y19626D1*
X18923Y19573D1*
X19005Y19479D1*
X19043Y19332D1*
X19017Y19210D1*
X18140Y21917D2*
X18068Y21816D1*
X17961Y21752D1*
X17838Y21736D1*
X17719Y21771D1*
X17624Y21851D1*
X17569Y21962D1*
X17563Y22086D1*
X17607Y22202D1*
X17695Y22291D1*
X17810Y22337D1*
X17934Y22333D1*
X18046Y22279D1*
X18127Y22186D1*
X18165Y22038D1*
X18140Y21917D1*
X4620Y23965D2*
X4540Y23845D1*
X4451Y23757D1*
X4349Y23686D1*
X4235Y23634D1*
X4114Y23602D1*
X3990Y23592D1*
X3866Y23604D1*
X3745Y23637D1*
X3633Y23691D1*
X3531Y23764D1*
X3444Y23853D1*
X3373Y23956D1*
X3322Y24070D1*
X3291Y24191D1*
X3282Y24315D1*
X3295Y24439D1*
X3329Y24559D1*
X3383Y24672D1*
X3457Y24773D1*
X3547Y24859D1*
X3650Y24929D1*
X3764Y24980D1*
X3886Y25010D1*
X4010Y25018D1*
X4134Y25004D1*
X4254Y24969D1*
X4366Y24914D1*
X4466Y24840D1*
X4552Y24749D1*
X4619Y24649D1*
X4707Y24773D1*
X4797Y24859D1*
X4900Y24929D1*
X5014Y24980D1*
X5136Y25010D1*
X5260Y25018D1*
X5384Y25004D1*
X5504Y24969D1*
X5616Y24914D1*
X5716Y24840D1*
X5802Y24749D1*
X5871Y24645D1*
X5921Y24531D1*
X5950Y24410D1*
X5958Y24305D1*
X5947Y24181D1*
X5915Y24060D1*
X5862Y23947D1*
X5790Y23845D1*
X5701Y23757D1*
X5599Y23686D1*
X5485Y23634D1*
X5364Y23602D1*
X5240Y23592D1*
X5116Y23604D1*
X4995Y23637D1*
X4883Y23691D1*
X4781Y23764D1*
X4694Y23853D1*
X4622Y23959D1*
X1057Y22332D2*
X1073Y22255D1*
X1048Y22134D1*
X976Y22032D1*
X869Y21969D1*
X746Y21953D1*
X627Y21988D1*
X532Y22068D1*
X477Y22179D1*
X471Y22303D1*
X492Y22357D1*
X419Y22448D1*
X18925Y20976D2*
X18853Y20875D1*
X18747Y20812D1*
X18624Y20796D1*
X18505Y20831D1*
X18409Y20911D1*
X18354Y21022D1*
X18348Y21146D1*
X18393Y21262D1*
X18480Y21350D1*
X18595Y21396D1*
X18719Y21392D1*
X18831Y21339D1*
X18912Y21245D1*
X18951Y21098D1*
X18925Y20976D1*
X12973Y18334D2*
X12901Y18232D1*
X12794Y18169D1*
X12671Y18153D1*
X12552Y18188D1*
X12457Y18268D1*
X12402Y18379D1*
X12396Y18503D1*
X12440Y18619D1*
X12528Y18707D1*
X12643Y18753D1*
X12767Y18750D1*
X12879Y18696D1*
X12960Y18602D1*
X12998Y18455D1*
X12973Y18334D1*
X11972Y22068D2*
D24*
X12988Y21052D1*
Y22068D2*
X11972Y21052D1*
X22638Y23362D2*
X23362Y22638D1*
Y23362D2*
X22638Y22638D1*
D28*
X17090Y18760D3*
X17129Y21319D3*
D41*
X22800Y9200D3*
Y10200D3*
Y11200D3*
Y12200D3*
Y13200D3*
Y14200D3*
Y15200D3*
Y16200D3*
X23800Y9200D3*
Y10200D3*
Y11200D3*
Y12200D3*
Y13200D3*
Y14200D3*
Y15200D3*
Y16200D3*
X24800Y9200D3*
Y10200D3*
Y11200D3*
Y12200D3*
Y13200D3*
Y14200D3*
Y15200D3*
Y16200D3*
D44*
X4945Y15530D3*
D46*
X3945D3*
X2945D3*
X1945D3*
D44*
X19980Y21590D3*
D46*
Y20590D3*
D44*
X22175Y2386D3*
D46*
Y3386D3*
D44*
X12480Y21560D3*
D46*
Y20560D3*
D44*
X18634Y14143D3*
D46*
Y15143D3*
Y16143D3*
Y17143D3*
Y18143D3*
D44*
X10330Y13290D3*
G36*
X8037Y22015D2*
X7703D1*
Y21345D1*
X8037D1*
Y22015D1*
G37*
G36*
X7250Y23196D2*
X6915D1*
Y22526D1*
X7250D1*
Y23196D1*
G37*
G36*
X6463Y22015D2*
X6128D1*
Y21345D1*
X6463D1*
Y22015D1*
G37*
G36*
X5675Y23196D2*
X5340D1*
Y22526D1*
X5675D1*
Y23196D1*
G37*
G36*
X4888Y22015D2*
X4553D1*
Y21345D1*
X4888D1*
Y22015D1*
G37*
G36*
X4100Y23196D2*
X3766D1*
Y22526D1*
X4100D1*
Y23196D1*
G37*
G36*
X3313Y22015D2*
X2978D1*
Y21345D1*
X3313D1*
Y22015D1*
G37*
G36*
X2526Y23196D2*
X2191D1*
Y22526D1*
X2526D1*
Y23196D1*
G37*
G36*
X1738Y22015D2*
X1403D1*
Y21345D1*
X1738D1*
Y22015D1*
G37*
G36*
X951Y23196D2*
X616D1*
Y22526D1*
X951D1*
Y23196D1*
G37*
G36*
X8037Y13353D2*
X7703D1*
Y12684D1*
X8037D1*
Y13353D1*
G37*
G36*
X7250Y14534D2*
X6915D1*
Y13865D1*
X7250D1*
Y14534D1*
G37*
G36*
X6463Y13353D2*
X6128D1*
Y12684D1*
X6463D1*
Y13353D1*
G37*
G36*
X5675Y14534D2*
X5340D1*
Y13865D1*
X5675D1*
Y14534D1*
G37*
G36*
X4888Y13353D2*
X4553D1*
Y12684D1*
X4888D1*
Y13353D1*
G37*
G36*
X4100Y14534D2*
X3766D1*
Y13865D1*
X4100D1*
Y14534D1*
G37*
G36*
X3313Y13353D2*
X2978D1*
Y12684D1*
X3313D1*
Y13353D1*
G37*
G36*
X2526Y14534D2*
X2191D1*
Y13865D1*
X2526D1*
Y14534D1*
G37*
G36*
X1738Y13353D2*
X1403D1*
Y12684D1*
X1738D1*
Y13353D1*
G37*
G36*
X951Y14534D2*
X616D1*
Y13865D1*
X951D1*
Y14534D1*
G37*
D44*
X14077Y17359D3*
D46*
X15077D3*
D65*
X23000Y23000D3*
X24000D3*
Y22000D3*
X23000D3*
X24000Y21000D3*
X23000D3*
X24000Y20000D3*
X23000D3*
Y19000D3*
D66*
X24000D3*
D67*
X3995Y24305D3*
X5245D3*
M02*
