M48
INCH
T01C0.01
T02C0.0354
T03C0.038
T04C0.0394
T05C0.06
T06C0.12
T07C0.13
%
T01
X+004545Y+021005
X+004245Y+021005
X+004245Y+020655
X+004545Y+020655
X+004545Y+020305
X+004245Y+020305
X+005170Y+020330
X+005395Y+020630
X+005645Y+020330
X+005895Y+020630
X+006120Y+020330
X+006120Y+020955
X+005645Y+020955
X+005170Y+020955
X+006695Y+021755
X+007545Y+021505
X+007545Y+022705
X+007545Y+023905
X+009095Y+023905
X+010295Y+023905
X+010295Y+022705
X+010295Y+021505
X+009095Y+021505
X+009095Y+022705
X+011695Y+022705
X+011695Y+021505
X+013161Y+022287
X+013161Y+022687
X+013161Y+023087
X+013161Y+023487
X+013161Y+023887
X+013161Y+024287
X+013161Y+024687
X+013561Y+024687
X+013961Y+024687
X+014361Y+024687
X+014761Y+024687
X+015161Y+024687
X+015561Y+024687
X+015961Y+024687
X+015961Y+024287
X+015961Y+023887
X+015961Y+023487
X+015961Y+023087
X+015961Y+022687
X+015961Y+022287
X+017862Y+022038
X+018648Y+021098
X+018740Y+019332
X+020790Y+019200
X+021670Y+020090
X+022310Y+021000
X+024000Y+021463
X+022140Y+017870
X+021800Y+013420
X+021791Y+012770
X+021540Y+012731
X+021530Y+010790
X+021360Y+010580
X+021130Y+010740
X+021065Y+009974
X+021800Y+009670
X+021800Y+009240
X+023005Y+008742
X+022683Y+007844
X+021544Y+005531
X+019491Y+005635
X+019464Y+006012
X+019476Y+007600
X+019467Y+007909
X+019499Y+008482
X+019510Y+009270
X+019509Y+010262
X+017760Y+009910
X+017590Y+009740
X+017420Y+009910
X+016595Y+008805
X+016715Y+011500
X+016409Y+011512
X+015439Y+011542
X+015109Y+011512
X+014809Y+011512
X+014349Y+011382
X+013880Y+012460
X+013286Y+012485
X+012932Y+012787
X+012758Y+012616
X+012522Y+012546
X+011908Y+012467
X+011500Y+012460
X+011659Y+011512
X+012059Y+011512
X+012379Y+011508
X+012989Y+011382
X+010445Y+011072
X+010459Y+010712
X+010467Y+010370
X+010419Y+010042
X+010579Y+009582
X+009499Y+010042
X+009099Y+009411
X+008699Y+009582
X+008509Y+008792
X+008179Y+008622
X+009059Y+008452
X+009439Y+008622
X+009433Y+007662
X+008999Y+007042
X+007899Y+006702
X+007899Y+005872
X+007789Y+005362
X+006869Y+004741
X+005782Y+004701
X+005782Y+005651
X+005782Y+006577
X+005782Y+007251
X+004879Y+007042
X+004479Y+006882
X+004210Y+006220
X+003609Y+007212
X+003891Y+007420
X+002276Y+007201
X+002232Y+006601
X+002232Y+005651
X+003051Y+005960
X+002232Y+004651
X+002273Y+003742
X+002232Y+003101
X+005782Y+003101
X+006020Y+002620
X+005782Y+003751
X+007459Y+002962
X+008364Y+003754
X+009499Y+004542
X+010419Y+005132
X+010459Y+005862
X+010468Y+006189
X+009486Y+005708
X+010459Y+003954
X+010995Y+003530
X+011210Y+003300
X+011610Y+003130
X+012259Y+002962
X+013228Y+002462
X+013530Y+002473
X+014249Y+003522
X+013659Y+004741
X+013319Y+004542
X+013209Y+005512
X+013459Y+007212
X+012950Y+007420
X+011800Y+009000
X+010447Y+008148
X+010459Y+007821
X+007329Y+007822
X+006769Y+007212
X+007017Y+006852
X+006769Y+006042
X+007059Y+008782
X+005359Y+010042
X+005782Y+011351
X+006001Y+011701
X+005698Y+012162
X+006780Y+012870
X+006770Y+013620
X+006070Y+013930
X+008377Y+013598
X+008330Y+012860
X+009760Y+012860
X+010890Y+014080
X+012771Y+014580
X+012260Y+015620
X+013880Y+016090
X+014636Y+016915
X+016463Y+016368
X+016447Y+016008
X+016413Y+015493
X+016837Y+016373
X+017263Y+016393
X+017488Y+015793
X+017488Y+015443
X+016879Y+014171
X+017342Y+013688
X+017840Y+012990
X+018209Y+013421
X+018420Y+012460
X+018209Y+011514
X+015419Y+012462
X+015743Y+014588
X+015077Y+015032
X+017740Y+016883
X+017238Y+017828
X+016849Y+017835
X+012695Y+018455
X+011645Y+023905
X+006695Y+019455
X+003210Y+022870
X+000770Y+022255
X+000770Y+021005
X+001880Y+020250
X+003370Y+014105
X+001181Y+012101
X+002232Y+011301
X+002469Y+008782
X+007059Y+011572
X+008023Y+010986
X+008468Y+011072
X+008690Y+010710
X+010859Y+002462
X+011180Y+002462
X+010559Y+001385
X+015409Y+002462
X+015709Y+002462
X+016820Y+002480
X+017030Y+001571
X+017092Y+001210
X+017311Y+000973
X+015837Y+000787
X+017959Y+002462
X+018259Y+002462
X+018863Y+002460
X+019499Y+003081
X+019470Y+003380
X+019150Y+003977
X+019386Y+004169
X+018664Y+004363
X+022440Y+001760
X+022833Y+001474
X+023000Y+001250
X+022814Y+001111
X+023421Y+003290
X+024605Y+005095
T02
X+017090Y+018760
X+018634Y+018143
X+018634Y+017143
X+018634Y+016143
X+018634Y+015143
X+018634Y+014143
X+015077Y+017359
X+014077Y+017359
X+012480Y+020560
X+012480Y+021560
X+017129Y+021319
X+019980Y+021590
X+019980Y+020590
X+010330Y+013290
X+004945Y+015530
X+003945Y+015530
X+002945Y+015530
X+001945Y+015530
X+022175Y+003386
X+022175Y+002386
T03
X+023000Y+023000
X+024000Y+023000
X+024000Y+022000
X+023000Y+022000
X+023000Y+021000
X+024000Y+021000
X+024000Y+020000
X+023000Y+020000
X+023000Y+019000
X+024000Y+019000
T04
X+022800Y+009200
X+022800Y+010200
X+023800Y+010200
X+023800Y+009200
X+024800Y+009200
X+024800Y+010200
X+024800Y+011200
X+023800Y+011200
X+022800Y+011200
X+022800Y+012200
X+022800Y+013200
X+022800Y+014200
X+023800Y+014200
X+023800Y+013200
X+023800Y+012200
X+024800Y+012200
X+024800Y+013200
X+024800Y+014200
X+024800Y+015200
X+023800Y+015200
X+022800Y+015200
X+022800Y+016200
X+023800Y+016200
X+024800Y+016200
T05
X+003995Y+024305
X+005245Y+024305
T06
X+001100Y+001100
X+020400Y+001100
T07
X+001100Y+024500
X+020418Y+024328
T00
M30
