G04 DipTrace 2.3.1.0*
%INAutoPilot.GTO*%
%MOIN*%
%ADD10C,0.0059*%
%ADD11C,0.003*%
%ADD26O,0.0165X0.018*%
%ADD27C,0.008*%
%ADD40C,0.0394*%
%ADD50C,0.0154*%
%ADD52C,0.0164*%
%ADD57C,0.0158*%
%ADD59O,0.0138X0.0157*%
%ADD140C,0.0046*%
%FSLAX44Y44*%
G04*
G70*
G90*
G75*
G01*
%LNTopSilk*%
%LPD*%
X6728Y24088D2*
D10*
Y25072D1*
X6653Y24088D2*
Y25072D1*
Y24088D2*
X6889D1*
X6653Y25072D2*
X6889D1*
X6728Y22968D2*
Y23952D1*
X6653Y22968D2*
Y23952D1*
Y22968D2*
X6889D1*
X6653Y23952D2*
X6889D1*
X13145Y19050D2*
X14129D1*
X13145Y19124D2*
X14129D1*
X13145D2*
Y18888D1*
X14129Y19124D2*
Y18888D1*
X16372Y18960D2*
X15387D1*
X16372Y18886D2*
X15387D1*
X16372D2*
Y19121D1*
X15387Y18886D2*
Y19121D1*
X10560Y19863D2*
X9930D1*
X10560Y19788D2*
X9930D1*
X10560D2*
Y20024D1*
X9930Y19788D2*
Y20024D1*
X11610Y19863D2*
X10980D1*
X11610Y19788D2*
X10980D1*
X11610D2*
Y20024D1*
X10980Y19788D2*
Y20024D1*
X20971Y20494D2*
X21482D1*
X21102Y8566D2*
X21614D1*
X23463Y7979D2*
Y8491D1*
X2225Y14187D2*
Y13873D1*
X2215Y13387D2*
Y13073D1*
X2185Y12597D2*
Y12283D1*
X6917Y19204D2*
Y22786D1*
X9673D1*
X9634Y19204D1*
X7901Y18613D2*
X8689D1*
X7941D2*
X6917Y19204D1*
X8689Y18613D2*
X9673Y19243D1*
X22304Y8763D2*
X25296D1*
Y16637D1*
X22304D1*
Y8763D1*
D40*
X22737Y8488D3*
X23122Y5150D2*
D10*
X24476D1*
Y7650D1*
X23122D1*
Y5150D1*
D40*
X24389Y4825D3*
X1445Y16030D2*
D10*
Y15030D1*
X5445Y16030D2*
X1445D1*
X5445Y15030D2*
X1445D1*
X5445Y16030D2*
Y15030D1*
X19480Y20090D2*
X20480D1*
X19480Y22090D2*
Y20090D1*
Y22090D2*
X20480D1*
Y20090D1*
X22675Y3886D2*
X21675D1*
X22675Y1886D2*
Y3886D1*
Y1886D2*
X21675D1*
Y3886D1*
X24309Y332D2*
X23443D1*
Y805D1*
Y3324D2*
Y3797D1*
X24309D1*
X25254Y962D2*
Y3246D1*
X11980Y20060D2*
X12980D1*
X11980Y22060D2*
Y20060D1*
Y22060D2*
X12980D1*
Y20060D1*
X19134Y18643D2*
X18134D1*
X19134Y13643D2*
Y18643D1*
X18134Y13643D2*
Y18643D1*
X19134Y13643D2*
X18134D1*
X6747Y17092D2*
Y18274D1*
X10683D1*
Y17092D1*
Y15518D2*
Y14336D1*
X6747D1*
Y15518D1*
D50*
X6547Y12562D3*
X6046Y12654D2*
D10*
Y13835D1*
X5849D1*
Y12654D1*
X6046D1*
D50*
X8097Y12542D3*
X7596Y12634D2*
D10*
Y13815D1*
X7399D1*
Y12634D1*
X7596D1*
D50*
X9557Y12552D3*
X9056Y12644D2*
D10*
Y13825D1*
X8859D1*
Y12644D1*
X9056D1*
D50*
X12301Y16407D3*
X12803Y16315D2*
D10*
Y15134D1*
X13000D1*
Y16315D1*
X12803D1*
X1782Y19100D2*
D27*
X2770D1*
X3270Y18706D2*
Y17494D1*
X2758Y17100D2*
X1782D1*
X1270Y17494D2*
Y18706D1*
X1770Y18100D2*
G02X1770Y18100I500J0D01*
G01*
X9779Y13842D2*
D10*
X10881D1*
Y12739D2*
Y13842D1*
X9779Y12739D2*
X10881D1*
X9779D2*
Y13842D1*
X19490Y11531D2*
X10435D1*
Y2479D1*
X19490D1*
Y11531D1*
D52*
X19467Y12008D3*
G36*
X19490Y11531D2*
X18979D1*
X19490Y11020D1*
Y11531D1*
G37*
X5797Y2876D2*
D10*
Y11537D1*
X2254D1*
Y2876D1*
X3750D1*
X5797D2*
X4321D1*
X4301D2*
G03X3730Y2876I-285J-30D01*
G01*
X16301Y16697D2*
D27*
X16163D1*
Y16559D2*
Y16697D1*
X17600D2*
X17738D1*
Y16559D1*
X16163Y15260D2*
Y15122D1*
X16301D1*
X17600D2*
X17738Y15260D1*
X19279Y20287D2*
D10*
X17625D1*
Y21940D1*
X19279D1*
Y20287D1*
D57*
X17861Y20877D3*
X6531Y20032D2*
D10*
X4779D1*
Y21214D1*
X6531D1*
Y20032D1*
D59*
X6383Y21076D3*
X13228Y14603D2*
D10*
X15275D1*
X13228Y13343D2*
X15275D1*
X15577Y16859D2*
Y17859D1*
X13577Y16859D2*
X15577D1*
X13577D2*
Y17859D1*
X15577D1*
X24001Y17248D2*
Y17000D1*
X22999Y17248D2*
X24001D1*
X22999D2*
Y17000D1*
X24001Y25000D2*
Y24752D1*
X22999D2*
X24001D1*
X22999Y25000D2*
Y24752D1*
X21750Y17000D2*
X25250D1*
X21750Y25000D2*
X25250D1*
X21750D2*
Y17000D1*
X24949Y20200D2*
X25250D1*
X24949Y21800D2*
Y20200D1*
Y21800D2*
X25250D1*
Y20200D2*
Y17000D1*
Y25000D2*
Y21800D1*
D26*
X17918Y14930D3*
X16984Y17841D2*
D11*
X16965Y17832D1*
X16946Y17812D1*
X16937Y17793D1*
Y17755D1*
X16946Y17736D1*
X16965Y17717D1*
X16984Y17707D1*
X17013Y17698D1*
X17061D1*
X17090Y17707D1*
X17109Y17717D1*
X17128Y17736D1*
X17138Y17755D1*
Y17793D1*
X17128Y17812D1*
X17109Y17832D1*
X17090Y17841D1*
X16937Y17922D2*
Y18027D1*
X17013Y17970D1*
Y17999D1*
X17023Y18018D1*
X17032Y18027D1*
X17061Y18037D1*
X17080D1*
X17109Y18027D1*
X17128Y18008D1*
X17138Y17979D1*
Y17951D1*
X17128Y17922D1*
X17118Y17913D1*
X17099Y17903D1*
X15248Y16139D2*
X15229Y16130D1*
X15210Y16111D1*
X15201Y16092D1*
Y16053D1*
X15210Y16034D1*
X15229Y16015D1*
X15248Y16005D1*
X15277Y15996D1*
X15325D1*
X15354Y16005D1*
X15373Y16015D1*
X15392Y16034D1*
X15402Y16053D1*
Y16092D1*
X15392Y16111D1*
X15373Y16130D1*
X15354Y16139D1*
X15402Y16297D2*
X15201D1*
X15335Y16201D1*
Y16345D1*
X16593Y17832D2*
X16574Y17823D1*
X16555Y17803D1*
X16545Y17784D1*
Y17746D1*
X16555Y17727D1*
X16574Y17708D1*
X16593Y17698D1*
X16622Y17689D1*
X16670D1*
X16698Y17698D1*
X16718Y17708D1*
X16737Y17727D1*
X16746Y17746D1*
Y17784D1*
X16737Y17803D1*
X16718Y17823D1*
X16698Y17832D1*
X16546Y18009D2*
Y17913D1*
X16632Y17904D1*
X16622Y17913D1*
X16612Y17942D1*
Y17970D1*
X16622Y17999D1*
X16641Y18018D1*
X16670Y18028D1*
X16689D1*
X16718Y18018D1*
X16737Y17999D1*
X16746Y17970D1*
Y17942D1*
X16737Y17913D1*
X16727Y17904D1*
X16708Y17894D1*
X15264Y15212D2*
X15245Y15202D1*
X15226Y15183D1*
X15217Y15164D1*
Y15126D1*
X15226Y15106D1*
X15245Y15087D1*
X15264Y15078D1*
X15293Y15068D1*
X15341D1*
X15370Y15078D1*
X15389Y15087D1*
X15408Y15106D1*
X15418Y15126D1*
Y15164D1*
X15408Y15183D1*
X15389Y15202D1*
X15370Y15212D1*
X15245Y15388D2*
X15226Y15379D1*
X15217Y15350D1*
Y15331D1*
X15226Y15302D1*
X15255Y15283D1*
X15303Y15273D1*
X15351D1*
X15389Y15283D1*
X15408Y15302D1*
X15418Y15331D1*
Y15340D1*
X15408Y15369D1*
X15389Y15388D1*
X15360Y15398D1*
X15351D1*
X15322Y15388D1*
X15303Y15369D1*
X15293Y15340D1*
Y15331D1*
X15303Y15302D1*
X15322Y15283D1*
X15351Y15273D1*
X7870Y24637D2*
X7861Y24656D1*
X7841Y24675D1*
X7822Y24684D1*
X7784D1*
X7765Y24675D1*
X7746Y24656D1*
X7736Y24637D1*
X7727Y24608D1*
Y24560D1*
X7736Y24531D1*
X7746Y24512D1*
X7765Y24493D1*
X7784Y24483D1*
X7822D1*
X7841Y24493D1*
X7861Y24512D1*
X7870Y24531D1*
X7932Y24646D2*
X7951Y24656D1*
X7980Y24684D1*
Y24483D1*
X8099Y24684D2*
X8070Y24675D1*
X8051Y24646D1*
X8042Y24598D1*
Y24569D1*
X8051Y24522D1*
X8070Y24493D1*
X8099Y24483D1*
X8118D1*
X8147Y24493D1*
X8166Y24522D1*
X8176Y24569D1*
Y24598D1*
X8166Y24646D1*
X8147Y24675D1*
X8118Y24684D1*
X8099D1*
X8166Y24646D2*
X8051Y24522D1*
X7933Y23517D2*
X7924Y23536D1*
X7904Y23555D1*
X7885Y23564D1*
X7847D1*
X7828Y23555D1*
X7809Y23536D1*
X7799Y23517D1*
X7790Y23488D1*
Y23440D1*
X7799Y23411D1*
X7809Y23392D1*
X7828Y23373D1*
X7847Y23363D1*
X7885D1*
X7904Y23373D1*
X7924Y23392D1*
X7933Y23411D1*
X7995Y23526D2*
X8014Y23536D1*
X8043Y23564D1*
Y23363D1*
X8105Y23526D2*
X8124Y23536D1*
X8153Y23564D1*
Y23363D1*
X5621Y22708D2*
X5612Y22727D1*
X5593Y22747D1*
X5574Y22756D1*
X5535D1*
X5516Y22747D1*
X5497Y22727D1*
X5487Y22708D1*
X5478Y22680D1*
Y22632D1*
X5487Y22603D1*
X5497Y22584D1*
X5516Y22565D1*
X5535Y22555D1*
X5574D1*
X5593Y22565D1*
X5612Y22584D1*
X5621Y22603D1*
X5683Y22718D2*
X5702Y22727D1*
X5731Y22756D1*
Y22555D1*
X5803Y22708D2*
Y22718D1*
X5812Y22737D1*
X5822Y22746D1*
X5841Y22756D1*
X5879D1*
X5898Y22746D1*
X5908Y22737D1*
X5917Y22718D1*
Y22699D1*
X5908Y22679D1*
X5889Y22651D1*
X5793Y22555D1*
X5927D1*
X4642Y23008D2*
X4632Y23027D1*
X4613Y23047D1*
X4594Y23056D1*
X4556D1*
X4537Y23047D1*
X4518Y23027D1*
X4508Y23008D1*
X4498Y22980D1*
Y22932D1*
X4508Y22903D1*
X4518Y22884D1*
X4537Y22865D1*
X4556Y22855D1*
X4594D1*
X4613Y22865D1*
X4632Y22884D1*
X4642Y22903D1*
X4704Y23018D2*
X4723Y23027D1*
X4752Y23056D1*
Y22855D1*
X4909D2*
Y23056D1*
X4813Y22922D1*
X4957D1*
X6686Y18958D2*
X6677Y18977D1*
X6657Y18997D1*
X6638Y19006D1*
X6600D1*
X6581Y18997D1*
X6562Y18977D1*
X6552Y18958D1*
X6543Y18930D1*
Y18882D1*
X6552Y18853D1*
X6562Y18834D1*
X6581Y18815D1*
X6600Y18805D1*
X6638D1*
X6657Y18815D1*
X6677Y18834D1*
X6686Y18853D1*
X6786Y18805D2*
X6882Y19006D1*
X6748D1*
X13561Y20158D2*
X13551Y20177D1*
X13532Y20196D1*
X13513Y20205D1*
X13475D1*
X13455Y20196D1*
X13436Y20177D1*
X13427Y20158D1*
X13417Y20129D1*
Y20081D1*
X13427Y20052D1*
X13436Y20033D1*
X13455Y20014D1*
X13475Y20004D1*
X13513D1*
X13532Y20014D1*
X13551Y20033D1*
X13561Y20052D1*
X13622Y20167D2*
X13642Y20177D1*
X13670Y20205D1*
Y20004D1*
X13847Y20177D2*
X13837Y20196D1*
X13809Y20205D1*
X13790D1*
X13761Y20196D1*
X13742Y20167D1*
X13732Y20119D1*
Y20071D1*
X13742Y20033D1*
X13761Y20014D1*
X13790Y20004D1*
X13799D1*
X13828Y20014D1*
X13847Y20033D1*
X13856Y20062D1*
Y20071D1*
X13847Y20100D1*
X13828Y20119D1*
X13799Y20129D1*
X13790D1*
X13761Y20119D1*
X13742Y20100D1*
X13732Y20071D1*
X5092Y17887D2*
X5073Y17877D1*
X5053Y17858D1*
X5044Y17839D1*
Y17801D1*
X5053Y17781D1*
X5073Y17762D1*
X5092Y17753D1*
X5120Y17743D1*
X5168D1*
X5197Y17753D1*
X5216Y17762D1*
X5235Y17781D1*
X5245Y17801D1*
Y17839D1*
X5235Y17858D1*
X5216Y17877D1*
X5197Y17887D1*
X5082Y17948D2*
X5073Y17968D1*
X5044Y17996D1*
X5245D1*
X5044Y18077D2*
Y18182D1*
X5121Y18125D1*
Y18154D1*
X5130Y18173D1*
X5140Y18182D1*
X5168Y18192D1*
X5187D1*
X5216Y18182D1*
X5235Y18163D1*
X5245Y18135D1*
Y18106D1*
X5235Y18077D1*
X5226Y18068D1*
X5207Y18058D1*
X5531Y18908D2*
X5522Y18927D1*
X5503Y18947D1*
X5484Y18956D1*
X5445D1*
X5426Y18947D1*
X5407Y18927D1*
X5397Y18908D1*
X5388Y18880D1*
Y18832D1*
X5397Y18803D1*
X5407Y18784D1*
X5426Y18765D1*
X5445Y18755D1*
X5484D1*
X5503Y18765D1*
X5522Y18784D1*
X5531Y18803D1*
X5593Y18918D2*
X5612Y18927D1*
X5641Y18956D1*
Y18755D1*
X5818Y18956D2*
X5722D1*
X5713Y18870D1*
X5722Y18879D1*
X5751Y18889D1*
X5779D1*
X5808Y18879D1*
X5827Y18860D1*
X5837Y18832D1*
Y18813D1*
X5827Y18784D1*
X5808Y18765D1*
X5779Y18755D1*
X5751D1*
X5722Y18765D1*
X5713Y18774D1*
X5703Y18793D1*
X15799Y20155D2*
X15789Y20174D1*
X15770Y20193D1*
X15751Y20203D1*
X15713D1*
X15693Y20193D1*
X15674Y20174D1*
X15665Y20155D1*
X15655Y20126D1*
Y20078D1*
X15665Y20050D1*
X15674Y20030D1*
X15693Y20011D1*
X15713Y20002D1*
X15751D1*
X15770Y20011D1*
X15789Y20030D1*
X15799Y20050D1*
X15860Y20164D2*
X15880Y20174D1*
X15908Y20202D1*
Y20002D1*
X16008D2*
X16104Y20202D1*
X15970D1*
X8999Y20457D2*
X8989Y20476D1*
X8970Y20496D1*
X8951Y20505D1*
X8913D1*
X8894Y20496D1*
X8875Y20476D1*
X8865Y20457D1*
X8856Y20429D1*
Y20381D1*
X8865Y20352D1*
X8875Y20333D1*
X8894Y20314D1*
X8913Y20304D1*
X8951D1*
X8970Y20314D1*
X8989Y20333D1*
X8999Y20352D1*
X9108Y20505D2*
X9080Y20495D1*
X9070Y20476D1*
Y20457D1*
X9080Y20438D1*
X9099Y20429D1*
X9137Y20419D1*
X9166Y20409D1*
X9185Y20390D1*
X9194Y20371D1*
Y20343D1*
X9185Y20323D1*
X9175Y20314D1*
X9147Y20304D1*
X9108D1*
X9080Y20314D1*
X9070Y20323D1*
X9061Y20343D1*
Y20371D1*
X9070Y20390D1*
X9089Y20409D1*
X9118Y20419D1*
X9156Y20429D1*
X9175Y20438D1*
X9185Y20457D1*
Y20476D1*
X9175Y20495D1*
X9147Y20505D1*
X9108D1*
X15963Y14175D2*
X15944Y14166D1*
X15925Y14146D1*
X15915Y14127D1*
Y14089D1*
X15925Y14070D1*
X15944Y14051D1*
X15963Y14041D1*
X15992Y14032D1*
X16040D1*
X16068Y14041D1*
X16088Y14051D1*
X16107Y14070D1*
X16116Y14089D1*
Y14127D1*
X16107Y14146D1*
X16088Y14166D1*
X16068Y14175D1*
X15954Y14237D2*
X15944Y14256D1*
X15916Y14285D1*
X16116D1*
X10034Y20477D2*
X10024Y20496D1*
X10005Y20516D1*
X9986Y20525D1*
X9948D1*
X9928Y20516D1*
X9909Y20496D1*
X9900Y20477D1*
X9890Y20449D1*
Y20401D1*
X9900Y20372D1*
X9909Y20353D1*
X9928Y20334D1*
X9948Y20324D1*
X9986D1*
X10005Y20334D1*
X10024Y20353D1*
X10034Y20372D1*
X10220Y20458D2*
X10210Y20429D1*
X10191Y20410D1*
X10162Y20401D1*
X10153D1*
X10124Y20410D1*
X10105Y20429D1*
X10095Y20458D1*
Y20468D1*
X10105Y20496D1*
X10124Y20515D1*
X10153Y20525D1*
X10162D1*
X10191Y20515D1*
X10210Y20496D1*
X10220Y20458D1*
Y20410D1*
X10210Y20363D1*
X10191Y20334D1*
X10162Y20324D1*
X10143D1*
X10115Y20334D1*
X10105Y20353D1*
X655Y5188D2*
X636Y5178D1*
X616Y5159D1*
X607Y5140D1*
Y5102D1*
X616Y5082D1*
X636Y5063D1*
X655Y5054D1*
X683Y5044D1*
X731D1*
X760Y5054D1*
X779Y5063D1*
X798Y5082D1*
X808Y5102D1*
Y5140D1*
X798Y5159D1*
X779Y5178D1*
X760Y5188D1*
X645Y5249D2*
X636Y5269D1*
X607Y5297D1*
X808D1*
X607Y5407D2*
X617Y5378D1*
X636Y5369D1*
X655D1*
X674Y5378D1*
X684Y5397D1*
X693Y5436D1*
X703Y5464D1*
X722Y5483D1*
X741Y5493D1*
X770D1*
X789Y5483D1*
X798Y5474D1*
X808Y5445D1*
Y5407D1*
X798Y5378D1*
X789Y5369D1*
X770Y5359D1*
X741D1*
X722Y5369D1*
X703Y5388D1*
X693Y5416D1*
X684Y5455D1*
X674Y5474D1*
X655Y5483D1*
X636D1*
X617Y5474D1*
X607Y5445D1*
Y5407D1*
X633Y6830D2*
X614Y6820D1*
X595Y6801D1*
X585Y6782D1*
Y6744D1*
X595Y6725D1*
X614Y6706D1*
X633Y6696D1*
X662Y6686D1*
X710D1*
X738Y6696D1*
X758Y6706D1*
X777Y6725D1*
X786Y6744D1*
Y6782D1*
X777Y6801D1*
X758Y6820D1*
X738Y6830D1*
X624Y6892D2*
X614Y6911D1*
X586Y6940D1*
X786D1*
X652Y7126D2*
X681Y7116D1*
X700Y7097D1*
X710Y7068D1*
Y7059D1*
X700Y7030D1*
X681Y7011D1*
X652Y7001D1*
X643D1*
X614Y7011D1*
X595Y7030D1*
X586Y7059D1*
Y7068D1*
X595Y7097D1*
X614Y7116D1*
X652Y7126D1*
X700D1*
X748Y7116D1*
X777Y7097D1*
X786Y7068D1*
Y7049D1*
X777Y7021D1*
X758Y7011D1*
X20162Y19498D2*
X20143Y19489D1*
X20124Y19469D1*
X20114Y19450D1*
Y19412D1*
X20124Y19393D1*
X20143Y19374D1*
X20162Y19364D1*
X20191Y19355D1*
X20239D1*
X20267Y19364D1*
X20286Y19374D1*
X20305Y19393D1*
X20315Y19412D1*
Y19450D1*
X20305Y19469D1*
X20286Y19489D1*
X20267Y19498D1*
X20315Y19656D2*
X20114D1*
X20248Y19560D1*
Y19703D1*
X20114Y19784D2*
Y19889D1*
X20191Y19832D1*
Y19861D1*
X20200Y19880D1*
X20210Y19889D1*
X20239Y19899D1*
X20258D1*
X20286Y19889D1*
X20306Y19870D1*
X20315Y19842D1*
Y19813D1*
X20306Y19784D1*
X20296Y19775D1*
X20277Y19765D1*
X6058Y2132D2*
X6048Y2151D1*
X6029Y2170D1*
X6010Y2179D1*
X5972D1*
X5952Y2170D1*
X5933Y2151D1*
X5924Y2132D1*
X5914Y2103D1*
Y2055D1*
X5924Y2026D1*
X5933Y2007D1*
X5952Y1988D1*
X5972Y1978D1*
X6010D1*
X6029Y1988D1*
X6048Y2007D1*
X6058Y2026D1*
X6129Y2131D2*
Y2141D1*
X6139Y2160D1*
X6148Y2170D1*
X6167Y2179D1*
X6206D1*
X6225Y2170D1*
X6234Y2160D1*
X6244Y2141D1*
Y2122D1*
X6234Y2103D1*
X6215Y2074D1*
X6119Y1978D1*
X6253D1*
X6373Y2179D2*
X6344Y2170D1*
X6325Y2141D1*
X6315Y2093D1*
Y2064D1*
X6325Y2017D1*
X6344Y1988D1*
X6373Y1978D1*
X6392D1*
X6420Y1988D1*
X6439Y2017D1*
X6449Y2064D1*
Y2093D1*
X6439Y2141D1*
X6420Y2170D1*
X6392Y2179D1*
X6373D1*
X6439Y2141D2*
X6325Y2017D1*
X6088Y12355D2*
X6078Y12374D1*
X6059Y12393D1*
X6040Y12402D1*
X6002D1*
X5982Y12393D1*
X5963Y12374D1*
X5954Y12355D1*
X5944Y12326D1*
Y12278D1*
X5954Y12249D1*
X5963Y12230D1*
X5982Y12211D1*
X6002Y12201D1*
X6040D1*
X6059Y12211D1*
X6078Y12230D1*
X6088Y12249D1*
X6159Y12354D2*
Y12364D1*
X6169Y12383D1*
X6178Y12393D1*
X6197Y12402D1*
X6236D1*
X6255Y12393D1*
X6264Y12383D1*
X6274Y12364D1*
Y12345D1*
X6264Y12326D1*
X6245Y12297D1*
X6149Y12201D1*
X6283D1*
X6345Y12364D2*
X6364Y12374D1*
X6393Y12402D1*
Y12201D1*
X21137Y18569D2*
X21118Y18559D1*
X21099Y18540D1*
X21090Y18521D1*
Y18483D1*
X21099Y18464D1*
X21118Y18445D1*
X21137Y18435D1*
X21166Y18425D1*
X21214D1*
X21243Y18435D1*
X21262Y18445D1*
X21281Y18464D1*
X21291Y18483D1*
Y18521D1*
X21281Y18540D1*
X21262Y18559D1*
X21243Y18569D1*
X21291Y18726D2*
X21090D1*
X21224Y18631D1*
Y18774D1*
X21291Y18932D2*
X21090D1*
X21224Y18836D1*
Y18979D1*
X18799Y841D2*
X18790Y860D1*
X18771Y879D1*
X18752Y889D1*
X18713D1*
X18694Y879D1*
X18675Y860D1*
X18665Y841D1*
X18656Y812D1*
Y764D1*
X18665Y736D1*
X18675Y716D1*
X18694Y697D1*
X18713Y688D1*
X18752D1*
X18771Y697D1*
X18790Y716D1*
X18799Y736D1*
X18957Y688D2*
Y888D1*
X18861Y755D1*
X19005D1*
X19066Y850D2*
X19085Y860D1*
X19114Y888D1*
Y688D1*
X8482Y4615D2*
X8472Y4634D1*
X8453Y4653D1*
X8434Y4663D1*
X8396D1*
X8377Y4653D1*
X8358Y4634D1*
X8348Y4615D1*
X8338Y4586D1*
Y4538D1*
X8348Y4510D1*
X8358Y4491D1*
X8377Y4472D1*
X8396Y4462D1*
X8434D1*
X8453Y4472D1*
X8472Y4491D1*
X8482Y4510D1*
X8639Y4462D2*
Y4663D1*
X8544Y4529D1*
X8687D1*
X8759Y4615D2*
Y4624D1*
X8768Y4644D1*
X8778Y4653D1*
X8797Y4663D1*
X8835D1*
X8854Y4653D1*
X8864Y4644D1*
X8873Y4624D1*
Y4605D1*
X8864Y4586D1*
X8845Y4558D1*
X8749Y4462D1*
X8883D1*
X21805Y7683D2*
X21786Y7673D1*
X21767Y7654D1*
X21757Y7635D1*
Y7597D1*
X21767Y7578D1*
X21786Y7559D1*
X21805Y7549D1*
X21834Y7539D1*
X21882D1*
X21910Y7549D1*
X21930Y7559D1*
X21949Y7578D1*
X21958Y7597D1*
Y7635D1*
X21949Y7654D1*
X21930Y7673D1*
X21910Y7683D1*
X21805Y7754D2*
X21796D1*
X21777Y7764D1*
X21767Y7773D1*
X21758Y7792D1*
Y7831D1*
X21767Y7850D1*
X21777Y7859D1*
X21796Y7869D1*
X21815D1*
X21834Y7859D1*
X21863Y7840D1*
X21958Y7745D1*
Y7878D1*
X21805Y7950D2*
X21796D1*
X21777Y7959D1*
X21767Y7969D1*
X21758Y7988D1*
Y8026D1*
X21767Y8045D1*
X21777Y8055D1*
X21796Y8065D1*
X21815D1*
X21834Y8055D1*
X21863Y8036D1*
X21958Y7940D1*
Y8074D1*
X22914Y7843D2*
X22904Y7862D1*
X22885Y7881D1*
X22866Y7890D1*
X22828D1*
X22809Y7881D1*
X22790Y7862D1*
X22780Y7843D1*
X22770Y7814D1*
Y7766D1*
X22780Y7737D1*
X22790Y7718D1*
X22809Y7699D1*
X22828Y7689D1*
X22866D1*
X22885Y7699D1*
X22904Y7718D1*
X22914Y7737D1*
X23071Y7689D2*
Y7890D1*
X22976Y7756D1*
X23119D1*
X23295Y7890D2*
X23200D1*
X23190Y7804D1*
X23200Y7814D1*
X23229Y7823D1*
X23257D1*
X23286Y7814D1*
X23305Y7795D1*
X23315Y7766D1*
Y7747D1*
X23305Y7718D1*
X23286Y7699D1*
X23257Y7689D1*
X23229D1*
X23200Y7699D1*
X23190Y7709D1*
X23181Y7728D1*
X12431Y13669D2*
X12422Y13688D1*
X12402Y13707D1*
X12383Y13717D1*
X12345D1*
X12326Y13707D1*
X12307Y13688D1*
X12297Y13669D1*
X12288Y13640D1*
Y13592D1*
X12297Y13564D1*
X12307Y13545D1*
X12326Y13526D1*
X12345Y13516D1*
X12383D1*
X12402Y13526D1*
X12422Y13545D1*
X12431Y13564D1*
X12503Y13669D2*
Y13678D1*
X12512Y13698D1*
X12522Y13707D1*
X12541Y13717D1*
X12579D1*
X12598Y13707D1*
X12608Y13698D1*
X12617Y13678D1*
Y13659D1*
X12608Y13640D1*
X12589Y13612D1*
X12493Y13516D1*
X12627D1*
X12708Y13717D2*
X12813D1*
X12756Y13640D1*
X12784D1*
X12803Y13631D1*
X12813Y13621D1*
X12823Y13592D1*
Y13573D1*
X12813Y13545D1*
X12794Y13525D1*
X12765Y13516D1*
X12736D1*
X12708Y13525D1*
X12698Y13535D1*
X12689Y13554D1*
X24051Y8824D2*
X24041Y8843D1*
X24022Y8862D1*
X24003Y8872D1*
X23965D1*
X23946Y8862D1*
X23926Y8843D1*
X23917Y8824D1*
X23907Y8795D1*
Y8747D1*
X23917Y8719D1*
X23926Y8700D1*
X23946Y8681D1*
X23965Y8671D1*
X24003D1*
X24022Y8681D1*
X24041Y8700D1*
X24051Y8719D1*
X24208Y8671D2*
Y8872D1*
X24112Y8738D1*
X24256D1*
X24432Y8843D2*
X24423Y8862D1*
X24394Y8872D1*
X24375D1*
X24346Y8862D1*
X24327Y8833D1*
X24318Y8786D1*
Y8738D1*
X24327Y8700D1*
X24346Y8680D1*
X24375Y8671D1*
X24385D1*
X24413Y8680D1*
X24432Y8700D1*
X24442Y8728D1*
Y8738D1*
X24432Y8767D1*
X24413Y8786D1*
X24385Y8795D1*
X24375D1*
X24346Y8786D1*
X24327Y8767D1*
X24318Y8738D1*
X12426Y13328D2*
X12417Y13347D1*
X12398Y13366D1*
X12379Y13376D1*
X12340D1*
X12321Y13366D1*
X12302Y13347D1*
X12292Y13328D1*
X12283Y13299D1*
Y13251D1*
X12292Y13223D1*
X12302Y13203D1*
X12321Y13184D1*
X12340Y13175D1*
X12379D1*
X12398Y13184D1*
X12417Y13203D1*
X12426Y13223D1*
X12498Y13328D2*
Y13337D1*
X12507Y13356D1*
X12517Y13366D1*
X12536Y13375D1*
X12574D1*
X12593Y13366D1*
X12603Y13356D1*
X12613Y13337D1*
Y13318D1*
X12603Y13299D1*
X12584Y13270D1*
X12488Y13175D1*
X12622D1*
X12780D2*
Y13375D1*
X12684Y13242D1*
X12827D1*
X18442Y12888D2*
X18423Y12878D1*
X18404Y12859D1*
X18395Y12840D1*
Y12802D1*
X18404Y12782D1*
X18423Y12763D1*
X18442Y12754D1*
X18471Y12744D1*
X18519D1*
X18548Y12754D1*
X18567Y12763D1*
X18586Y12782D1*
X18595Y12802D1*
Y12840D1*
X18586Y12859D1*
X18567Y12878D1*
X18548Y12888D1*
X18442Y12959D2*
X18433D1*
X18414Y12969D1*
X18404Y12978D1*
X18395Y12997D1*
Y13036D1*
X18404Y13055D1*
X18414Y13064D1*
X18433Y13074D1*
X18452D1*
X18471Y13064D1*
X18500Y13045D1*
X18595Y12949D1*
Y13083D1*
X18395Y13260D2*
Y13164D1*
X18481Y13155D1*
X18471Y13164D1*
X18462Y13193D1*
Y13222D1*
X18471Y13250D1*
X18490Y13270D1*
X18519Y13279D1*
X18538D1*
X18567Y13270D1*
X18586Y13250D1*
X18595Y13222D1*
Y13193D1*
X18586Y13164D1*
X18576Y13155D1*
X18557Y13145D1*
X20768Y10573D2*
X20759Y10592D1*
X20740Y10611D1*
X20721Y10620D1*
X20682D1*
X20663Y10611D1*
X20644Y10592D1*
X20634Y10573D1*
X20625Y10544D1*
Y10496D1*
X20634Y10467D1*
X20644Y10448D1*
X20663Y10429D1*
X20682Y10419D1*
X20721D1*
X20740Y10429D1*
X20759Y10448D1*
X20768Y10467D1*
X20840Y10572D2*
Y10582D1*
X20849Y10601D1*
X20859Y10611D1*
X20878Y10620D1*
X20916D1*
X20935Y10611D1*
X20945Y10601D1*
X20955Y10582D1*
Y10563D1*
X20945Y10544D1*
X20926Y10515D1*
X20830Y10419D1*
X20964D1*
X21141Y10592D2*
X21131Y10611D1*
X21102Y10620D1*
X21083D1*
X21055Y10611D1*
X21035Y10582D1*
X21026Y10534D1*
Y10486D1*
X21035Y10448D1*
X21055Y10429D1*
X21083Y10419D1*
X21093D1*
X21121Y10429D1*
X21141Y10448D1*
X21150Y10477D1*
Y10486D1*
X21141Y10515D1*
X21121Y10534D1*
X21093Y10544D1*
X21083D1*
X21055Y10534D1*
X21035Y10515D1*
X21026Y10486D1*
X417Y21444D2*
X398Y21434D1*
X378Y21415D1*
X369Y21396D1*
Y21358D1*
X378Y21338D1*
X398Y21319D1*
X417Y21310D1*
X445Y21300D1*
X493D1*
X522Y21310D1*
X541Y21319D1*
X560Y21338D1*
X570Y21358D1*
Y21396D1*
X560Y21415D1*
X541Y21434D1*
X522Y21444D1*
X570Y21601D2*
X369D1*
X503Y21505D1*
Y21649D1*
X570Y21749D2*
X369Y21845D1*
Y21711D1*
X20611Y8353D2*
X20592Y8343D1*
X20572Y8324D1*
X20563Y8305D1*
Y8267D1*
X20572Y8247D1*
X20592Y8228D1*
X20611Y8219D1*
X20639Y8209D1*
X20687D1*
X20716Y8219D1*
X20735Y8228D1*
X20754Y8247D1*
X20764Y8267D1*
Y8305D1*
X20754Y8324D1*
X20735Y8343D1*
X20716Y8353D1*
X20611Y8424D2*
X20601D1*
X20582Y8434D1*
X20573Y8443D1*
X20563Y8462D1*
Y8501D1*
X20573Y8520D1*
X20582Y8529D1*
X20601Y8539D1*
X20620D1*
X20640Y8529D1*
X20668Y8510D1*
X20764Y8414D1*
Y8548D1*
Y8648D2*
X20563Y8744D1*
Y8610D1*
X20952Y5697D2*
X20933Y5688D1*
X20914Y5668D1*
X20905Y5649D1*
Y5611D1*
X20914Y5592D1*
X20933Y5573D1*
X20952Y5563D1*
X20981Y5554D1*
X21029D1*
X21058Y5563D1*
X21077Y5573D1*
X21096Y5592D1*
X21106Y5611D1*
Y5649D1*
X21096Y5668D1*
X21077Y5688D1*
X21058Y5697D1*
X20953Y5769D2*
X20943D1*
X20924Y5778D1*
X20914Y5788D1*
X20905Y5807D1*
Y5845D1*
X20914Y5864D1*
X20924Y5874D1*
X20943Y5883D1*
X20962D1*
X20981Y5874D1*
X21010Y5855D1*
X21106Y5759D1*
Y5893D1*
X20905Y6002D2*
X20914Y5974D1*
X20933Y5964D1*
X20953D1*
X20972Y5974D1*
X20981Y5993D1*
X20991Y6031D1*
X21000Y6060D1*
X21020Y6079D1*
X21039Y6088D1*
X21067D1*
X21086Y6079D1*
X21096Y6069D1*
X21106Y6041D1*
Y6002D1*
X21096Y5974D1*
X21086Y5964D1*
X21067Y5955D1*
X21039D1*
X21020Y5964D1*
X21000Y5983D1*
X20991Y6012D1*
X20981Y6050D1*
X20972Y6069D1*
X20953Y6079D1*
X20933D1*
X20914Y6069D1*
X20905Y6041D1*
Y6002D1*
X20961Y3162D2*
X20942Y3152D1*
X20923Y3133D1*
X20913Y3114D1*
Y3076D1*
X20923Y3057D1*
X20942Y3038D1*
X20961Y3028D1*
X20990Y3018D1*
X21038D1*
X21066Y3028D1*
X21085Y3038D1*
X21104Y3057D1*
X21114Y3076D1*
Y3114D1*
X21104Y3133D1*
X21085Y3152D1*
X21066Y3162D1*
X20961Y3233D2*
X20952D1*
X20932Y3243D1*
X20923Y3252D1*
X20913Y3272D1*
Y3310D1*
X20923Y3329D1*
X20932Y3338D1*
X20952Y3348D1*
X20971D1*
X20990Y3338D1*
X21018Y3319D1*
X21114Y3224D1*
Y3358D1*
X20980Y3544D2*
X21009Y3534D1*
X21028Y3515D1*
X21038Y3486D1*
Y3477D1*
X21028Y3448D1*
X21009Y3429D1*
X20980Y3419D1*
X20971D1*
X20942Y3429D1*
X20923Y3448D1*
X20913Y3477D1*
Y3486D1*
X20923Y3515D1*
X20942Y3534D1*
X20980Y3544D1*
X21028D1*
X21076Y3534D1*
X21105Y3515D1*
X21114Y3486D1*
Y3467D1*
X21105Y3439D1*
X21085Y3429D1*
X18630Y1274D2*
X18621Y1293D1*
X18601Y1312D1*
X18582Y1322D1*
X18544D1*
X18525Y1312D1*
X18506Y1293D1*
X18496Y1274D1*
X18487Y1245D1*
Y1197D1*
X18496Y1169D1*
X18506Y1149D1*
X18525Y1130D1*
X18544Y1121D1*
X18582D1*
X18601Y1130D1*
X18621Y1149D1*
X18630Y1169D1*
X18711Y1321D2*
X18816D1*
X18759Y1245D1*
X18788D1*
X18807Y1235D1*
X18816Y1226D1*
X18826Y1197D1*
Y1178D1*
X18816Y1149D1*
X18797Y1130D1*
X18768Y1121D1*
X18740D1*
X18711Y1130D1*
X18702Y1140D1*
X18692Y1159D1*
X18945Y1321D2*
X18916Y1312D1*
X18897Y1283D1*
X18888Y1235D1*
Y1207D1*
X18897Y1159D1*
X18916Y1130D1*
X18945Y1121D1*
X18964D1*
X18993Y1130D1*
X19012Y1159D1*
X19022Y1207D1*
Y1235D1*
X19012Y1283D1*
X18993Y1312D1*
X18964Y1321D1*
X18945D1*
X19012Y1283D2*
X18897Y1159D1*
X18442Y22859D2*
X18433Y22878D1*
X18413Y22897D1*
X18394Y22906D1*
X18356D1*
X18337Y22897D1*
X18318Y22878D1*
X18308Y22859D1*
X18299Y22830D1*
Y22782D1*
X18308Y22753D1*
X18318Y22734D1*
X18337Y22715D1*
X18356Y22706D1*
X18394D1*
X18413Y22715D1*
X18433Y22734D1*
X18442Y22753D1*
X18600Y22706D2*
Y22906D1*
X18504Y22772D1*
X18647D1*
X18757Y22906D2*
X18728Y22897D1*
X18719Y22878D1*
Y22858D1*
X18728Y22839D1*
X18747Y22830D1*
X18786Y22820D1*
X18814Y22811D1*
X18833Y22792D1*
X18843Y22772D1*
Y22744D1*
X18833Y22725D1*
X18824Y22715D1*
X18795Y22706D1*
X18757D1*
X18728Y22715D1*
X18719Y22725D1*
X18709Y22744D1*
Y22772D1*
X18719Y22792D1*
X18738Y22811D1*
X18766Y22820D1*
X18805Y22830D1*
X18824Y22839D1*
X18833Y22858D1*
Y22878D1*
X18824Y22897D1*
X18795Y22906D1*
X18757D1*
X15450Y969D2*
X15441Y988D1*
X15421Y1008D1*
X15402Y1017D1*
X15364D1*
X15345Y1008D1*
X15326Y988D1*
X15316Y969D1*
X15307Y941D1*
Y893D1*
X15316Y864D1*
X15326Y845D1*
X15345Y826D1*
X15364Y816D1*
X15402D1*
X15421Y826D1*
X15441Y845D1*
X15450Y864D1*
X15531Y1017D2*
X15636D1*
X15579Y940D1*
X15608D1*
X15627Y931D1*
X15636Y921D1*
X15646Y893D1*
Y874D1*
X15636Y845D1*
X15617Y826D1*
X15588Y816D1*
X15560D1*
X15531Y826D1*
X15522Y835D1*
X15512Y854D1*
X15708Y979D2*
X15727Y988D1*
X15755Y1017D1*
Y816D1*
X13260Y975D2*
X13250Y994D1*
X13231Y1014D1*
X13212Y1023D1*
X13174D1*
X13155Y1014D1*
X13136Y994D1*
X13126Y975D1*
X13117Y947D1*
Y899D1*
X13126Y870D1*
X13136Y851D1*
X13155Y832D1*
X13174Y822D1*
X13212D1*
X13231Y832D1*
X13250Y851D1*
X13260Y870D1*
X13341Y1023D2*
X13446D1*
X13389Y946D1*
X13417D1*
X13436Y937D1*
X13446Y927D1*
X13456Y899D1*
Y880D1*
X13446Y851D1*
X13427Y832D1*
X13398Y822D1*
X13369D1*
X13341Y832D1*
X13331Y841D1*
X13322Y860D1*
X13527Y975D2*
Y985D1*
X13537Y1004D1*
X13546Y1013D1*
X13565Y1023D1*
X13604D1*
X13623Y1013D1*
X13632Y1004D1*
X13642Y985D1*
Y966D1*
X13632Y946D1*
X13613Y918D1*
X13517Y822D1*
X13651D1*
X10898Y975D2*
X10889Y994D1*
X10869Y1014D1*
X10850Y1023D1*
X10812D1*
X10793Y1014D1*
X10774Y994D1*
X10764Y975D1*
X10755Y947D1*
Y899D1*
X10764Y870D1*
X10774Y851D1*
X10793Y832D1*
X10812Y822D1*
X10850D1*
X10869Y832D1*
X10889Y851D1*
X10898Y870D1*
X10979Y1023D2*
X11084D1*
X11027Y946D1*
X11056D1*
X11075Y937D1*
X11084Y927D1*
X11094Y899D1*
Y880D1*
X11084Y851D1*
X11065Y832D1*
X11036Y822D1*
X11008D1*
X10979Y832D1*
X10970Y841D1*
X10960Y860D1*
X11175Y1023D2*
X11280D1*
X11223Y946D1*
X11251D1*
X11270Y937D1*
X11280Y927D1*
X11290Y899D1*
Y880D1*
X11280Y851D1*
X11261Y832D1*
X11232Y822D1*
X11203D1*
X11175Y832D1*
X11165Y841D1*
X11156Y860D1*
X8731Y3539D2*
X8722Y3558D1*
X8702Y3578D1*
X8683Y3587D1*
X8645D1*
X8626Y3578D1*
X8607Y3558D1*
X8597Y3539D1*
X8588Y3511D1*
Y3463D1*
X8597Y3434D1*
X8607Y3415D1*
X8626Y3396D1*
X8645Y3386D1*
X8683D1*
X8702Y3396D1*
X8722Y3415D1*
X8731Y3434D1*
X8812Y3587D2*
X8917D1*
X8860Y3510D1*
X8889D1*
X8908Y3501D1*
X8917Y3491D1*
X8927Y3463D1*
Y3444D1*
X8917Y3415D1*
X8898Y3396D1*
X8869Y3386D1*
X8841D1*
X8812Y3396D1*
X8803Y3405D1*
X8793Y3424D1*
X9084Y3386D2*
Y3587D1*
X8989Y3453D1*
X9132D1*
X22002Y1206D2*
X21983Y1197D1*
X21963Y1177D1*
X21954Y1158D1*
Y1120D1*
X21963Y1101D1*
X21983Y1082D1*
X22002Y1072D1*
X22030Y1063D1*
X22078D1*
X22107Y1072D1*
X22126Y1082D1*
X22145Y1101D1*
X22155Y1120D1*
Y1158D1*
X22145Y1177D1*
X22126Y1197D1*
X22107Y1206D1*
X22155Y1363D2*
X21954D1*
X22088Y1268D1*
Y1411D1*
X22021Y1597D2*
X22050Y1588D1*
X22069Y1569D1*
X22078Y1540D1*
Y1530D1*
X22069Y1502D1*
X22050Y1483D1*
X22021Y1473D1*
X22011D1*
X21983Y1483D1*
X21964Y1502D1*
X21954Y1530D1*
Y1540D1*
X21964Y1569D1*
X21983Y1588D1*
X22021Y1597D1*
X22069D1*
X22117Y1588D1*
X22145Y1569D1*
X22155Y1540D1*
Y1521D1*
X22145Y1492D1*
X22126Y1483D1*
X8688Y5887D2*
X8669Y5878D1*
X8650Y5858D1*
X8640Y5839D1*
Y5801D1*
X8650Y5782D1*
X8669Y5763D1*
X8688Y5753D1*
X8717Y5744D1*
X8765D1*
X8793Y5753D1*
X8813Y5763D1*
X8832Y5782D1*
X8841Y5801D1*
Y5839D1*
X8832Y5858D1*
X8813Y5878D1*
X8793Y5887D1*
X8641Y5968D2*
Y6073D1*
X8717Y6016D1*
Y6045D1*
X8727Y6064D1*
X8736Y6073D1*
X8765Y6083D1*
X8784D1*
X8813Y6073D1*
X8832Y6054D1*
X8841Y6025D1*
Y5997D1*
X8832Y5968D1*
X8822Y5959D1*
X8803Y5949D1*
X8641Y6259D2*
Y6164D1*
X8727Y6154D1*
X8717Y6164D1*
X8707Y6193D1*
Y6221D1*
X8717Y6250D1*
X8736Y6269D1*
X8765Y6279D1*
X8784D1*
X8813Y6269D1*
X8832Y6250D1*
X8841Y6221D1*
Y6193D1*
X8832Y6164D1*
X8822Y6154D1*
X8803Y6145D1*
X8688Y7848D2*
X8669Y7838D1*
X8650Y7819D1*
X8640Y7800D1*
Y7762D1*
X8650Y7743D1*
X8669Y7724D1*
X8688Y7714D1*
X8717Y7704D1*
X8765D1*
X8793Y7714D1*
X8813Y7724D1*
X8832Y7743D1*
X8841Y7762D1*
Y7800D1*
X8832Y7819D1*
X8813Y7838D1*
X8793Y7848D1*
X8641Y7929D2*
Y8034D1*
X8717Y7977D1*
Y8005D1*
X8727Y8024D1*
X8736Y8034D1*
X8765Y8044D1*
X8784D1*
X8813Y8034D1*
X8832Y8015D1*
X8841Y7986D1*
Y7957D1*
X8832Y7929D1*
X8822Y7919D1*
X8803Y7910D1*
X8669Y8220D2*
X8650Y8211D1*
X8641Y8182D1*
Y8163D1*
X8650Y8134D1*
X8679Y8115D1*
X8727Y8105D1*
X8774D1*
X8813Y8115D1*
X8832Y8134D1*
X8841Y8163D1*
Y8172D1*
X8832Y8201D1*
X8813Y8220D1*
X8784Y8230D1*
X8774D1*
X8746Y8220D1*
X8727Y8201D1*
X8717Y8172D1*
Y8163D1*
X8727Y8134D1*
X8746Y8115D1*
X8774Y8105D1*
X8986Y9783D2*
X8967Y9773D1*
X8948Y9754D1*
X8938Y9735D1*
Y9697D1*
X8948Y9678D1*
X8967Y9659D1*
X8986Y9649D1*
X9015Y9639D1*
X9063D1*
X9091Y9649D1*
X9110Y9659D1*
X9129Y9678D1*
X9139Y9697D1*
Y9735D1*
X9129Y9754D1*
X9110Y9773D1*
X9091Y9783D1*
X8938Y9864D2*
Y9969D1*
X9015Y9912D1*
Y9940D1*
X9024Y9959D1*
X9034Y9969D1*
X9063Y9979D1*
X9082D1*
X9110Y9969D1*
X9130Y9950D1*
X9139Y9921D1*
Y9892D1*
X9130Y9864D1*
X9120Y9854D1*
X9101Y9845D1*
X9139Y10079D2*
X8938Y10174D1*
Y10040D1*
X12726Y12998D2*
X12717Y13017D1*
X12697Y13036D1*
X12678Y13045D1*
X12640D1*
X12621Y13036D1*
X12602Y13017D1*
X12592Y12998D1*
X12583Y12969D1*
Y12921D1*
X12592Y12892D1*
X12602Y12873D1*
X12621Y12854D1*
X12640Y12844D1*
X12678D1*
X12697Y12854D1*
X12717Y12873D1*
X12726Y12892D1*
X12807Y13045D2*
X12912D1*
X12855Y12969D1*
X12884D1*
X12903Y12959D1*
X12912Y12950D1*
X12922Y12921D1*
Y12902D1*
X12912Y12873D1*
X12893Y12854D1*
X12864Y12844D1*
X12836D1*
X12807Y12854D1*
X12798Y12864D1*
X12788Y12883D1*
X13031Y13045D2*
X13003Y13036D1*
X12993Y13017D1*
Y12997D1*
X13003Y12978D1*
X13022Y12969D1*
X13060Y12959D1*
X13089Y12950D1*
X13108Y12930D1*
X13117Y12911D1*
Y12883D1*
X13108Y12864D1*
X13098Y12854D1*
X13070Y12844D1*
X13031D1*
X13003Y12854D1*
X12993Y12864D1*
X12984Y12883D1*
Y12911D1*
X12993Y12930D1*
X13012Y12950D1*
X13041Y12959D1*
X13079Y12969D1*
X13098Y12978D1*
X13108Y12997D1*
Y13017D1*
X13098Y13036D1*
X13070Y13045D1*
X13031D1*
X14839Y13145D2*
X14830Y13164D1*
X14811Y13183D1*
X14792Y13192D1*
X14753D1*
X14734Y13183D1*
X14715Y13164D1*
X14705Y13145D1*
X14696Y13116D1*
Y13068D1*
X14705Y13039D1*
X14715Y13020D1*
X14734Y13001D1*
X14753Y12991D1*
X14792D1*
X14811Y13001D1*
X14830Y13020D1*
X14839Y13039D1*
X14920Y13192D2*
X15025D1*
X14968Y13116D1*
X14997D1*
X15016Y13106D1*
X15025Y13097D1*
X15035Y13068D1*
Y13049D1*
X15025Y13020D1*
X15006Y13001D1*
X14978Y12991D1*
X14949D1*
X14920Y13001D1*
X14911Y13011D1*
X14901Y13030D1*
X15221Y13125D2*
X15212Y13097D1*
X15193Y13077D1*
X15164Y13068D1*
X15154D1*
X15126Y13077D1*
X15107Y13097D1*
X15097Y13125D1*
Y13135D1*
X15107Y13164D1*
X15126Y13183D1*
X15154Y13192D1*
X15164D1*
X15193Y13183D1*
X15212Y13164D1*
X15221Y13125D1*
Y13077D1*
X15212Y13030D1*
X15193Y13001D1*
X15164Y12991D1*
X15145D1*
X15116Y13001D1*
X15107Y13020D1*
X16412Y13153D2*
X16403Y13172D1*
X16384Y13192D1*
X16365Y13201D1*
X16326D1*
X16307Y13192D1*
X16288Y13172D1*
X16278Y13153D1*
X16269Y13125D1*
Y13077D1*
X16278Y13048D1*
X16288Y13029D1*
X16307Y13010D1*
X16326Y13000D1*
X16365D1*
X16384Y13010D1*
X16403Y13029D1*
X16412Y13048D1*
X16570Y13000D2*
Y13201D1*
X16474Y13067D1*
X16618D1*
X16737Y13201D2*
X16708Y13191D1*
X16689Y13163D1*
X16679Y13115D1*
Y13086D1*
X16689Y13038D1*
X16708Y13010D1*
X16737Y13000D1*
X16756D1*
X16785Y13010D1*
X16804Y13038D1*
X16813Y13086D1*
Y13115D1*
X16804Y13163D1*
X16785Y13191D1*
X16756Y13201D1*
X16737D1*
X16804Y13163D2*
X16689Y13038D1*
X12419Y14119D2*
X12400Y14109D1*
X12381Y14090D1*
X12371Y14071D1*
Y14033D1*
X12381Y14014D1*
X12400Y13995D1*
X12419Y13985D1*
X12448Y13975D1*
X12496D1*
X12524Y13985D1*
X12543Y13995D1*
X12562Y14014D1*
X12572Y14033D1*
Y14071D1*
X12562Y14090D1*
X12543Y14109D1*
X12524Y14119D1*
X12419Y14190D2*
X12410D1*
X12390Y14200D1*
X12381Y14209D1*
X12371Y14229D1*
Y14267D1*
X12381Y14286D1*
X12390Y14295D1*
X12410Y14305D1*
X12429D1*
X12448Y14295D1*
X12476Y14276D1*
X12572Y14181D1*
Y14315D1*
X1493Y14520D2*
Y14319D1*
X1560D1*
X1588Y14329D1*
X1608Y14348D1*
X1617Y14367D1*
X1627Y14395D1*
Y14443D1*
X1617Y14472D1*
X1608Y14491D1*
X1588Y14510D1*
X1560Y14520D1*
X1493D1*
X1688Y14481D2*
X1708Y14491D1*
X1736Y14520D1*
Y14319D1*
X1440Y13720D2*
Y13519D1*
X1507D1*
X1535Y13529D1*
X1555Y13548D1*
X1564Y13567D1*
X1574Y13595D1*
Y13643D1*
X1564Y13672D1*
X1555Y13691D1*
X1535Y13710D1*
X1507Y13720D1*
X1440D1*
X1645Y13672D2*
Y13681D1*
X1655Y13701D1*
X1664Y13710D1*
X1683Y13720D1*
X1722D1*
X1741Y13710D1*
X1750Y13701D1*
X1760Y13681D1*
Y13662D1*
X1750Y13643D1*
X1731Y13615D1*
X1635Y13519D1*
X1769D1*
X1410Y12930D2*
Y12729D1*
X1477D1*
X1505Y12739D1*
X1525Y12758D1*
X1534Y12777D1*
X1544Y12805D1*
Y12853D1*
X1534Y12882D1*
X1525Y12901D1*
X1505Y12920D1*
X1477Y12930D1*
X1410D1*
X1625D2*
X1730D1*
X1672Y12853D1*
X1701D1*
X1720Y12844D1*
X1730Y12834D1*
X1739Y12805D1*
Y12786D1*
X1730Y12758D1*
X1711Y12738D1*
X1682Y12729D1*
X1653D1*
X1625Y12738D1*
X1615Y12748D1*
X1605Y12767D1*
X8125Y23179D2*
Y22978D1*
X8192D1*
X8221Y22988D1*
X8240Y23007D1*
X8250Y23026D1*
X8259Y23055D1*
Y23103D1*
X8250Y23132D1*
X8240Y23151D1*
X8221Y23170D1*
X8192Y23179D1*
X8125D1*
X8417Y22978D2*
Y23179D1*
X8321Y23045D1*
X8465D1*
X23793Y16930D2*
Y16777D1*
X23783Y16748D1*
X23774Y16739D1*
X23755Y16729D1*
X23736D1*
X23717Y16739D1*
X23707Y16748D1*
X23697Y16777D1*
Y16796D1*
X23855Y16891D2*
X23874Y16901D1*
X23903Y16930D1*
Y16729D1*
X23749Y7943D2*
Y7790D1*
X23739Y7761D1*
X23730Y7752D1*
X23711Y7742D1*
X23691D1*
X23672Y7752D1*
X23663Y7761D1*
X23653Y7790D1*
Y7809D1*
X23830Y7943D2*
X23935D1*
X23878Y7866D1*
X23906D1*
X23925Y7857D1*
X23935Y7847D1*
X23945Y7818D1*
Y7799D1*
X23935Y7771D1*
X23916Y7751D1*
X23887Y7742D1*
X23858D1*
X23830Y7751D1*
X23820Y7761D1*
X23811Y7780D1*
X3390Y16323D2*
Y16170D1*
X3381Y16141D1*
X3371Y16132D1*
X3352Y16122D1*
X3333D1*
X3314Y16132D1*
X3304Y16141D1*
X3295Y16170D1*
Y16189D1*
X3548Y16122D2*
Y16323D1*
X3452Y16189D1*
X3595D1*
X19930Y22383D2*
Y22230D1*
X19921Y22201D1*
X19911Y22192D1*
X19892Y22182D1*
X19873D1*
X19854Y22192D1*
X19844Y22201D1*
X19835Y22230D1*
Y22249D1*
X20107Y22383D2*
X20011D1*
X20002Y22297D1*
X20011Y22306D1*
X20040Y22316D1*
X20069D1*
X20097Y22306D1*
X20117Y22287D1*
X20126Y22259D1*
Y22240D1*
X20117Y22211D1*
X20097Y22192D1*
X20069Y22182D1*
X20040D1*
X20011Y22192D1*
X20002Y22201D1*
X19992Y22220D1*
X22125Y4179D2*
Y4026D1*
X22115Y3997D1*
X22106Y3988D1*
X22087Y3978D1*
X22067D1*
X22048Y3988D1*
X22039Y3997D1*
X22029Y4026D1*
Y4045D1*
X22234Y4179D2*
X22206Y4169D1*
X22196Y4150D1*
Y4131D1*
X22206Y4112D1*
X22225Y4102D1*
X22263Y4093D1*
X22292Y4083D1*
X22311Y4064D1*
X22320Y4045D1*
Y4016D1*
X22311Y3997D1*
X22301Y3987D1*
X22273Y3978D1*
X22234D1*
X22206Y3987D1*
X22196Y3997D1*
X22187Y4016D1*
Y4045D1*
X22196Y4064D1*
X22215Y4083D1*
X22244Y4093D1*
X22282Y4102D1*
X22301Y4112D1*
X22311Y4131D1*
Y4150D1*
X22301Y4169D1*
X22273Y4179D1*
X22234D1*
X24151Y4090D2*
Y3937D1*
X24141Y3908D1*
X24132Y3899D1*
X24113Y3889D1*
X24093D1*
X24074Y3899D1*
X24065Y3908D1*
X24055Y3937D1*
Y3956D1*
X24251Y3889D2*
X24347Y4090D1*
X24213D1*
X11615Y22013D2*
Y21860D1*
X11605Y21831D1*
X11596Y21822D1*
X11577Y21812D1*
X11557D1*
X11538Y21822D1*
X11529Y21831D1*
X11519Y21860D1*
Y21879D1*
X11801Y21946D2*
X11791Y21917D1*
X11772Y21898D1*
X11743Y21888D1*
X11734D1*
X11705Y21898D1*
X11686Y21917D1*
X11677Y21946D1*
Y21955D1*
X11686Y21984D1*
X11705Y22003D1*
X11734Y22013D1*
X11743D1*
X11772Y22003D1*
X11791Y21984D1*
X11801Y21946D1*
Y21898D1*
X11791Y21850D1*
X11772Y21821D1*
X11743Y21812D1*
X11724D1*
X11696Y21821D1*
X11686Y21841D1*
X18589Y18936D2*
Y18783D1*
X18579Y18754D1*
X18570Y18745D1*
X18551Y18735D1*
X18531D1*
X18512Y18745D1*
X18503Y18754D1*
X18493Y18783D1*
Y18802D1*
X18765Y18907D2*
X18756Y18926D1*
X18727Y18936D1*
X18708D1*
X18679Y18926D1*
X18660Y18897D1*
X18651Y18850D1*
Y18802D1*
X18660Y18764D1*
X18679Y18744D1*
X18708Y18735D1*
X18718D1*
X18746Y18744D1*
X18765Y18764D1*
X18775Y18792D1*
Y18802D1*
X18765Y18831D1*
X18746Y18850D1*
X18718Y18859D1*
X18708D1*
X18679Y18850D1*
X18660Y18831D1*
X18651Y18802D1*
X9083Y18586D2*
Y18385D1*
X9198D1*
X9259Y18548D2*
X9279Y18558D1*
X9307Y18586D1*
Y18385D1*
X5839Y14127D2*
X5820Y14118D1*
X5801Y14099D1*
X5791Y14080D1*
X5782Y14051D1*
Y14003D1*
X5791Y13974D1*
X5801Y13955D1*
X5820Y13936D1*
X5839Y13927D1*
X5877D1*
X5896Y13936D1*
X5916Y13955D1*
X5925Y13974D1*
X5935Y14003D1*
Y14051D1*
X5925Y14080D1*
X5916Y14099D1*
X5896Y14118D1*
X5877Y14127D1*
X5839D1*
X5868Y13965D2*
X5925Y13907D1*
X6006Y14079D2*
Y14089D1*
X6016Y14108D1*
X6025Y14118D1*
X6044Y14127D1*
X6083D1*
X6102Y14118D1*
X6111Y14108D1*
X6121Y14089D1*
Y14070D1*
X6111Y14051D1*
X6092Y14022D1*
X5996Y13926D1*
X6130D1*
X7389Y14107D2*
X7370Y14098D1*
X7351Y14079D1*
X7341Y14060D1*
X7332Y14031D1*
Y13983D1*
X7341Y13954D1*
X7351Y13935D1*
X7370Y13916D1*
X7389Y13907D1*
X7427D1*
X7446Y13916D1*
X7466Y13935D1*
X7475Y13954D1*
X7485Y13983D1*
Y14031D1*
X7475Y14060D1*
X7466Y14079D1*
X7446Y14098D1*
X7427Y14107D1*
X7389D1*
X7418Y13945D2*
X7475Y13887D1*
X7566Y14107D2*
X7671D1*
X7613Y14031D1*
X7642D1*
X7661Y14021D1*
X7671Y14012D1*
X7680Y13983D1*
Y13964D1*
X7671Y13935D1*
X7652Y13916D1*
X7623Y13906D1*
X7594D1*
X7566Y13916D1*
X7556Y13926D1*
X7546Y13945D1*
X8844Y14117D2*
X8825Y14108D1*
X8806Y14089D1*
X8797Y14070D1*
X8787Y14041D1*
Y13993D1*
X8797Y13964D1*
X8806Y13945D1*
X8825Y13926D1*
X8844Y13917D1*
X8883D1*
X8902Y13926D1*
X8921Y13945D1*
X8930Y13964D1*
X8940Y13993D1*
Y14041D1*
X8930Y14070D1*
X8921Y14089D1*
X8902Y14108D1*
X8883Y14117D1*
X8844D1*
X8873Y13955D2*
X8930Y13897D1*
X9097Y13916D2*
Y14117D1*
X9002Y13983D1*
X9145D1*
X12819Y16777D2*
X12800Y16768D1*
X12780Y16748D1*
X12771Y16729D1*
X12761Y16700D1*
Y16653D1*
X12771Y16624D1*
X12780Y16605D1*
X12800Y16586D1*
X12819Y16576D1*
X12857D1*
X12876Y16586D1*
X12895Y16605D1*
X12905Y16624D1*
X12914Y16653D1*
Y16700D1*
X12905Y16729D1*
X12895Y16748D1*
X12876Y16768D1*
X12857Y16777D1*
X12819D1*
X12847Y16614D2*
X12905Y16557D1*
X12976Y16738D2*
X12995Y16748D1*
X13024Y16777D1*
Y16576D1*
X2083Y20555D2*
X2169D1*
X2198Y20565D1*
X2207Y20575D1*
X2217Y20594D1*
Y20613D1*
X2207Y20632D1*
X2198Y20642D1*
X2169Y20651D1*
X2083D1*
Y20450D1*
X2150Y20555D2*
X2217Y20450D1*
X2279Y20613D2*
X2298Y20622D1*
X2327Y20651D1*
Y20450D1*
X2446Y20651D2*
X2417Y20641D1*
X2398Y20613D1*
X2388Y20565D1*
Y20536D1*
X2398Y20488D1*
X2417Y20460D1*
X2446Y20450D1*
X2465D1*
X2494Y20460D1*
X2513Y20488D1*
X2522Y20536D1*
Y20565D1*
X2513Y20613D1*
X2494Y20641D1*
X2465Y20651D1*
X2446D1*
X2513Y20613D2*
X2398Y20488D1*
X2638Y14351D2*
X2724D1*
X2753Y14361D1*
X2763Y14370D1*
X2772Y14389D1*
Y14408D1*
X2763Y14427D1*
X2753Y14437D1*
X2724Y14447D1*
X2638D1*
Y14246D1*
X2705Y14351D2*
X2772Y14246D1*
X2834Y14408D2*
X2853Y14418D1*
X2882Y14446D1*
Y14246D1*
X2963Y14446D2*
X3068D1*
X3011Y14370D1*
X3040D1*
X3059Y14360D1*
X3068Y14351D1*
X3078Y14322D1*
Y14303D1*
X3068Y14274D1*
X3049Y14255D1*
X3020Y14246D1*
X2992D1*
X2963Y14255D1*
X2954Y14265D1*
X2944Y14284D1*
X2624Y13511D2*
X2710D1*
X2738Y13521D1*
X2748Y13530D1*
X2758Y13549D1*
Y13568D1*
X2748Y13587D1*
X2738Y13597D1*
X2710Y13607D1*
X2624D1*
Y13406D1*
X2691Y13511D2*
X2758Y13406D1*
X2819Y13568D2*
X2839Y13578D1*
X2867Y13606D1*
Y13406D1*
X3025D2*
Y13606D1*
X2929Y13473D1*
X3073D1*
X2628Y12731D2*
X2714D1*
X2743Y12741D1*
X2753Y12750D1*
X2762Y12769D1*
Y12788D1*
X2753Y12807D1*
X2743Y12817D1*
X2714Y12827D1*
X2628D1*
Y12626D1*
X2695Y12731D2*
X2762Y12626D1*
X2824Y12788D2*
X2843Y12798D1*
X2872Y12826D1*
Y12626D1*
X3049Y12826D2*
X2953D1*
X2944Y12740D1*
X2953Y12750D1*
X2982Y12760D1*
X3010D1*
X3039Y12750D1*
X3058Y12731D1*
X3068Y12702D1*
Y12683D1*
X3058Y12654D1*
X3039Y12635D1*
X3010Y12626D1*
X2982D1*
X2953Y12635D1*
X2944Y12645D1*
X2934Y12664D1*
X18742Y19545D2*
Y19631D1*
X18733Y19660D1*
X18723Y19670D1*
X18704Y19679D1*
X18685D1*
X18666Y19670D1*
X18656Y19660D1*
X18647Y19631D1*
Y19545D1*
X18847D1*
X18742Y19612D2*
X18847Y19679D1*
X18685Y19741D2*
X18675Y19760D1*
X18647Y19789D1*
X18847D1*
X18685Y19851D2*
X18675Y19870D1*
X18647Y19899D1*
X18847D1*
X18139Y19502D2*
Y19588D1*
X18129Y19617D1*
X18120Y19626D1*
X18101Y19636D1*
X18082D1*
X18063Y19626D1*
X18053Y19617D1*
X18043Y19588D1*
Y19502D1*
X18244D1*
X18139Y19569D2*
X18244Y19636D1*
X18082Y19698D2*
X18072Y19717D1*
X18044Y19746D1*
X18244D1*
X18091Y19817D2*
X18082D1*
X18063Y19827D1*
X18053Y19836D1*
X18044Y19855D1*
Y19894D1*
X18053Y19913D1*
X18063Y19922D1*
X18082Y19932D1*
X18101D1*
X18120Y19922D1*
X18149Y19903D1*
X18244Y19807D1*
Y19941D1*
X17508Y14602D2*
Y14688D1*
X17498Y14717D1*
X17488Y14727D1*
X17469Y14736D1*
X17450D1*
X17431Y14727D1*
X17421Y14717D1*
X17412Y14688D1*
Y14602D1*
X17613D1*
X17508Y14669D2*
X17613Y14736D1*
X17441Y14913D2*
X17422Y14903D1*
X17412Y14874D1*
Y14855D1*
X17422Y14827D1*
X17450Y14807D1*
X17498Y14798D1*
X17546D1*
X17584Y14807D1*
X17603Y14827D1*
X17613Y14855D1*
Y14865D1*
X17603Y14893D1*
X17584Y14913D1*
X17555Y14922D1*
X17546D1*
X17517Y14913D1*
X17498Y14893D1*
X17489Y14865D1*
Y14855D1*
X17498Y14827D1*
X17517Y14807D1*
X17546Y14798D1*
X17183Y14572D2*
Y14658D1*
X17173Y14687D1*
X17163Y14697D1*
X17144Y14706D1*
X17125D1*
X17106Y14697D1*
X17096Y14687D1*
X17087Y14658D1*
Y14572D1*
X17288D1*
X17183Y14639D2*
X17288Y14706D1*
Y14806D2*
X17087Y14902D1*
Y14768D1*
X5243Y23560D2*
X5329D1*
X5357Y23570D1*
X5367Y23580D1*
X5377Y23599D1*
Y23618D1*
X5367Y23637D1*
X5357Y23647D1*
X5329Y23656D1*
X5243D1*
Y23455D1*
X5310Y23560D2*
X5377Y23455D1*
X5438Y23618D2*
X5458Y23627D1*
X5486Y23656D1*
Y23455D1*
X5586D2*
X5682Y23656D1*
X5548D1*
X4493Y23560D2*
X4579D1*
X4607Y23570D1*
X4617Y23580D1*
X4627Y23599D1*
Y23618D1*
X4617Y23637D1*
X4607Y23647D1*
X4579Y23656D1*
X4493D1*
Y23455D1*
X4560Y23560D2*
X4627Y23455D1*
X4688Y23618D2*
X4708Y23627D1*
X4736Y23656D1*
Y23455D1*
X4846Y23656D2*
X4817Y23646D1*
X4808Y23627D1*
Y23608D1*
X4817Y23589D1*
X4836Y23579D1*
X4875Y23570D1*
X4903Y23560D1*
X4922Y23541D1*
X4932Y23522D1*
Y23493D1*
X4922Y23474D1*
X4913Y23465D1*
X4884Y23455D1*
X4846D1*
X4817Y23465D1*
X4808Y23474D1*
X4798Y23493D1*
Y23522D1*
X4808Y23541D1*
X4827Y23560D1*
X4855Y23570D1*
X4894Y23579D1*
X4913Y23589D1*
X4922Y23608D1*
Y23627D1*
X4913Y23646D1*
X4884Y23656D1*
X4846D1*
X6080Y17733D2*
Y17819D1*
X6070Y17847D1*
X6060Y17857D1*
X6041Y17867D1*
X6022D1*
X6003Y17857D1*
X5993Y17847D1*
X5984Y17819D1*
Y17733D1*
X6185D1*
X6080Y17800D2*
X6185Y17867D1*
X6022Y17928D2*
X6013Y17948D1*
X5984Y17976D1*
X6185D1*
X6051Y18163D2*
X6080Y18153D1*
X6099Y18134D1*
X6108Y18105D1*
Y18096D1*
X6099Y18067D1*
X6080Y18048D1*
X6051Y18038D1*
X6041D1*
X6013Y18048D1*
X5994Y18067D1*
X5984Y18096D1*
Y18105D1*
X5994Y18134D1*
X6013Y18153D1*
X6051Y18163D1*
X6099D1*
X6147Y18153D1*
X6175Y18134D1*
X6185Y18105D1*
Y18086D1*
X6175Y18057D1*
X6156Y18048D1*
X5135Y17058D2*
Y17144D1*
X5125Y17173D1*
X5115Y17182D1*
X5096Y17192D1*
X5077D1*
X5058Y17182D1*
X5048Y17173D1*
X5039Y17144D1*
Y17058D1*
X5240D1*
X5135Y17125D2*
X5240Y17192D1*
X5077Y17254D2*
X5068Y17273D1*
X5039Y17302D1*
X5240D1*
X5068Y17478D2*
X5049Y17469D1*
X5039Y17440D1*
Y17421D1*
X5049Y17392D1*
X5077Y17373D1*
X5125Y17363D1*
X5173D1*
X5211Y17373D1*
X5230Y17392D1*
X5240Y17421D1*
Y17430D1*
X5230Y17459D1*
X5211Y17478D1*
X5182Y17488D1*
X5173D1*
X5144Y17478D1*
X5125Y17459D1*
X5116Y17430D1*
Y17421D1*
X5125Y17392D1*
X5144Y17373D1*
X5173Y17363D1*
X6095Y17020D2*
Y17106D1*
X6085Y17135D1*
X6075Y17144D1*
X6056Y17154D1*
X6037D1*
X6018Y17144D1*
X6008Y17135D1*
X5999Y17106D1*
Y17020D1*
X6200D1*
X6095Y17087D2*
X6200Y17154D1*
X6047Y17225D2*
X6037D1*
X6018Y17235D1*
X6009Y17244D1*
X5999Y17264D1*
Y17302D1*
X6009Y17321D1*
X6018Y17330D1*
X6037Y17340D1*
X6056D1*
X6076Y17330D1*
X6104Y17311D1*
X6200Y17216D1*
Y17350D1*
X5999Y17469D2*
X6009Y17440D1*
X6037Y17421D1*
X6085Y17411D1*
X6114D1*
X6162Y17421D1*
X6190Y17440D1*
X6200Y17469D1*
Y17488D1*
X6190Y17517D1*
X6162Y17536D1*
X6114Y17545D1*
X6085D1*
X6037Y17536D1*
X6009Y17517D1*
X5999Y17488D1*
Y17469D1*
X6037Y17536D2*
X6162Y17421D1*
X21552Y6080D2*
X21638D1*
X21667Y6090D1*
X21676Y6100D1*
X21686Y6119D1*
Y6138D1*
X21676Y6157D1*
X21667Y6167D1*
X21638Y6176D1*
X21552D1*
Y5975D1*
X21619Y6080D2*
X21686Y5975D1*
X21757Y6128D2*
Y6138D1*
X21767Y6157D1*
X21776Y6166D1*
X21796Y6176D1*
X21834D1*
X21853Y6166D1*
X21862Y6157D1*
X21872Y6138D1*
Y6119D1*
X21862Y6099D1*
X21843Y6071D1*
X21748Y5975D1*
X21882D1*
X23622Y4482D2*
Y4568D1*
X23612Y4597D1*
X23602Y4607D1*
X23583Y4616D1*
X23564D1*
X23545Y4607D1*
X23535Y4597D1*
X23526Y4568D1*
Y4482D1*
X23727D1*
X23622Y4549D2*
X23727Y4616D1*
X23526Y4697D2*
Y4802D1*
X23603Y4745D1*
Y4774D1*
X23612Y4793D1*
X23622Y4802D1*
X23650Y4812D1*
X23669D1*
X23698Y4802D1*
X23717Y4783D1*
X23727Y4755D1*
Y4726D1*
X23717Y4697D1*
X23708Y4688D1*
X23689Y4678D1*
X23022Y4478D2*
Y4564D1*
X23012Y4593D1*
X23002Y4603D1*
X22983Y4612D1*
X22964D1*
X22945Y4603D1*
X22935Y4593D1*
X22926Y4564D1*
Y4478D1*
X23127D1*
X23022Y4545D2*
X23127Y4612D1*
Y4770D2*
X22926D1*
X23060Y4674D1*
Y4817D1*
X21555Y6704D2*
X21641D1*
X21670Y6714D1*
X21679Y6723D1*
X21689Y6742D1*
Y6762D1*
X21679Y6781D1*
X21670Y6790D1*
X21641Y6800D1*
X21555D1*
Y6599D1*
X21622Y6704D2*
X21689Y6599D1*
X21865Y6800D2*
X21770D1*
X21760Y6714D1*
X21770Y6723D1*
X21799Y6733D1*
X21827D1*
X21856Y6723D1*
X21875Y6704D1*
X21885Y6675D1*
Y6656D1*
X21875Y6628D1*
X21856Y6608D1*
X21827Y6599D1*
X21799D1*
X21770Y6608D1*
X21760Y6618D1*
X21751Y6637D1*
X13754Y12814D2*
Y12900D1*
X13744Y12929D1*
X13734Y12938D1*
X13715Y12948D1*
X13696D1*
X13677Y12938D1*
X13667Y12929D1*
X13658Y12900D1*
Y12814D1*
X13859D1*
X13754Y12881D2*
X13859Y12948D1*
X13696Y13010D2*
X13687Y13029D1*
X13658Y13058D1*
X13859D1*
X17597Y17786D2*
Y17872D1*
X17588Y17901D1*
X17578Y17910D1*
X17559Y17920D1*
X17540D1*
X17521Y17910D1*
X17511Y17901D1*
X17502Y17872D1*
Y17786D1*
X17703D1*
X17597Y17853D2*
X17703Y17920D1*
X17502Y18029D2*
X17511Y18001D1*
X17530Y17991D1*
X17550D1*
X17569Y18001D1*
X17578Y18020D1*
X17588Y18058D1*
X17597Y18087D1*
X17617Y18106D1*
X17636Y18115D1*
X17664D1*
X17683Y18106D1*
X17693Y18096D1*
X17703Y18068D1*
Y18029D1*
X17693Y18001D1*
X17683Y17991D1*
X17664Y17982D1*
X17636D1*
X17617Y17991D1*
X17597Y18010D1*
X17588Y18039D1*
X17578Y18077D1*
X17569Y18096D1*
X17550Y18106D1*
X17530D1*
X17511Y18096D1*
X17502Y18068D1*
Y18029D1*
X17939Y17848D2*
Y17934D1*
X17929Y17963D1*
X17920Y17972D1*
X17901Y17982D1*
X17881D1*
X17862Y17972D1*
X17853Y17963D1*
X17843Y17934D1*
Y17848D1*
X18044D1*
X17939Y17915D2*
X18044Y17982D1*
X17910Y18168D2*
X17939Y18158D1*
X17958Y18139D1*
X17968Y18111D1*
Y18101D1*
X17958Y18072D1*
X17939Y18053D1*
X17910Y18044D1*
X17901D1*
X17872Y18053D1*
X17853Y18072D1*
X17843Y18101D1*
Y18111D1*
X17853Y18139D1*
X17872Y18158D1*
X17910Y18168D1*
X17958D1*
X18006Y18158D1*
X18035Y18139D1*
X18044Y18111D1*
Y18092D1*
X18035Y18063D1*
X18015Y18053D1*
X16240Y20771D2*
Y20857D1*
X16230Y20886D1*
X16221Y20896D1*
X16202Y20905D1*
X16182D1*
X16163Y20896D1*
X16154Y20886D1*
X16144Y20857D1*
Y20771D1*
X16345D1*
X16240Y20838D2*
X16345Y20905D1*
X16192Y20977D2*
X16183D1*
X16163Y20986D1*
X16154Y20996D1*
X16144Y21015D1*
Y21053D1*
X16154Y21072D1*
X16163Y21082D1*
X16183Y21092D1*
X16202D1*
X16221Y21082D1*
X16249Y21063D1*
X16345Y20967D1*
Y21101D1*
X16183Y21163D2*
X16173Y21182D1*
X16144Y21211D1*
X16345D1*
X2156Y19664D2*
X2137Y19683D1*
X2108Y19693D1*
X2070D1*
X2041Y19683D1*
X2022Y19664D1*
Y19645D1*
X2031Y19626D1*
X2041Y19616D1*
X2060Y19607D1*
X2117Y19588D1*
X2137Y19578D1*
X2146Y19568D1*
X2156Y19549D1*
Y19521D1*
X2137Y19502D1*
X2108Y19492D1*
X2070D1*
X2041Y19502D1*
X2022Y19521D1*
X2217Y19693D2*
X2265Y19492D1*
X2313Y19693D1*
X2361Y19492D1*
X2409Y19693D1*
X2470Y19654D2*
X2490Y19664D1*
X2518Y19693D1*
Y19492D1*
X10177Y14135D2*
Y13934D1*
X10110Y14135D2*
X10244D1*
X10306Y14029D2*
X10392D1*
X10421Y14039D1*
X10430Y14049D1*
X10440Y14068D1*
Y14096D1*
X10430Y14115D1*
X10421Y14125D1*
X10392Y14135D1*
X10306D1*
Y13934D1*
X10502Y14096D2*
X10521Y14106D1*
X10550Y14134D1*
Y13934D1*
X14233Y12689D2*
Y12546D1*
X14243Y12517D1*
X14262Y12498D1*
X14291Y12488D1*
X14310D1*
X14338Y12498D1*
X14358Y12517D1*
X14367Y12546D1*
Y12689D1*
X14439Y12641D2*
Y12651D1*
X14448Y12670D1*
X14458Y12679D1*
X14477Y12689D1*
X14515D1*
X14534Y12679D1*
X14544Y12670D1*
X14553Y12651D1*
Y12632D1*
X14544Y12612D1*
X14525Y12584D1*
X14429Y12488D1*
X14563D1*
X3924Y11830D2*
Y11687D1*
X3933Y11658D1*
X3952Y11639D1*
X3981Y11629D1*
X4000D1*
X4029Y11639D1*
X4048Y11658D1*
X4058Y11687D1*
Y11830D1*
X4119Y11792D2*
X4139Y11802D1*
X4167Y11830D1*
Y11629D1*
X16236Y17197D2*
Y17054D1*
X16245Y17025D1*
X16264Y17006D1*
X16293Y16996D1*
X16312D1*
X16341Y17006D1*
X16360Y17025D1*
X16370Y17054D1*
Y17197D1*
X16451D2*
X16556D1*
X16498Y17121D1*
X16527D1*
X16546Y17111D1*
X16556Y17102D1*
X16565Y17073D1*
Y17054D1*
X16556Y17025D1*
X16537Y17006D1*
X16508Y16996D1*
X16479D1*
X16451Y17006D1*
X16441Y17016D1*
X16431Y17035D1*
X18943Y22279D2*
Y22135D1*
X18953Y22107D1*
X18972Y22088D1*
X19001Y22078D1*
X19020D1*
X19049Y22088D1*
X19068Y22107D1*
X19077Y22135D1*
Y22279D1*
X19254D2*
X19158D1*
X19149Y22193D1*
X19158Y22202D1*
X19187Y22212D1*
X19216D1*
X19244Y22202D1*
X19264Y22183D1*
X19273Y22155D1*
Y22135D1*
X19264Y22107D1*
X19244Y22088D1*
X19216Y22078D1*
X19187D1*
X19158Y22088D1*
X19149Y22097D1*
X19139Y22116D1*
X3815Y20761D2*
Y20617D1*
X3824Y20589D1*
X3844Y20570D1*
X3872Y20560D1*
X3891D1*
X3920Y20570D1*
X3939Y20589D1*
X3949Y20617D1*
Y20761D1*
X4125Y20732D2*
X4116Y20751D1*
X4087Y20761D1*
X4068D1*
X4039Y20751D1*
X4020Y20722D1*
X4011Y20675D1*
Y20627D1*
X4020Y20589D1*
X4039Y20570D1*
X4068Y20560D1*
X4078D1*
X4106Y20570D1*
X4125Y20589D1*
X4135Y20617D1*
Y20627D1*
X4125Y20656D1*
X4106Y20675D1*
X4078Y20684D1*
X4068D1*
X4039Y20675D1*
X4020Y20656D1*
X4011Y20627D1*
X14389Y24866D2*
Y24722D1*
X14398Y24693D1*
X14417Y24674D1*
X14446Y24665D1*
X14465D1*
X14494Y24674D1*
X14513Y24693D1*
X14523Y24722D1*
Y24866D1*
X14623Y24665D2*
X14718Y24865D1*
X14584D1*
X14120Y14895D2*
X14197Y14800D1*
Y14694D1*
X14273Y14895D2*
X14197Y14800D1*
X14335Y14857D2*
X14354Y14867D1*
X14383Y14895D1*
Y14694D1*
X14472Y18152D2*
Y17999D1*
X14462Y17970D1*
X14452Y17961D1*
X14433Y17951D1*
X14414D1*
X14395Y17961D1*
X14386Y17970D1*
X14376Y17999D1*
Y18018D1*
X14533Y18114D2*
X14553Y18123D1*
X14581Y18152D1*
Y17951D1*
X14701Y18152D2*
X14672Y18142D1*
X14653Y18114D1*
X14643Y18066D1*
Y18037D1*
X14653Y17989D1*
X14672Y17961D1*
X14701Y17951D1*
X14720D1*
X14748Y17961D1*
X14767Y17989D1*
X14777Y18037D1*
Y18066D1*
X14767Y18114D1*
X14748Y18142D1*
X14720Y18152D1*
X14701D1*
X14767Y18114D2*
X14653Y17989D1*
X23450Y25293D2*
Y25140D1*
X23440Y25111D1*
X23431Y25102D1*
X23412Y25092D1*
X23393D1*
X23374Y25102D1*
X23364Y25111D1*
X23354Y25140D1*
Y25159D1*
X23521Y25245D2*
Y25254D1*
X23531Y25274D1*
X23540Y25283D1*
X23560Y25293D1*
X23598D1*
X23617Y25283D1*
X23626Y25274D1*
X23636Y25254D1*
Y25235D1*
X23626Y25216D1*
X23607Y25188D1*
X23512Y25092D1*
X23646D1*
X929Y17518D2*
D140*
Y17647D1*
X914Y17691D1*
X900Y17705D1*
X872Y17719D1*
X843D1*
X814Y17705D1*
X800Y17691D1*
X785Y17647D1*
Y17518D1*
X1087D1*
X929Y17619D2*
X1087Y17719D1*
X972Y17812D2*
Y17984D1*
X943D1*
X914Y17970D1*
X900Y17956D1*
X886Y17927D1*
Y17884D1*
X900Y17855D1*
X929Y17826D1*
X972Y17812D1*
X1001D1*
X1044Y17826D1*
X1072Y17855D1*
X1087Y17884D1*
Y17927D1*
X1072Y17956D1*
X1044Y17984D1*
X929Y18235D2*
X900Y18220D1*
X886Y18177D1*
Y18134D1*
X900Y18091D1*
X929Y18077D1*
X957Y18091D1*
X972Y18120D1*
X986Y18192D1*
X1001Y18220D1*
X1029Y18235D1*
X1044D1*
X1072Y18220D1*
X1087Y18177D1*
Y18134D1*
X1072Y18091D1*
X1044Y18077D1*
X972Y18327D2*
Y18499D1*
X943D1*
X914Y18485D1*
X900Y18471D1*
X886Y18442D1*
Y18399D1*
X900Y18370D1*
X929Y18342D1*
X972Y18327D1*
X1001D1*
X1044Y18342D1*
X1072Y18370D1*
X1087Y18399D1*
Y18442D1*
X1072Y18471D1*
X1044Y18499D1*
X785Y18635D2*
X1029D1*
X1072Y18649D1*
X1087Y18678D1*
Y18707D1*
X886Y18592D2*
Y18693D1*
X889Y15055D2*
X1190Y15256D1*
X889D2*
X1190Y15055D1*
X889Y15349D2*
X1190D1*
X1032D2*
X1004Y15377D1*
X989Y15406D1*
Y15449D1*
X1004Y15478D1*
X1032Y15506D1*
X1076Y15521D1*
X1104D1*
X1147Y15506D1*
X1176Y15478D1*
X1190Y15449D1*
Y15406D1*
X1176Y15377D1*
X1147Y15349D1*
X1076Y15613D2*
Y15785D1*
X1047D1*
X1018Y15771D1*
X1004Y15757D1*
X989Y15728D1*
Y15685D1*
X1004Y15656D1*
X1032Y15628D1*
X1076Y15613D1*
X1104D1*
X1147Y15628D1*
X1176Y15656D1*
X1190Y15685D1*
Y15728D1*
X1176Y15757D1*
X1147Y15785D1*
X1076Y15878D2*
Y16050D1*
X1047D1*
X1018Y16036D1*
X1004Y16022D1*
X989Y15993D1*
Y15950D1*
X1004Y15921D1*
X1032Y15892D1*
X1076Y15878D1*
X1104D1*
X1147Y15892D1*
X1176Y15921D1*
X1190Y15950D1*
Y15993D1*
X1176Y16022D1*
X1147Y16050D1*
X3952Y16175D2*
Y16304D1*
X3937Y16347D1*
X3923Y16362D1*
X3895Y16376D1*
X3866D1*
X3837Y16362D1*
X3823Y16347D1*
X3808Y16304D1*
Y16175D1*
X4110D1*
X3952Y16276D2*
X4110Y16376D1*
X3808Y16469D2*
X4110Y16670D1*
X3808D2*
X4110Y16469D1*
X4758Y16266D2*
X5060D1*
X4758Y16165D2*
Y16366D1*
Y16459D2*
X5060Y16660D1*
X4758D2*
X5060Y16459D1*
X2564Y16347D2*
X2536Y16332D1*
X2507Y16304D1*
X2492Y16275D1*
Y16218D1*
X2507Y16189D1*
X2536Y16160D1*
X2564Y16146D1*
X2607Y16131D1*
X2679D1*
X2722Y16146D1*
X2751Y16160D1*
X2779Y16189D1*
X2794Y16218D1*
Y16275D1*
X2779Y16304D1*
X2751Y16332D1*
X2722Y16347D1*
X2492Y16540D2*
X2794D1*
X2492Y16439D2*
Y16640D1*
X2536Y16934D2*
X2507Y16905D1*
X2492Y16862D1*
Y16805D1*
X2507Y16762D1*
X2536Y16733D1*
X2564D1*
X2593Y16747D1*
X2607Y16762D1*
X2621Y16790D1*
X2650Y16876D1*
X2665Y16905D1*
X2679Y16920D1*
X2708Y16934D1*
X2751D1*
X2779Y16905D1*
X2794Y16862D1*
Y16805D1*
X2779Y16762D1*
X2751Y16733D1*
X1949Y16149D2*
Y16278D1*
X1934Y16321D1*
X1920Y16335D1*
X1892Y16350D1*
X1863D1*
X1834Y16335D1*
X1820Y16321D1*
X1805Y16278D1*
Y16149D1*
X2107D1*
X1949Y16249D2*
X2107Y16349D1*
X1805Y16543D2*
X2107D1*
X1805Y16442D2*
Y16643D1*
X1848Y16937D2*
X1820Y16908D1*
X1805Y16865D1*
Y16808D1*
X1820Y16765D1*
X1848Y16736D1*
X1877D1*
X1906Y16750D1*
X1920Y16765D1*
X1934Y16793D1*
X1963Y16879D1*
X1977Y16908D1*
X1992Y16922D1*
X2021Y16937D1*
X2064D1*
X2092Y16908D1*
X2107Y16865D1*
Y16808D1*
X2092Y16765D1*
X2064Y16736D1*
X11045Y13082D2*
X11016Y13068D1*
X10987Y13039D1*
X10973Y13011D1*
Y12953D1*
X10987Y12925D1*
X11016Y12896D1*
X11045Y12881D1*
X11088Y12867D1*
X11160D1*
X11203Y12881D1*
X11231Y12896D1*
X11260Y12925D1*
X11275Y12953D1*
Y13011D1*
X11260Y13039D1*
X11231Y13068D1*
X11203Y13082D1*
X11160D1*
Y13011D1*
X10973Y13376D2*
X11275D1*
X10973Y13175D1*
X11275D1*
X10973Y13469D2*
X11275D1*
Y13569D1*
X11260Y13612D1*
X11231Y13641D1*
X11203Y13655D1*
X11160Y13670D1*
X11088D1*
X11045Y13655D1*
X11016Y13641D1*
X10987Y13612D1*
X10973Y13569D1*
Y13469D1*
X22946Y4130D2*
X22932Y4158D1*
X22903Y4187D1*
X22874Y4201D1*
X22817D1*
X22788Y4187D1*
X22760Y4158D1*
X22745Y4130D1*
X22731Y4086D1*
Y4014D1*
X22745Y3972D1*
X22760Y3943D1*
X22788Y3914D1*
X22817Y3900D1*
X22874D1*
X22903Y3914D1*
X22932Y3943D1*
X22946Y3972D1*
Y4014D1*
X22874D1*
X23039Y4043D2*
X23168D1*
X23211Y4058D1*
X23225Y4072D1*
X23240Y4101D1*
Y4144D1*
X23225Y4172D1*
X23211Y4187D1*
X23168Y4201D1*
X23039D1*
Y3900D1*
X23533Y4158D2*
X23505Y4187D1*
X23462Y4201D1*
X23404D1*
X23361Y4187D1*
X23332Y4158D1*
Y4130D1*
X23347Y4101D1*
X23361Y4086D1*
X23390Y4072D1*
X23476Y4043D1*
X23505Y4029D1*
X23519Y4014D1*
X23533Y3986D1*
Y3943D1*
X23505Y3914D1*
X23462Y3900D1*
X23404D1*
X23361Y3914D1*
X23332Y3943D1*
X20810Y2388D2*
X20939D1*
X20982Y2402D1*
X20997Y2417D1*
X21011Y2445D1*
Y2474D1*
X20997Y2503D1*
X20982Y2517D1*
X20939Y2531D1*
X20810D1*
Y2230D1*
X20910Y2388D2*
X21011Y2230D1*
X21104Y2531D2*
X21305Y2230D1*
Y2531D2*
X21104Y2230D1*
X20920Y4111D2*
Y3810D1*
X20820Y4111D2*
X21021D1*
X21114D2*
X21315Y3810D1*
Y4111D2*
X21114Y3810D1*
X21625Y9340D2*
X21611Y9368D1*
X21582Y9397D1*
X21554Y9411D1*
X21496D1*
X21467Y9397D1*
X21439Y9368D1*
X21424Y9340D1*
X21410Y9297D1*
Y9225D1*
X21424Y9182D1*
X21439Y9153D1*
X21467Y9125D1*
X21496Y9110D1*
X21554D1*
X21582Y9125D1*
X21611Y9153D1*
X21625Y9182D1*
X21718Y9411D2*
Y9110D1*
Y9254D2*
X21761Y9297D1*
X21790Y9311D1*
X21833D1*
X21861Y9297D1*
X21876Y9254D1*
Y9110D1*
X21968Y9354D2*
X21997Y9368D1*
X22040Y9411D1*
Y9110D1*
X21605Y10340D2*
X21591Y10368D1*
X21562Y10397D1*
X21534Y10411D1*
X21476D1*
X21447Y10397D1*
X21419Y10368D1*
X21404Y10340D1*
X21390Y10297D1*
Y10225D1*
X21404Y10182D1*
X21419Y10153D1*
X21447Y10125D1*
X21476Y10110D1*
X21534D1*
X21562Y10125D1*
X21591Y10153D1*
X21605Y10182D1*
X21698Y10411D2*
Y10110D1*
Y10254D2*
X21741Y10297D1*
X21770Y10311D1*
X21813D1*
X21841Y10297D1*
X21856Y10254D1*
Y10110D1*
X21963Y10339D2*
Y10354D1*
X21977Y10383D1*
X21991Y10397D1*
X22020Y10411D1*
X22078D1*
X22106Y10397D1*
X22120Y10383D1*
X22135Y10354D1*
Y10325D1*
X22120Y10296D1*
X22092Y10254D1*
X21948Y10110D1*
X22149D1*
X21615Y11340D2*
X21601Y11368D1*
X21572Y11397D1*
X21544Y11411D1*
X21486D1*
X21457Y11397D1*
X21429Y11368D1*
X21414Y11340D1*
X21400Y11297D1*
Y11225D1*
X21414Y11182D1*
X21429Y11153D1*
X21457Y11125D1*
X21486Y11110D1*
X21544D1*
X21572Y11125D1*
X21601Y11153D1*
X21615Y11182D1*
X21708Y11411D2*
Y11110D1*
Y11254D2*
X21751Y11297D1*
X21780Y11311D1*
X21823D1*
X21851Y11297D1*
X21866Y11254D1*
Y11110D1*
X21987Y11411D2*
X22145D1*
X22059Y11296D1*
X22102D1*
X22130Y11282D1*
X22145Y11268D1*
X22159Y11225D1*
Y11196D1*
X22145Y11153D1*
X22116Y11124D1*
X22073Y11110D1*
X22030D1*
X21987Y11124D1*
X21973Y11139D1*
X21958Y11167D1*
X21635Y12390D2*
X21621Y12418D1*
X21592Y12447D1*
X21564Y12461D1*
X21506D1*
X21477Y12447D1*
X21449Y12418D1*
X21434Y12390D1*
X21420Y12347D1*
Y12275D1*
X21434Y12232D1*
X21449Y12203D1*
X21477Y12175D1*
X21506Y12160D1*
X21564D1*
X21592Y12175D1*
X21621Y12203D1*
X21635Y12232D1*
X21728Y12461D2*
Y12160D1*
Y12304D2*
X21771Y12347D1*
X21800Y12361D1*
X21843D1*
X21871Y12347D1*
X21886Y12304D1*
Y12160D1*
X22122D2*
Y12461D1*
X21978Y12260D1*
X22194D1*
X21645Y13180D2*
X21631Y13208D1*
X21602Y13237D1*
X21574Y13251D1*
X21516D1*
X21487Y13237D1*
X21459Y13208D1*
X21444Y13180D1*
X21430Y13137D1*
Y13065D1*
X21444Y13022D1*
X21459Y12993D1*
X21487Y12965D1*
X21516Y12950D1*
X21574D1*
X21602Y12965D1*
X21631Y12993D1*
X21645Y13022D1*
X21738Y13251D2*
Y12950D1*
Y13094D2*
X21781Y13137D1*
X21810Y13151D1*
X21853D1*
X21881Y13137D1*
X21896Y13094D1*
Y12950D1*
X22160Y13251D2*
X22017D1*
X22003Y13122D1*
X22017Y13136D1*
X22060Y13151D1*
X22103D1*
X22146Y13136D1*
X22175Y13108D1*
X22189Y13065D1*
Y13036D1*
X22175Y12993D1*
X22146Y12964D1*
X22103Y12950D1*
X22060D1*
X22017Y12964D1*
X22003Y12979D1*
X21988Y13007D1*
X21655Y14340D2*
X21641Y14368D1*
X21612Y14397D1*
X21584Y14411D1*
X21526D1*
X21497Y14397D1*
X21469Y14368D1*
X21454Y14340D1*
X21440Y14297D1*
Y14225D1*
X21454Y14182D1*
X21469Y14153D1*
X21497Y14125D1*
X21526Y14110D1*
X21584D1*
X21612Y14125D1*
X21641Y14153D1*
X21655Y14182D1*
X21748Y14411D2*
Y14110D1*
Y14254D2*
X21791Y14297D1*
X21820Y14311D1*
X21863D1*
X21891Y14297D1*
X21906Y14254D1*
Y14110D1*
X22170Y14368D2*
X22156Y14397D1*
X22113Y14411D1*
X22085D1*
X22041Y14397D1*
X22013Y14354D1*
X21998Y14282D1*
Y14210D1*
X22013Y14153D1*
X22041Y14124D1*
X22085Y14110D1*
X22099D1*
X22142Y14124D1*
X22170Y14153D1*
X22185Y14196D1*
Y14210D1*
X22170Y14254D1*
X22142Y14282D1*
X22099Y14296D1*
X22085D1*
X22041Y14282D1*
X22013Y14254D1*
X21998Y14210D1*
X21615Y15330D2*
X21601Y15358D1*
X21572Y15387D1*
X21544Y15401D1*
X21486D1*
X21457Y15387D1*
X21429Y15358D1*
X21414Y15330D1*
X21400Y15287D1*
Y15215D1*
X21414Y15172D1*
X21429Y15143D1*
X21457Y15115D1*
X21486Y15100D1*
X21544D1*
X21572Y15115D1*
X21601Y15143D1*
X21615Y15172D1*
X21708Y15401D2*
Y15100D1*
Y15244D2*
X21751Y15287D1*
X21780Y15301D1*
X21823D1*
X21851Y15287D1*
X21866Y15244D1*
Y15100D1*
X22016D2*
X22159Y15401D1*
X21958D1*
X21615Y16360D2*
X21601Y16388D1*
X21572Y16417D1*
X21544Y16431D1*
X21486D1*
X21457Y16417D1*
X21429Y16388D1*
X21414Y16360D1*
X21400Y16317D1*
Y16245D1*
X21414Y16202D1*
X21429Y16173D1*
X21457Y16145D1*
X21486Y16130D1*
X21544D1*
X21572Y16145D1*
X21601Y16173D1*
X21615Y16202D1*
X21708Y16431D2*
Y16130D1*
Y16274D2*
X21751Y16317D1*
X21780Y16331D1*
X21823D1*
X21851Y16317D1*
X21866Y16274D1*
Y16130D1*
X22030Y16431D2*
X21987Y16417D1*
X21973Y16388D1*
Y16359D1*
X21987Y16331D1*
X22016Y16316D1*
X22073Y16302D1*
X22116Y16288D1*
X22145Y16259D1*
X22159Y16230D1*
Y16187D1*
X22145Y16159D1*
X22130Y16144D1*
X22087Y16130D1*
X22030D1*
X21987Y16144D1*
X21973Y16159D1*
X21958Y16187D1*
Y16230D1*
X21973Y16259D1*
X22001Y16288D1*
X22044Y16302D1*
X22102Y16316D1*
X22130Y16331D1*
X22145Y16359D1*
Y16388D1*
X22130Y16417D1*
X22087Y16431D1*
X22030D1*
X20708Y20676D2*
D11*
X20689Y20696D1*
X20660Y20705D1*
X20622D1*
X20593Y20696D1*
X20574Y20676D1*
Y20657D1*
X20584Y20638D1*
X20593Y20629D1*
X20612Y20619D1*
X20670Y20600D1*
X20689Y20590D1*
X20699Y20581D1*
X20708Y20562D1*
Y20533D1*
X20689Y20514D1*
X20660Y20504D1*
X20622D1*
X20593Y20514D1*
X20574Y20533D1*
X20770Y20705D2*
Y20504D1*
X20837D1*
X20866Y20514D1*
X20885Y20533D1*
X20894Y20552D1*
X20904Y20581D1*
Y20629D1*
X20894Y20657D1*
X20885Y20676D1*
X20866Y20696D1*
X20837Y20705D1*
X20770D1*
X21119Y20504D2*
X21042Y20705D1*
X20966Y20504D1*
X20994Y20571D2*
X21090D1*
X20702Y21697D2*
X20683Y21716D1*
X20654Y21726D1*
X20616D1*
X20587Y21716D1*
X20568Y21697D1*
Y21678D1*
X20578Y21659D1*
X20587Y21649D1*
X20606Y21640D1*
X20664Y21621D1*
X20683Y21611D1*
X20692Y21601D1*
X20702Y21582D1*
Y21554D1*
X20683Y21535D1*
X20654Y21525D1*
X20616D1*
X20587Y21535D1*
X20568Y21554D1*
X20907Y21678D2*
X20897Y21697D1*
X20878Y21716D1*
X20859Y21726D1*
X20821D1*
X20802Y21716D1*
X20783Y21697D1*
X20773Y21678D1*
X20764Y21649D1*
Y21601D1*
X20773Y21573D1*
X20783Y21554D1*
X20802Y21535D1*
X20821Y21525D1*
X20859D1*
X20878Y21535D1*
X20897Y21554D1*
X20907Y21573D1*
X20969Y21726D2*
Y21525D1*
X21083D1*
X21357Y20816D2*
D140*
Y20945D1*
X21342Y20988D1*
X21328Y21002D1*
X21299Y21017D1*
X21270D1*
X21242Y21002D1*
X21227Y20988D1*
X21213Y20945D1*
Y20816D1*
X21514D1*
X21357Y20916D2*
X21514Y21017D1*
X21400Y21109D2*
Y21281D1*
X21371D1*
X21342Y21267D1*
X21328Y21253D1*
X21314Y21224D1*
Y21181D1*
X21328Y21152D1*
X21357Y21123D1*
X21400Y21109D1*
X21428D1*
X21471Y21123D1*
X21500Y21152D1*
X21514Y21181D1*
Y21224D1*
X21500Y21253D1*
X21471Y21281D1*
X21357Y21546D2*
X21328Y21518D1*
X21314Y21489D1*
Y21446D1*
X21328Y21417D1*
X21357Y21389D1*
X21400Y21374D1*
X21428D1*
X21471Y21389D1*
X21500Y21417D1*
X21514Y21446D1*
Y21489D1*
X21500Y21518D1*
X21471Y21546D1*
X21400Y21639D2*
Y21811D1*
X21371D1*
X21342Y21797D1*
X21328Y21783D1*
X21314Y21754D1*
Y21711D1*
X21328Y21682D1*
X21357Y21653D1*
X21400Y21639D1*
X21428D1*
X21471Y21653D1*
X21500Y21682D1*
X21514Y21711D1*
Y21754D1*
X21500Y21783D1*
X21471Y21811D1*
X21213Y21904D2*
X21227Y21918D1*
X21213Y21933D1*
X21198Y21918D1*
X21213Y21904D1*
X21314Y21918D2*
X21514D1*
X21314Y22025D2*
X21514Y22111D1*
X21314Y22197D1*
X21400Y22290D2*
Y22462D1*
X21371D1*
X21342Y22448D1*
X21328Y22434D1*
X21314Y22405D1*
Y22362D1*
X21328Y22333D1*
X21357Y22304D1*
X21400Y22290D1*
X21428D1*
X21471Y22304D1*
X21500Y22333D1*
X21514Y22362D1*
Y22405D1*
X21500Y22434D1*
X21471Y22462D1*
X21314Y22555D2*
X21514D1*
X21400D2*
X21357Y22569D1*
X21328Y22598D1*
X21314Y22627D1*
Y22670D1*
X3505Y25200D2*
X3491Y25228D1*
X3462Y25257D1*
X3434Y25271D1*
X3376D1*
X3347Y25257D1*
X3319Y25228D1*
X3304Y25200D1*
X3290Y25157D1*
Y25085D1*
X3304Y25042D1*
X3319Y25013D1*
X3347Y24985D1*
X3376Y24970D1*
X3434D1*
X3462Y24985D1*
X3491Y25013D1*
X3505Y25042D1*
Y25085D1*
X3434D1*
X3799Y25271D2*
Y24970D1*
X3598Y25271D1*
Y24970D1*
X3891Y25271D2*
Y24970D1*
X3992D1*
X4035Y24985D1*
X4064Y25013D1*
X4078Y25042D1*
X4092Y25085D1*
Y25157D1*
X4078Y25200D1*
X4064Y25228D1*
X4035Y25257D1*
X3992Y25271D1*
X3891D1*
X4609Y25240D2*
Y24981D1*
X4480Y25110D2*
X4738D1*
X4831Y25261D2*
X4946Y24960D1*
X5060Y25261D1*
X5153D2*
Y24960D1*
Y25118D2*
X5182Y25147D1*
X5210Y25161D1*
X5254D1*
X5282Y25147D1*
X5311Y25118D1*
X5325Y25075D1*
Y25046D1*
X5311Y25003D1*
X5282Y24975D1*
X5254Y24960D1*
X5210D1*
X5182Y24975D1*
X5153Y25003D1*
X5590Y25161D2*
Y24960D1*
Y25118D2*
X5561Y25147D1*
X5533Y25161D1*
X5490D1*
X5461Y25147D1*
X5432Y25118D1*
X5418Y25075D1*
Y25046D1*
X5432Y25003D1*
X5461Y24975D1*
X5490Y24960D1*
X5533D1*
X5561Y24975D1*
X5590Y25003D1*
X5726Y25261D2*
Y25017D1*
X5740Y24975D1*
X5769Y24960D1*
X5797D1*
X5683Y25161D2*
X5783D1*
X19458Y15229D2*
D11*
X19439Y15248D1*
X19410Y15257D1*
X19372D1*
X19343Y15248D1*
X19324Y15229D1*
Y15209D1*
X19334Y15190D1*
X19343Y15181D1*
X19362Y15171D1*
X19420Y15152D1*
X19439Y15143D1*
X19448Y15133D1*
X19458Y15114D1*
Y15085D1*
X19439Y15066D1*
X19410Y15056D1*
X19372D1*
X19343Y15066D1*
X19324Y15085D1*
X19520Y15257D2*
Y15056D1*
X19587D1*
X19615Y15066D1*
X19635Y15085D1*
X19644Y15104D1*
X19654Y15133D1*
Y15181D1*
X19644Y15209D1*
X19635Y15229D1*
X19615Y15248D1*
X19587Y15257D1*
X19520D1*
X19869Y15056D2*
X19792Y15257D1*
X19715Y15056D1*
X19744Y15123D2*
X19840D1*
X19466Y14234D2*
X19447Y14253D1*
X19418Y14262D1*
X19380D1*
X19351Y14253D1*
X19332Y14234D1*
Y14215D1*
X19342Y14195D1*
X19351Y14186D1*
X19370Y14176D1*
X19428Y14157D1*
X19447Y14148D1*
X19457Y14138D1*
X19466Y14119D1*
Y14090D1*
X19447Y14071D1*
X19418Y14061D1*
X19380D1*
X19351Y14071D1*
X19332Y14090D1*
X19671Y14215D2*
X19662Y14234D1*
X19643Y14253D1*
X19624Y14262D1*
X19585D1*
X19566Y14253D1*
X19547Y14234D1*
X19537Y14215D1*
X19528Y14186D1*
Y14138D1*
X19537Y14109D1*
X19547Y14090D1*
X19566Y14071D1*
X19585Y14061D1*
X19624D1*
X19643Y14071D1*
X19662Y14090D1*
X19671Y14109D1*
X19733Y14262D2*
Y14061D1*
X19848D1*
X19448Y17239D2*
X19324D1*
Y17038D1*
X19448D1*
X19324Y17143D2*
X19401D1*
X19510Y17005D2*
X19692D1*
X19888Y17210D2*
X19869Y17230D1*
X19840Y17239D1*
X19802D1*
X19773Y17230D1*
X19754Y17210D1*
Y17191D1*
X19763Y17172D1*
X19773Y17163D1*
X19792Y17153D1*
X19849Y17134D1*
X19869Y17124D1*
X19878Y17115D1*
X19888Y17096D1*
Y17067D1*
X19869Y17048D1*
X19840Y17038D1*
X19802D1*
X19773Y17048D1*
X19754Y17067D1*
X19949Y17239D2*
Y17038D1*
X20016D1*
X20045Y17048D1*
X20064Y17067D1*
X20074Y17086D1*
X20083Y17115D1*
Y17163D1*
X20074Y17191D1*
X20064Y17210D1*
X20045Y17230D1*
X20016Y17239D1*
X19949D1*
X20298Y17038D2*
X20222Y17239D1*
X20145Y17038D1*
X20174Y17105D2*
X20270D1*
X19464Y16252D2*
X19340D1*
Y16051D1*
X19464D1*
X19340Y16156D2*
X19416D1*
X19526Y16018D2*
X19708D1*
X19903Y16223D2*
X19884Y16243D1*
X19856Y16252D1*
X19817D1*
X19789Y16243D1*
X19769Y16223D1*
Y16204D1*
X19779Y16185D1*
X19789Y16176D1*
X19808Y16166D1*
X19865Y16147D1*
X19884Y16137D1*
X19894Y16128D1*
X19903Y16109D1*
Y16080D1*
X19884Y16061D1*
X19856Y16051D1*
X19817D1*
X19789Y16061D1*
X19769Y16080D1*
X20109Y16204D2*
X20099Y16223D1*
X20080Y16243D1*
X20061Y16252D1*
X20023D1*
X20003Y16243D1*
X19984Y16223D1*
X19975Y16204D1*
X19965Y16176D1*
Y16128D1*
X19975Y16099D1*
X19984Y16080D1*
X20003Y16061D1*
X20023Y16051D1*
X20061D1*
X20080Y16061D1*
X20099Y16080D1*
X20109Y16099D1*
X20170Y16252D2*
Y16051D1*
X20285D1*
X19348Y18234D2*
Y18033D1*
X19543Y18234D2*
Y18033D1*
X19410Y18234D1*
Y18033D1*
X19672Y18234D2*
Y18033D1*
X19605Y18234D2*
X19739D1*
M02*
