G04 DipTrace 2.3.1.0*
%INAutoPilot.G2L*%
%MOIN*%
%ADD13C,0.012*%
%ADD14C,0.005*%
%ADD20C,0.018*%
%ADD23C,0.025*%
%ADD24C,0.013*%
%ADD29C,0.07*%
%ADD42C,0.0669*%
%ADD45C,0.0591*%
%ADD65C,0.06*%
%ADD67C,0.1*%
%FSLAX44Y44*%
G04*
G70*
G90*
G75*
G01*
%LNInner1_Plane*%
%LPD*%
X6001Y11701D2*
D13*
X5982D1*
Y11651D1*
X6001Y11701D1*
X18648Y21098D2*
X18623Y21073D1*
X18573D1*
X18648Y21098D1*
X16837Y16373D2*
Y16343D1*
X16888Y16293D1*
X8364Y3754D2*
D14*
X8095Y3755D1*
X6020Y2620D2*
Y2200D1*
X5780Y2440D1*
X12695Y18455D2*
X12632D1*
X12600Y18423D1*
X22814Y1111D2*
Y1136D1*
X22823Y1145D1*
X24000Y23000D2*
Y23527D1*
X24022Y23549D1*
X22683Y7844D2*
X22581D1*
X22577Y7840D1*
X8377Y13598D2*
Y13706D1*
X8361Y13722D1*
D20*
X10459Y3954D3*
X18209Y11514D3*
X770Y22255D3*
X1880Y20250D3*
X1181Y12101D3*
X21544Y5531D3*
X23421Y3290D3*
X22833Y1474D3*
X770Y22255D3*
X12522Y12546D3*
X9760Y12860D3*
X23005Y8742D3*
X18664Y4363D3*
X11210Y3300D3*
X21130Y10740D3*
X21800Y13420D3*
X11610Y3130D3*
X21360Y10580D3*
X21791Y12770D3*
X10559Y1385D3*
X21530Y10790D3*
X21540Y12731D3*
X18863Y2460D3*
X10419Y10042D3*
X9499D3*
X10445Y11072D3*
X8468D3*
X15439Y11542D3*
X8023Y10986D3*
X15419Y12462D3*
X5698Y12162D3*
X9433Y7662D3*
X5359Y10042D3*
X10579Y9582D3*
X8699D3*
X8999Y7042D3*
X4879D3*
X10995Y3530D3*
X2469Y8782D3*
X9059Y8452D3*
X14249Y3522D3*
X11800Y9000D3*
X9099Y9411D3*
X12259Y2962D3*
X7459D3*
X13319Y4542D3*
X9499D3*
X13659Y4741D3*
X6869D3*
X7899Y6702D3*
Y5872D3*
X7017Y6852D3*
X9486Y5708D3*
X4479Y6882D3*
X6769Y6042D3*
X4210Y6220D3*
X7789Y5362D3*
X3051Y5960D3*
X10419Y5132D3*
X13459Y7212D3*
X6769D3*
X3609D3*
X13209Y5512D3*
X8509Y8792D3*
X16595Y8805D3*
X12950Y7420D3*
X3891D3*
X7059Y11572D3*
Y8782D3*
X9439Y8622D3*
X8179D3*
X12989Y11382D3*
X7329Y7822D3*
X6001Y11701D3*
X18648Y21098D3*
X16837Y16373D3*
X8364Y3754D3*
X6020Y2620D3*
X7545Y21505D3*
X12695Y18455D3*
X22814Y1111D3*
X22683Y7844D3*
X8377Y13598D3*
X12758Y12616D3*
X8330Y12860D3*
X17740Y16883D3*
X6695Y21755D3*
Y19455D3*
X12932Y12787D3*
X6780Y12870D3*
X14349Y11382D3*
X19499Y8482D3*
X3210Y22870D3*
X10890Y14080D3*
X13286Y12485D3*
X6070Y13930D3*
X17311Y973D3*
X3370Y14105D3*
X17092Y1210D3*
X16820Y2480D3*
X17030Y1571D3*
X4545Y21005D3*
Y20655D3*
Y20305D3*
X4245Y21005D3*
Y20655D3*
Y20305D3*
X6120Y20955D3*
Y20330D3*
X5895Y20630D3*
X5645Y20955D3*
Y20330D3*
X5395Y20630D3*
X5170Y20955D3*
Y20330D3*
X15961Y23087D3*
X11645Y23905D3*
X11695Y21505D3*
X10295Y23905D3*
Y21505D3*
X9095Y23905D3*
X7545D3*
X15961Y23487D3*
X9095Y21505D3*
X11695Y22705D3*
X10295D3*
X9095D3*
X7545D3*
X15961Y23887D3*
Y24287D3*
Y24687D3*
X15561D3*
X15161D3*
X14761D3*
X14361D3*
X13961D3*
X13561D3*
X13161D3*
Y24287D3*
Y23887D3*
Y23487D3*
Y23087D3*
Y22687D3*
Y22287D3*
X15961Y22687D3*
Y22287D3*
X11908Y12467D3*
X5782Y7251D3*
Y5651D3*
Y3751D3*
Y11351D3*
Y3101D3*
X2232Y4651D3*
Y6601D3*
X19509Y10262D3*
X12379Y11508D3*
X11659Y11512D3*
X19467Y7909D3*
X19464Y6012D3*
X19470Y3380D3*
X18259Y2462D3*
X15709D3*
X13530Y2473D3*
X11180Y2462D3*
X10459Y5862D3*
Y7821D3*
X10467Y10370D3*
X16409Y11512D3*
X14809D3*
X19510Y9270D3*
X770Y21005D3*
X17488Y15443D3*
X16447Y16008D3*
X16413Y15493D3*
X16849Y17835D3*
X17238Y17828D3*
X18648Y21098D3*
X5782Y6577D3*
Y4701D3*
X23000Y1250D3*
X2232Y11301D3*
X20790Y19200D3*
X2273Y3742D3*
X12260Y15620D3*
X2232Y3101D3*
Y5651D3*
X2276Y7201D3*
X6001Y11701D3*
X15743Y14588D3*
X18209Y13421D3*
X12771Y14580D3*
X12059Y11512D3*
X21065Y9974D3*
X19476Y7600D3*
X19491Y5635D3*
X19499Y3081D3*
X6770Y13620D3*
X17959Y2462D3*
X22440Y1760D3*
X15409Y2462D3*
X24605Y5095D3*
X13228Y2462D3*
X23421Y3290D3*
X10859Y2462D3*
X18740Y19332D3*
X10468Y6189D3*
X17862Y22038D3*
X10447Y8148D3*
X17342Y13688D3*
X10459Y10712D3*
X16715Y11500D3*
X1181Y12101D3*
X15109Y11512D3*
X1880Y20250D3*
X21670Y20090D3*
X17488Y15793D3*
X18420Y12460D3*
X16463Y16368D3*
X17760Y9910D3*
X17263Y16393D3*
X13880Y16090D3*
Y12460D3*
X15837Y787D3*
X11500Y12460D3*
X17840Y12990D3*
X19386Y4169D3*
X15077Y15032D3*
X19150Y3977D3*
X8690Y10710D3*
X22310Y21000D3*
X24000Y21463D3*
X21800Y9670D3*
Y9240D3*
X22140Y17870D3*
X17420Y9910D3*
X16879Y14171D3*
X17590Y9740D3*
X14636Y16915D3*
X1946Y25026D2*
D23*
X19712D1*
X21125D2*
X25251D1*
X2059Y24778D2*
X3435D1*
X4555D2*
X4685D1*
X5805D2*
X19525D1*
X21309D2*
X25251D1*
X2102Y24529D2*
X3294D1*
X5946D2*
X19439D1*
X21399D2*
X25251D1*
X2075Y24280D2*
X3259D1*
X5981D2*
X19419D1*
X21418D2*
X25251D1*
X1981Y24032D2*
X3310D1*
X5930D2*
X19462D1*
X21371D2*
X25251D1*
X1786Y23783D2*
X3486D1*
X4504D2*
X4736D1*
X5754D2*
X19583D1*
X21254D2*
X25251D1*
X350Y23534D2*
X935D1*
X1266D2*
X19825D1*
X21012D2*
X25251D1*
X350Y23285D2*
X22548D1*
X24450D2*
X25251D1*
X350Y23037D2*
X2931D1*
X3489D2*
X22462D1*
X24536D2*
X25251D1*
X350Y22788D2*
X2892D1*
X3528D2*
X22509D1*
X24493D2*
X25251D1*
X350Y22539D2*
X642D1*
X899D2*
X22751D1*
X23250D2*
X23751D1*
X24250D2*
X25251D1*
X1094Y22291D2*
X17669D1*
X18055D2*
X22552D1*
X24446D2*
X25251D1*
X350Y22042D2*
X529D1*
X1012D2*
X6571D1*
X6818D2*
X12294D1*
X12664D2*
X17536D1*
X18192D2*
X19724D1*
X20239D2*
X22462D1*
X24536D2*
X25251D1*
X350Y21793D2*
X6368D1*
X7020D2*
X12005D1*
X12957D2*
X16802D1*
X17457D2*
X17657D1*
X18067D2*
X19489D1*
X20473D2*
X22505D1*
X24493D2*
X25251D1*
X350Y21545D2*
X6450D1*
X6938D2*
X11946D1*
X13012D2*
X16587D1*
X17668D2*
X19450D1*
X20512D2*
X22739D1*
X23262D2*
X23685D1*
X24317D2*
X25251D1*
X350Y21296D2*
X12021D1*
X12938D2*
X16540D1*
X17715D2*
X19540D1*
X20418D2*
X22220D1*
X22401D2*
X22556D1*
X24446D2*
X25251D1*
X350Y21047D2*
X12310D1*
X12649D2*
X16611D1*
X17649D2*
X19732D1*
X20227D2*
X21986D1*
X24536D2*
X25251D1*
X350Y20799D2*
X12005D1*
X12954D2*
X16892D1*
X17368D2*
X19493D1*
X20469D2*
X22060D1*
X24496D2*
X25251D1*
X350Y20550D2*
X11946D1*
X13012D2*
X19450D1*
X20512D2*
X22728D1*
X23270D2*
X23728D1*
X24270D2*
X25251D1*
X350Y20301D2*
X1556D1*
X2204D2*
X12017D1*
X12942D2*
X19536D1*
X20422D2*
X21427D1*
X21911D2*
X22560D1*
X24442D2*
X25251D1*
X350Y20053D2*
X1626D1*
X2133D2*
X21345D1*
X21996D2*
X22466D1*
X24536D2*
X25251D1*
X350Y19804D2*
X21544D1*
X21793D2*
X22501D1*
X24500D2*
X25251D1*
X350Y19555D2*
X6384D1*
X7004D2*
X18509D1*
X18969D2*
X22720D1*
X23282D2*
X23720D1*
X24282D2*
X25251D1*
X350Y19306D2*
X6407D1*
X6985D2*
X16931D1*
X17250D2*
X18411D1*
X19067D2*
X22564D1*
X23438D2*
X23564D1*
X24438D2*
X25251D1*
X350Y19058D2*
X16587D1*
X17594D2*
X18587D1*
X18895D2*
X22466D1*
X24536D2*
X25251D1*
X350Y18809D2*
X16505D1*
X17676D2*
X22497D1*
X24500D2*
X25251D1*
X350Y18560D2*
X16540D1*
X17641D2*
X18318D1*
X18950D2*
X22712D1*
X23289D2*
X23712D1*
X24289D2*
X25251D1*
X350Y18312D2*
X16724D1*
X17454D2*
X18130D1*
X19137D2*
X25251D1*
X350Y18063D2*
X18107D1*
X19161D2*
X21880D1*
X22399D2*
X25251D1*
X350Y17814D2*
X13825D1*
X14329D2*
X14825D1*
X15329D2*
X18220D1*
X19047D2*
X21818D1*
X22461D2*
X25251D1*
X350Y17566D2*
X13587D1*
X15567D2*
X18325D1*
X18942D2*
X25251D1*
X350Y17317D2*
X13544D1*
X15610D2*
X18130D1*
X19137D2*
X25251D1*
X350Y17068D2*
X13634D1*
X15520D2*
X17478D1*
X19161D2*
X25251D1*
X350Y16820D2*
X14321D1*
X14950D2*
X17419D1*
X18063D2*
X18216D1*
X19051D2*
X25251D1*
X350Y16571D2*
X16212D1*
X16711D2*
X16993D1*
X17532D2*
X18333D1*
X18934D2*
X22372D1*
X23227D2*
X23375D1*
X24227D2*
X25251D1*
X350Y16322D2*
X13661D1*
X14098D2*
X16138D1*
X16786D2*
X16943D1*
X17582D2*
X18134D1*
X19133D2*
X22239D1*
X24360D2*
X25251D1*
X350Y16074D2*
X13552D1*
X14207D2*
X16364D1*
X16562D2*
X17349D1*
X17625D2*
X18107D1*
X19161D2*
X22243D1*
X24356D2*
X25251D1*
X350Y15825D2*
X1505D1*
X5383D2*
X13708D1*
X14051D2*
X17161D1*
X17813D2*
X18212D1*
X19055D2*
X22376D1*
X24223D2*
X25251D1*
X350Y15576D2*
X1415D1*
X5477D2*
X17251D1*
X17723D2*
X18345D1*
X18926D2*
X22376D1*
X24223D2*
X25251D1*
X350Y15327D2*
X1454D1*
X5438D2*
X14986D1*
X15169D2*
X18134D1*
X19133D2*
X22243D1*
X24356D2*
X25251D1*
X350Y15079D2*
X1685D1*
X2204D2*
X2685D1*
X3204D2*
X3685D1*
X4204D2*
X4685D1*
X5204D2*
X14755D1*
X15403D2*
X18107D1*
X19164D2*
X22239D1*
X24360D2*
X25251D1*
X350Y14830D2*
X14825D1*
X15329D2*
X18208D1*
X19059D2*
X22372D1*
X24227D2*
X25251D1*
X350Y14581D2*
X18353D1*
X18914D2*
X22384D1*
X24219D2*
X25251D1*
X350Y14333D2*
X3146D1*
X3594D2*
X10696D1*
X11082D2*
X16599D1*
X17161D2*
X18138D1*
X19129D2*
X22243D1*
X24356D2*
X25251D1*
X350Y14084D2*
X3044D1*
X3696D2*
X5782D1*
X6356D2*
X10564D1*
X11219D2*
X16564D1*
X17196D2*
X18103D1*
X19164D2*
X22239D1*
X24360D2*
X25251D1*
X350Y13835D2*
X3208D1*
X3532D2*
X5759D1*
X6383D2*
X10685D1*
X11094D2*
X17052D1*
X17633D2*
X18204D1*
X19063D2*
X22368D1*
X24235D2*
X25251D1*
X350Y13587D2*
X9892D1*
X10766D2*
X17032D1*
X17653D2*
X21521D1*
X22079D2*
X22388D1*
X24211D2*
X25251D1*
X350Y13338D2*
X9798D1*
X10860D2*
X21482D1*
X22118D2*
X22246D1*
X24356D2*
X25251D1*
X350Y13089D2*
X6548D1*
X7012D2*
X8107D1*
X8551D2*
X9536D1*
X10821D2*
X17529D1*
X18153D2*
X22239D1*
X24360D2*
X25251D1*
X350Y12841D2*
X6454D1*
X7106D2*
X8001D1*
X8657D2*
X9431D1*
X10594D2*
X12423D1*
X13254D2*
X17552D1*
X18129D2*
X21232D1*
X22110D2*
X22361D1*
X24239D2*
X25251D1*
X350Y12592D2*
X6634D1*
X6926D2*
X8165D1*
X8496D2*
X9595D1*
X9926D2*
X11204D1*
X14176D2*
X15122D1*
X15719D2*
X18122D1*
X18719D2*
X21247D1*
X22063D2*
X22392D1*
X24207D2*
X25251D1*
X350Y12343D2*
X974D1*
X1387D2*
X5431D1*
X5965D2*
X11196D1*
X14184D2*
X15114D1*
X15723D2*
X18114D1*
X18723D2*
X22247D1*
X24352D2*
X25251D1*
X350Y12095D2*
X853D1*
X1508D2*
X5376D1*
X6020D2*
X22239D1*
X24364D2*
X25251D1*
X350Y11846D2*
X993D1*
X1368D2*
X6904D1*
X7215D2*
X22357D1*
X24243D2*
X25251D1*
X350Y11597D2*
X5579D1*
X5985D2*
X6732D1*
X7387D2*
X11345D1*
X13227D2*
X14111D1*
X15762D2*
X16095D1*
X16723D2*
X17892D1*
X18524D2*
X22400D1*
X24204D2*
X25251D1*
X350Y11348D2*
X5454D1*
X6110D2*
X6829D1*
X7289D2*
X8318D1*
X8618D2*
X10294D1*
X10594D2*
X11380D1*
X11938D2*
X12099D1*
X13317D2*
X14025D1*
X15696D2*
X16130D1*
X16688D2*
X17931D1*
X18489D2*
X22247D1*
X24352D2*
X25251D1*
X350Y11100D2*
X5587D1*
X5977D2*
X7716D1*
X8793D2*
X10118D1*
X10770D2*
X12857D1*
X13125D2*
X14216D1*
X14485D2*
X22236D1*
X24364D2*
X25251D1*
X350Y10851D2*
X7728D1*
X8985D2*
X10212D1*
X10676D2*
X20821D1*
X21852D2*
X22353D1*
X24246D2*
X25251D1*
X350Y10602D2*
X8380D1*
X8996D2*
X10247D1*
X10688D2*
X20837D1*
X21793D2*
X22404D1*
X24196D2*
X25251D1*
X350Y10354D2*
X10138D1*
X10793D2*
X19196D1*
X19825D2*
X21134D1*
X21586D2*
X22251D1*
X24352D2*
X25251D1*
X350Y10105D2*
X5036D1*
X5680D2*
X9177D1*
X9821D2*
X10099D1*
X10739D2*
X17165D1*
X18016D2*
X19224D1*
X19793D2*
X22236D1*
X24364D2*
X25251D1*
X350Y9856D2*
X5095D1*
X5621D2*
X8544D1*
X8852D2*
X9236D1*
X9762D2*
X10154D1*
X10735D2*
X17099D1*
X18082D2*
X21536D1*
X22063D2*
X22349D1*
X24250D2*
X25251D1*
X350Y9608D2*
X8372D1*
X9356D2*
X10251D1*
X10907D2*
X17294D1*
X17887D2*
X21478D1*
X22121D2*
X22411D1*
X24192D2*
X25251D1*
X350Y9359D2*
X8470D1*
X9422D2*
X10349D1*
X10809D2*
X21497D1*
X22102D2*
X22250D1*
X24348D2*
X25251D1*
X350Y9110D2*
X9044D1*
X9158D2*
X11493D1*
X12106D2*
X21501D1*
X22098D2*
X22236D1*
X24364D2*
X25251D1*
X350Y8862D2*
X2154D1*
X2786D2*
X6743D1*
X7375D2*
X7970D1*
X8829D2*
X9228D1*
X9649D2*
X11505D1*
X12094D2*
X16271D1*
X16918D2*
X22345D1*
X24254D2*
X25251D1*
X350Y8613D2*
X2193D1*
X2746D2*
X6782D1*
X7336D2*
X7853D1*
X9766D2*
X16337D1*
X16856D2*
X19200D1*
X19797D2*
X22708D1*
X23305D2*
X25251D1*
X350Y8364D2*
X7997D1*
X8364D2*
X8743D1*
X9621D2*
X19196D1*
X19805D2*
X25251D1*
X350Y8116D2*
X7228D1*
X7429D2*
X10364D1*
X10551D2*
X19220D1*
X19715D2*
X25251D1*
X350Y7867D2*
X7005D1*
X7653D2*
X9185D1*
X9680D2*
X10134D1*
X10782D2*
X19142D1*
X19793D2*
X25251D1*
X350Y7618D2*
X3638D1*
X4145D2*
X7079D1*
X7579D2*
X9107D1*
X9758D2*
X10208D1*
X10711D2*
X12696D1*
X13204D2*
X19357D1*
X19573D2*
X25251D1*
X350Y7369D2*
X3325D1*
X4215D2*
X5478D1*
X6086D2*
X6486D1*
X7051D2*
X9329D1*
X9534D2*
X12626D1*
X13743D2*
X25251D1*
X350Y7121D2*
X3294D1*
X3965D2*
X4267D1*
X5196D2*
X5482D1*
X6079D2*
X6454D1*
X7184D2*
X8681D1*
X9317D2*
X12876D1*
X13021D2*
X13146D1*
X13774D2*
X25251D1*
X350Y6872D2*
X2071D1*
X2391D2*
X4150D1*
X5157D2*
X6689D1*
X7344D2*
X7622D1*
X8176D2*
X8724D1*
X9274D2*
X25251D1*
X350Y6623D2*
X1904D1*
X2559D2*
X4298D1*
X4661D2*
X6794D1*
X7243D2*
X7583D1*
X8215D2*
X25251D1*
X350Y6375D2*
X2005D1*
X2457D2*
X3923D1*
X4496D2*
X25251D1*
X350Y6126D2*
X2775D1*
X3329D2*
X3896D1*
X4524D2*
X6454D1*
X7086D2*
X7708D1*
X8090D2*
X10286D1*
X10633D2*
X19157D1*
X19770D2*
X25251D1*
X350Y5877D2*
X2736D1*
X3368D2*
X5556D1*
X6008D2*
X6489D1*
X7047D2*
X7571D1*
X8227D2*
X9208D1*
X9762D2*
X10130D1*
X10786D2*
X19169D1*
X19758D2*
X25251D1*
X350Y5629D2*
X5454D1*
X6110D2*
X7618D1*
X8106D2*
X9169D1*
X9805D2*
X10243D1*
X10676D2*
X12904D1*
X13512D2*
X21232D1*
X21856D2*
X25251D1*
X350Y5380D2*
X5622D1*
X5942D2*
X7462D1*
X8118D2*
X10220D1*
X10618D2*
X12911D1*
X13508D2*
X21255D1*
X21832D2*
X24478D1*
X24731D2*
X25251D1*
X350Y5131D2*
X7568D1*
X8008D2*
X10091D1*
X10746D2*
X24279D1*
X24930D2*
X25251D1*
X350Y4883D2*
X2013D1*
X2454D2*
X6575D1*
X7161D2*
X10224D1*
X10618D2*
X13364D1*
X13954D2*
X24364D1*
X24844D2*
X25251D1*
X350Y4634D2*
X1904D1*
X2559D2*
X6560D1*
X7176D2*
X9185D1*
X9813D2*
X13005D1*
X13969D2*
X18505D1*
X18825D2*
X25251D1*
X350Y4385D2*
X2064D1*
X2403D2*
X9216D1*
X9782D2*
X13036D1*
X13602D2*
X18337D1*
X18993D2*
X19150D1*
X19625D2*
X25251D1*
X350Y4137D2*
X10193D1*
X10727D2*
X18439D1*
X19711D2*
X25251D1*
X350Y3888D2*
X5486D1*
X6079D2*
X10138D1*
X10782D2*
X18837D1*
X19524D2*
X22071D1*
X22282D2*
X25251D1*
X350Y3639D2*
X5474D1*
X6086D2*
X10689D1*
X11301D2*
X13946D1*
X14555D2*
X19290D1*
X19653D2*
X21708D1*
X22641D2*
X25251D1*
X350Y3390D2*
X5665D1*
X5895D2*
X10700D1*
X11789D2*
X13950D1*
X14547D2*
X19142D1*
X19797D2*
X21642D1*
X22707D2*
X23111D1*
X23731D2*
X25251D1*
X350Y3142D2*
X5458D1*
X6106D2*
X7189D1*
X7727D2*
X10927D1*
X12528D2*
X19259D1*
X19684D2*
X21704D1*
X22645D2*
X23134D1*
X23711D2*
X25251D1*
X350Y2893D2*
X5536D1*
X6028D2*
X7138D1*
X7778D2*
X11396D1*
X12579D2*
X22025D1*
X22325D2*
X25251D1*
X350Y2644D2*
X10911D1*
X11446D2*
X13255D1*
X13805D2*
X15443D1*
X15977D2*
X16540D1*
X17098D2*
X17993D1*
X19129D2*
X21712D1*
X22637D2*
X25251D1*
X350Y2396D2*
X10861D1*
X11500D2*
X13212D1*
X13848D2*
X15388D1*
X16028D2*
X16505D1*
X17137D2*
X17939D1*
X19184D2*
X21642D1*
X22707D2*
X25251D1*
X350Y2147D2*
X21700D1*
X22649D2*
X25251D1*
X350Y1898D2*
X513D1*
X1688D2*
X19814D1*
X20989D2*
X22005D1*
X22735D2*
X25251D1*
X1930Y1650D2*
X10388D1*
X10731D2*
X16712D1*
X17348D2*
X19568D1*
X21231D2*
X22134D1*
X23106D2*
X25251D1*
X2055Y1401D2*
X10232D1*
X10887D2*
X16755D1*
X17352D2*
X19446D1*
X21352D2*
X22513D1*
X23153D2*
X25251D1*
X2098Y1152D2*
X10341D1*
X10778D2*
X16771D1*
X17582D2*
X19400D1*
X21399D2*
X25251D1*
X2082Y904D2*
X15532D1*
X16141D2*
X16993D1*
X17629D2*
X19419D1*
X21379D2*
X25251D1*
X1993Y655D2*
X15540D1*
X16133D2*
X19505D1*
X21293D2*
X25251D1*
X1813Y406D2*
X19689D1*
X21114D2*
X25251D1*
X17639Y18636D2*
X17599Y18518D1*
X17533Y18412D1*
X17445Y18323D1*
X17340Y18256D1*
X17223Y18213D1*
X17100Y18197D1*
X16975Y18209D1*
X16857Y18248D1*
X16750Y18312D1*
X16659Y18398D1*
X16590Y18502D1*
X16545Y18618D1*
X16527Y18742D1*
X16537Y18866D1*
X16574Y18985D1*
X16636Y19093D1*
X16721Y19185D1*
X16823Y19256D1*
X16939Y19303D1*
X17062Y19323D1*
X17187Y19315D1*
X17306Y19280D1*
X17416Y19220D1*
X17509Y19137D1*
X17581Y19035D1*
X17630Y18920D1*
X17653Y18760D1*
X17639Y18636D1*
X17679Y21195D2*
X17638Y21077D1*
X17572Y20971D1*
X17485Y20882D1*
X17380Y20815D1*
X17262Y20772D1*
X17139Y20756D1*
X17015Y20768D1*
X16896Y20807D1*
X16789Y20871D1*
X16699Y20957D1*
X16629Y21060D1*
X16585Y21177D1*
X16567Y21300D1*
X16576Y21425D1*
X16613Y21544D1*
X16675Y21652D1*
X16760Y21744D1*
X16862Y21815D1*
X16978Y21861D1*
X17101Y21881D1*
X17226Y21874D1*
X17346Y21839D1*
X17455Y21779D1*
X17548Y21696D1*
X17621Y21594D1*
X17669Y21479D1*
X17692Y21319D1*
X17679Y21195D1*
X23298Y8977D2*
X23260Y8909D1*
X23307Y8771D1*
X23283Y8620D1*
X23211Y8519D1*
X23104Y8455D1*
X22981Y8440D1*
X22862Y8475D1*
X22767Y8554D1*
X22714Y8662D1*
X22662Y8670D1*
X22545Y8715D1*
X22442Y8785D1*
X22358Y8877D1*
X22296Y8985D1*
X22261Y9105D1*
X22253Y9230D1*
X22274Y9352D1*
X22322Y9468D1*
X22395Y9569D1*
X22489Y9651D1*
X22582Y9700D1*
X22545Y9715D1*
X22442Y9785D1*
X22358Y9877D1*
X22296Y9985D1*
X22261Y10105D1*
X22253Y10230D1*
X22274Y10352D1*
X22322Y10468D1*
X22395Y10569D1*
X22489Y10651D1*
X22582Y10700D1*
X22545Y10715D1*
X22442Y10785D1*
X22358Y10877D1*
X22296Y10985D1*
X22261Y11105D1*
X22253Y11230D1*
X22274Y11352D1*
X22322Y11468D1*
X22395Y11569D1*
X22489Y11651D1*
X22582Y11700D1*
X22545Y11715D1*
X22442Y11785D1*
X22358Y11877D1*
X22296Y11985D1*
X22261Y12105D1*
X22253Y12230D1*
X22274Y12352D1*
X22322Y12468D1*
X22395Y12569D1*
X22489Y12651D1*
X22582Y12700D1*
X22545Y12715D1*
X22442Y12785D1*
X22358Y12877D1*
X22296Y12985D1*
X22261Y13105D1*
X22253Y13230D1*
X22274Y13352D1*
X22322Y13468D1*
X22395Y13569D1*
X22489Y13651D1*
X22582Y13700D1*
X22545Y13715D1*
X22442Y13785D1*
X22358Y13877D1*
X22296Y13985D1*
X22261Y14105D1*
X22253Y14230D1*
X22274Y14352D1*
X22322Y14468D1*
X22395Y14569D1*
X22489Y14651D1*
X22582Y14700D1*
X22545Y14715D1*
X22442Y14785D1*
X22358Y14877D1*
X22296Y14985D1*
X22261Y15105D1*
X22253Y15230D1*
X22274Y15352D1*
X22322Y15468D1*
X22395Y15569D1*
X22489Y15651D1*
X22582Y15700D1*
X22545Y15715D1*
X22442Y15785D1*
X22358Y15877D1*
X22296Y15985D1*
X22261Y16105D1*
X22253Y16230D1*
X22274Y16352D1*
X22322Y16468D1*
X22395Y16569D1*
X22489Y16651D1*
X22599Y16709D1*
X22720Y16742D1*
X22844Y16746D1*
X22967Y16722D1*
X23080Y16670D1*
X23180Y16595D1*
X23259Y16499D1*
X23299Y16419D1*
X23322Y16468D1*
X23395Y16569D1*
X23489Y16651D1*
X23599Y16709D1*
X23720Y16742D1*
X23844Y16746D1*
X23967Y16722D1*
X24080Y16670D1*
X24180Y16595D1*
X24259Y16499D1*
X24315Y16387D1*
X24344Y16266D1*
X24348Y16200D1*
X24333Y16076D1*
X24292Y15959D1*
X24224Y15854D1*
X24135Y15767D1*
X24024Y15701D1*
X24080Y15670D1*
X24180Y15595D1*
X24259Y15499D1*
X24315Y15387D1*
X24344Y15266D1*
X24348Y15200D1*
X24333Y15076D1*
X24292Y14959D1*
X24224Y14854D1*
X24135Y14767D1*
X24024Y14701D1*
X24080Y14670D1*
X24180Y14595D1*
X24259Y14499D1*
X24315Y14387D1*
X24344Y14266D1*
X24348Y14200D1*
X24333Y14076D1*
X24292Y13959D1*
X24224Y13854D1*
X24135Y13767D1*
X24024Y13701D1*
X24080Y13670D1*
X24180Y13595D1*
X24259Y13499D1*
X24315Y13387D1*
X24344Y13266D1*
X24348Y13200D1*
X24333Y13076D1*
X24292Y12959D1*
X24224Y12854D1*
X24135Y12767D1*
X24024Y12701D1*
X24080Y12670D1*
X24180Y12595D1*
X24259Y12499D1*
X24315Y12387D1*
X24344Y12266D1*
X24348Y12200D1*
X24333Y12076D1*
X24292Y11959D1*
X24224Y11854D1*
X24135Y11767D1*
X24024Y11701D1*
X24080Y11670D1*
X24180Y11595D1*
X24259Y11499D1*
X24315Y11387D1*
X24344Y11266D1*
X24348Y11200D1*
X24333Y11076D1*
X24292Y10959D1*
X24224Y10854D1*
X24135Y10767D1*
X24024Y10701D1*
X24080Y10670D1*
X24180Y10595D1*
X24259Y10499D1*
X24315Y10387D1*
X24344Y10266D1*
X24348Y10200D1*
X24333Y10076D1*
X24292Y9959D1*
X24224Y9854D1*
X24135Y9767D1*
X24024Y9701D1*
X24080Y9670D1*
X24180Y9595D1*
X24259Y9499D1*
X24315Y9387D1*
X24344Y9266D1*
X24348Y9200D1*
X24333Y9076D1*
X24292Y8959D1*
X24224Y8854D1*
X24135Y8767D1*
X24028Y8702D1*
X23909Y8663D1*
X23785Y8653D1*
X23662Y8670D1*
X23545Y8715D1*
X23442Y8785D1*
X23358Y8877D1*
X23302Y8975D1*
X5438Y15406D2*
X5393Y15290D1*
X5321Y15188D1*
X5227Y15107D1*
X5115Y15051D1*
X4993Y15024D1*
X4869Y15027D1*
X4749Y15061D1*
X4640Y15123D1*
X4551Y15209D1*
X4484Y15315D1*
X4446Y15438D1*
X4393Y15290D1*
X4321Y15188D1*
X4227Y15107D1*
X4115Y15051D1*
X3993Y15024D1*
X3869Y15027D1*
X3749Y15061D1*
X3640Y15123D1*
X3551Y15209D1*
X3484Y15315D1*
X3446Y15438D1*
X3393Y15290D1*
X3321Y15188D1*
X3227Y15107D1*
X3115Y15051D1*
X2993Y15024D1*
X2869Y15027D1*
X2749Y15061D1*
X2640Y15123D1*
X2551Y15209D1*
X2484Y15315D1*
X2446Y15438D1*
X2393Y15290D1*
X2321Y15188D1*
X2227Y15107D1*
X2115Y15051D1*
X1993Y15024D1*
X1869Y15027D1*
X1749Y15061D1*
X1640Y15123D1*
X1551Y15209D1*
X1484Y15315D1*
X1446Y15434D1*
X1438Y15558D1*
X1460Y15681D1*
X1511Y15795D1*
X1588Y15892D1*
X1687Y15968D1*
X1802Y16018D1*
X1925Y16038D1*
X2049Y16028D1*
X2167Y15987D1*
X2272Y15919D1*
X2357Y15828D1*
X2417Y15719D1*
X2444Y15617D1*
X2460Y15681D1*
X2511Y15795D1*
X2588Y15892D1*
X2687Y15968D1*
X2802Y16018D1*
X2925Y16038D1*
X3049Y16028D1*
X3167Y15987D1*
X3272Y15919D1*
X3357Y15828D1*
X3417Y15719D1*
X3444Y15617D1*
X3460Y15681D1*
X3511Y15795D1*
X3588Y15892D1*
X3687Y15968D1*
X3802Y16018D1*
X3925Y16038D1*
X4049Y16028D1*
X4167Y15987D1*
X4272Y15919D1*
X4357Y15828D1*
X4417Y15719D1*
X4444Y15617D1*
X4460Y15681D1*
X4511Y15795D1*
X4588Y15892D1*
X4687Y15968D1*
X4802Y16018D1*
X4925Y16038D1*
X5049Y16028D1*
X5167Y15987D1*
X5272Y15919D1*
X5357Y15828D1*
X5417Y15719D1*
X5449Y15598D1*
X5453Y15530D1*
X5438Y15406D1*
X20473Y21466D2*
X20428Y21350D1*
X20357Y21248D1*
X20262Y21167D1*
X20151Y21111D1*
X20063Y21092D1*
X20203Y21047D1*
X20307Y20980D1*
X20392Y20888D1*
X20452Y20779D1*
X20484Y20659D1*
X20489Y20590D1*
X20473Y20466D1*
X20428Y20350D1*
X20357Y20248D1*
X20262Y20167D1*
X20151Y20111D1*
X20029Y20084D1*
X19904Y20088D1*
X19784Y20121D1*
X19676Y20183D1*
X19586Y20270D1*
X19520Y20375D1*
X19481Y20494D1*
X19473Y20618D1*
X19495Y20741D1*
X19546Y20855D1*
X19624Y20952D1*
X19723Y21028D1*
X19837Y21078D1*
X19903Y21089D1*
X19784Y21121D1*
X19676Y21183D1*
X19586Y21270D1*
X19520Y21375D1*
X19481Y21494D1*
X19473Y21618D1*
X19495Y21741D1*
X19546Y21855D1*
X19624Y21952D1*
X19723Y22028D1*
X19837Y22078D1*
X19960Y22098D1*
X20085Y22088D1*
X20203Y22047D1*
X20307Y21980D1*
X20392Y21888D1*
X20452Y21779D1*
X20484Y21659D1*
X20489Y21590D1*
X20473Y21466D1*
X22668Y2262D2*
X22623Y2146D1*
X22548Y2041D1*
X22624Y2001D1*
X22705Y1907D1*
X22743Y1763D1*
X22780Y1772D1*
X22904Y1769D1*
X23016Y1715D1*
X23098Y1621D1*
X23136Y1474D1*
X23111Y1353D1*
X23039Y1251D1*
X22932Y1188D1*
X22809Y1172D1*
X22690Y1207D1*
X22595Y1287D1*
X22540Y1398D1*
X22536Y1472D1*
X22416Y1458D1*
X22297Y1493D1*
X22202Y1573D1*
X22147Y1684D1*
X22141Y1808D1*
X22167Y1877D1*
X22098Y1883D1*
X21978Y1917D1*
X21870Y1979D1*
X21780Y2065D1*
X21714Y2171D1*
X21676Y2290D1*
X21667Y2414D1*
X21689Y2537D1*
X21741Y2650D1*
X21818Y2748D1*
X21917Y2824D1*
X22032Y2874D1*
X22097Y2884D1*
X21978Y2917D1*
X21870Y2979D1*
X21780Y3065D1*
X21714Y3171D1*
X21676Y3290D1*
X21667Y3414D1*
X21689Y3537D1*
X21741Y3650D1*
X21818Y3748D1*
X21917Y3824D1*
X22032Y3874D1*
X22155Y3894D1*
X22279Y3883D1*
X22397Y3843D1*
X22501Y3775D1*
X22586Y3684D1*
X22647Y3575D1*
X22678Y3454D1*
X22683Y3386D1*
X22668Y3262D1*
X22623Y3146D1*
X22551Y3044D1*
X22456Y2963D1*
X22345Y2907D1*
X22257Y2887D1*
X22397Y2843D1*
X22501Y2775D1*
X22586Y2684D1*
X22647Y2575D1*
X22678Y2454D1*
X22683Y2386D1*
X22668Y2262D1*
X12973Y21436D2*
X12928Y21320D1*
X12856Y21218D1*
X12762Y21137D1*
X12650Y21081D1*
X12563Y21062D1*
X12702Y21017D1*
X12807Y20949D1*
X12892Y20858D1*
X12952Y20749D1*
X12984Y20628D1*
X12988Y20560D1*
X12973Y20436D1*
X12928Y20320D1*
X12856Y20218D1*
X12762Y20137D1*
X12650Y20081D1*
X12528Y20054D1*
X12404Y20057D1*
X12284Y20091D1*
X12175Y20153D1*
X12086Y20239D1*
X12019Y20345D1*
X11981Y20464D1*
X11973Y20588D1*
X11995Y20711D1*
X12046Y20825D1*
X12123Y20922D1*
X12222Y20998D1*
X12337Y21048D1*
X12402Y21058D1*
X12284Y21091D1*
X12175Y21153D1*
X12086Y21239D1*
X12019Y21345D1*
X11981Y21464D1*
X11973Y21588D1*
X11995Y21711D1*
X12046Y21825D1*
X12123Y21922D1*
X12222Y21998D1*
X12337Y22048D1*
X12460Y22068D1*
X12584Y22058D1*
X12702Y22017D1*
X12807Y21949D1*
X12892Y21858D1*
X12952Y21749D1*
X12984Y21628D1*
X12988Y21560D1*
X12973Y21436D1*
X19127Y14019D2*
X19082Y13903D1*
X19010Y13801D1*
X18915Y13720D1*
X18804Y13664D1*
X18682Y13637D1*
X18558Y13640D1*
X18438Y13674D1*
X18329Y13736D1*
X18239Y13822D1*
X18173Y13928D1*
X18135Y14047D1*
X18126Y14171D1*
X18149Y14294D1*
X18200Y14407D1*
X18277Y14505D1*
X18376Y14581D1*
X18491Y14631D1*
X18556Y14641D1*
X18438Y14674D1*
X18329Y14736D1*
X18239Y14822D1*
X18173Y14928D1*
X18135Y15047D1*
X18126Y15171D1*
X18149Y15294D1*
X18200Y15407D1*
X18277Y15505D1*
X18376Y15581D1*
X18491Y15631D1*
X18556Y15641D1*
X18438Y15674D1*
X18329Y15736D1*
X18239Y15822D1*
X18173Y15928D1*
X18135Y16047D1*
X18126Y16171D1*
X18149Y16294D1*
X18200Y16407D1*
X18277Y16505D1*
X18376Y16581D1*
X18491Y16631D1*
X18556Y16641D1*
X18438Y16674D1*
X18329Y16736D1*
X18239Y16822D1*
X18173Y16928D1*
X18135Y17047D1*
X18126Y17171D1*
X18149Y17294D1*
X18200Y17407D1*
X18277Y17505D1*
X18376Y17581D1*
X18491Y17631D1*
X18556Y17641D1*
X18438Y17674D1*
X18329Y17736D1*
X18239Y17822D1*
X18173Y17928D1*
X18135Y18047D1*
X18126Y18171D1*
X18149Y18294D1*
X18200Y18407D1*
X18277Y18505D1*
X18376Y18581D1*
X18491Y18631D1*
X18614Y18651D1*
X18738Y18640D1*
X18856Y18600D1*
X18961Y18532D1*
X19046Y18441D1*
X19106Y18332D1*
X19138Y18211D1*
X19142Y18143D1*
X19127Y18019D1*
X19082Y17903D1*
X19010Y17801D1*
X18915Y17720D1*
X18804Y17664D1*
X18716Y17644D1*
X18856Y17600D1*
X18961Y17532D1*
X19046Y17441D1*
X19106Y17332D1*
X19138Y17211D1*
X19142Y17143D1*
X19127Y17019D1*
X19082Y16903D1*
X19010Y16801D1*
X18915Y16720D1*
X18804Y16664D1*
X18716Y16644D1*
X18856Y16600D1*
X18961Y16532D1*
X19046Y16441D1*
X19106Y16332D1*
X19138Y16211D1*
X19142Y16143D1*
X19127Y16019D1*
X19082Y15903D1*
X19010Y15801D1*
X18915Y15720D1*
X18804Y15664D1*
X18716Y15644D1*
X18856Y15600D1*
X18961Y15532D1*
X19046Y15441D1*
X19106Y15332D1*
X19138Y15211D1*
X19142Y15143D1*
X19127Y15019D1*
X19082Y14903D1*
X19010Y14801D1*
X18915Y14720D1*
X18804Y14664D1*
X18716Y14644D1*
X18856Y14600D1*
X18961Y14532D1*
X19046Y14441D1*
X19106Y14332D1*
X19138Y14211D1*
X19142Y14143D1*
X19127Y14019D1*
X10838Y13265D2*
X10816Y13142D1*
X10766Y13028D1*
X10689Y12930D1*
X10590Y12853D1*
X10476Y12803D1*
X10353Y12782D1*
X10229Y12792D1*
X10111Y12831D1*
X10062Y12858D1*
X10038Y12739D1*
X9966Y12637D1*
X9859Y12574D1*
X9736Y12558D1*
X9617Y12593D1*
X9522Y12673D1*
X9467Y12784D1*
X9461Y12908D1*
X9505Y13024D1*
X9592Y13112D1*
X9707Y13158D1*
X9842Y13149D1*
X9824Y13243D1*
X9828Y13368D1*
X9862Y13488D1*
X9924Y13596D1*
X10011Y13685D1*
X10117Y13751D1*
X10235Y13789D1*
X10360Y13797D1*
X10482Y13775D1*
X10596Y13723D1*
X10693Y13645D1*
X10769Y13546D1*
X10818Y13432D1*
X10838Y13309D1*
Y13265D1*
X14334Y16924D2*
X14247Y16880D1*
X14125Y16853D1*
X14000Y16857D1*
X13880Y16890D1*
X13772Y16952D1*
X13682Y17039D1*
X13616Y17144D1*
X13577Y17263D1*
X13569Y17387D1*
X13591Y17510D1*
X13642Y17624D1*
X13720Y17721D1*
X13819Y17797D1*
X13933Y17847D1*
X14056Y17867D1*
X14181Y17857D1*
X14299Y17816D1*
X14403Y17749D1*
X14488Y17657D1*
X14548Y17548D1*
X14575Y17446D1*
X14591Y17510D1*
X14642Y17624D1*
X14720Y17721D1*
X14819Y17797D1*
X14933Y17847D1*
X15056Y17867D1*
X15181Y17857D1*
X15299Y17816D1*
X15403Y17749D1*
X15488Y17657D1*
X15548Y17548D1*
X15580Y17428D1*
X15585Y17359D1*
X15569Y17235D1*
X15525Y17119D1*
X15453Y17017D1*
X15358Y16936D1*
X15247Y16880D1*
X15125Y16853D1*
X15000Y16857D1*
X14936Y16875D1*
X14913Y16794D1*
X14841Y16693D1*
X14735Y16629D1*
X14612Y16613D1*
X14493Y16648D1*
X14398Y16728D1*
X14342Y16839D1*
X14339Y16920D1*
X23499Y22888D2*
X23453Y22760D1*
X23382Y22658D1*
X23288Y22575D1*
X23177Y22519D1*
X23105Y22502D1*
X23202Y22472D1*
X23310Y22409D1*
X23399Y22322D1*
X23465Y22216D1*
X23500Y22109D1*
X23553Y22252D1*
X23627Y22352D1*
X23723Y22432D1*
X23836Y22486D1*
X23882Y22501D1*
X23765Y22544D1*
X23662Y22614D1*
X23579Y22707D1*
X23521Y22817D1*
X23500Y22885D1*
X22890Y22503D2*
X22810Y22523D1*
X22701Y22583D1*
X22609Y22668D1*
X22541Y22772D1*
X22499Y22889D1*
X22487Y23013D1*
X22506Y23137D1*
X22553Y23252D1*
X22627Y23352D1*
X22723Y23432D1*
X22836Y23486D1*
X22958Y23511D1*
X23082Y23506D1*
X23202Y23472D1*
X23310Y23409D1*
X23399Y23322D1*
X23465Y23216D1*
X23500Y23109D1*
X23531Y23207D1*
X23595Y23314D1*
X23682Y23403D1*
X23789Y23468D1*
X23908Y23505D1*
X24033Y23512D1*
X24155Y23489D1*
X24268Y23437D1*
X24366Y23359D1*
X24442Y23261D1*
X24492Y23146D1*
X24512Y23023D1*
X24503Y22901D1*
X24464Y22782D1*
X24398Y22677D1*
X24308Y22590D1*
X24200Y22528D1*
X24113Y22500D1*
X24202Y22472D1*
X24310Y22409D1*
X24399Y22322D1*
X24465Y22216D1*
X24504Y22098D1*
X24513Y22000D1*
X24498Y21876D1*
X24453Y21760D1*
X24382Y21658D1*
X24285Y21574D1*
X24303Y21463D1*
X24294Y21421D1*
X24399Y21322D1*
X24465Y21216D1*
X24504Y21098D1*
X24513Y21000D1*
X24498Y20876D1*
X24453Y20760D1*
X24382Y20658D1*
X24288Y20575D1*
X24177Y20519D1*
X24105Y20502D1*
X24202Y20472D1*
X24310Y20409D1*
X24399Y20322D1*
X24465Y20216D1*
X24504Y20098D1*
X24513Y20000D1*
X24498Y19876D1*
X24453Y19760D1*
X24382Y19658D1*
X24288Y19575D1*
X24177Y19519D1*
X24105Y19502D1*
X24202Y19472D1*
X24310Y19409D1*
X24399Y19322D1*
X24465Y19216D1*
X24504Y19098D1*
X24513Y19000D1*
X24498Y18876D1*
X24453Y18760D1*
X24382Y18658D1*
X24288Y18575D1*
X24177Y18519D1*
X24056Y18490D1*
X23931Y18492D1*
X23810Y18523D1*
X23701Y18583D1*
X23609Y18668D1*
X23541Y18772D1*
X23498Y18876D1*
X23453Y18760D1*
X23382Y18658D1*
X23288Y18575D1*
X23177Y18519D1*
X23056Y18490D1*
X22931Y18492D1*
X22810Y18523D1*
X22701Y18583D1*
X22609Y18668D1*
X22541Y18772D1*
X22499Y18889D1*
X22487Y19013D1*
X22506Y19137D1*
X22553Y19252D1*
X22627Y19352D1*
X22723Y19432D1*
X22836Y19486D1*
X22893Y19498D1*
X22810Y19523D1*
X22701Y19583D1*
X22609Y19668D1*
X22541Y19772D1*
X22499Y19889D1*
X22487Y20013D1*
X22506Y20137D1*
X22553Y20252D1*
X22627Y20352D1*
X22723Y20432D1*
X22836Y20486D1*
X22893Y20498D1*
X22810Y20523D1*
X22701Y20583D1*
X22609Y20668D1*
X22532Y20797D1*
X22516Y20777D1*
X22409Y20714D1*
X22286Y20698D1*
X22167Y20733D1*
X22072Y20813D1*
X22017Y20924D1*
X22011Y21048D1*
X22055Y21164D1*
X22142Y21252D1*
X22257Y21298D1*
X22381Y21294D1*
X22494Y21241D1*
X22527Y21203D1*
X22627Y21352D1*
X22723Y21432D1*
X22836Y21486D1*
X22893Y21498D1*
X22810Y21523D1*
X22701Y21583D1*
X22609Y21668D1*
X22541Y21772D1*
X22499Y21889D1*
X22487Y22013D1*
X22506Y22137D1*
X22553Y22252D1*
X22627Y22352D1*
X22723Y22432D1*
X22836Y22486D1*
X22893Y22498D1*
X23718Y21574D2*
X23609Y21668D1*
X23541Y21772D1*
X23498Y21876D1*
X23453Y21760D1*
X23382Y21658D1*
X23288Y21575D1*
X23177Y21519D1*
X23105Y21502D1*
X23202Y21472D1*
X23310Y21409D1*
X23399Y21322D1*
X23465Y21216D1*
X23500Y21109D1*
X23553Y21252D1*
X23627Y21352D1*
X23702Y21414D1*
X23701Y21511D1*
X23722Y21565D1*
X23890Y20503D2*
X23810Y20523D1*
X23701Y20583D1*
X23609Y20668D1*
X23541Y20772D1*
X23498Y20876D1*
X23453Y20760D1*
X23382Y20658D1*
X23288Y20575D1*
X23177Y20519D1*
X23105Y20502D1*
X23202Y20472D1*
X23310Y20409D1*
X23399Y20322D1*
X23465Y20216D1*
X23500Y20109D1*
X23553Y20252D1*
X23627Y20352D1*
X23723Y20432D1*
X23836Y20486D1*
X23893Y20498D1*
X23890Y19503D2*
X23810Y19523D1*
X23701Y19583D1*
X23609Y19668D1*
X23541Y19772D1*
X23498Y19876D1*
X23453Y19760D1*
X23382Y19658D1*
X23288Y19575D1*
X23177Y19519D1*
X23105Y19502D1*
X23202Y19472D1*
X23310Y19409D1*
X23399Y19322D1*
X23465Y19216D1*
X23500Y19109D1*
X23553Y19252D1*
X23627Y19352D1*
X23723Y19432D1*
X23836Y19486D1*
X23893Y19498D1*
X2068Y975D2*
X2044Y853D1*
X2005Y734D1*
X1951Y622D1*
X1883Y517D1*
X1802Y422D1*
X1694Y326D1*
X9825Y325D1*
X19805D1*
X19659Y464D1*
X19584Y564D1*
X19522Y673D1*
X19475Y788D1*
X19443Y909D1*
X19426Y1033D1*
X19425Y1158D1*
X19441Y1282D1*
X19472Y1403D1*
X19518Y1519D1*
X19579Y1628D1*
X19653Y1729D1*
X19739Y1819D1*
X19836Y1897D1*
X19943Y1963D1*
X20057Y2014D1*
X20176Y2050D1*
X20299Y2071D1*
X20424Y2076D1*
X20549Y2065D1*
X20671Y2038D1*
X20788Y1996D1*
X20899Y1939D1*
X21002Y1868D1*
X21096Y1785D1*
X21177Y1691D1*
X21246Y1587D1*
X21302Y1475D1*
X21342Y1356D1*
X21367Y1234D1*
X21376Y1100D1*
X21368Y975D1*
X21344Y853D1*
X21305Y734D1*
X21251Y622D1*
X21183Y517D1*
X21102Y422D1*
X20994Y326D1*
X25275Y325D1*
Y25275D1*
X20654D1*
X20806Y25224D1*
X20917Y25167D1*
X21020Y25096D1*
X21113Y25013D1*
X21195Y24919D1*
X21264Y24815D1*
X21319Y24702D1*
X21360Y24584D1*
X21385Y24462D1*
X21394Y24328D1*
X21386Y24203D1*
X21362Y24081D1*
X21323Y23962D1*
X21269Y23850D1*
X21201Y23745D1*
X21120Y23650D1*
X21027Y23566D1*
X20925Y23494D1*
X20814Y23436D1*
X20697Y23393D1*
X20575Y23365D1*
X20451Y23352D1*
X20326Y23356D1*
X20203Y23376D1*
X20083Y23411D1*
X19969Y23461D1*
X19862Y23525D1*
X19764Y23603D1*
X19677Y23692D1*
X19601Y23792D1*
X19540Y23901D1*
X19492Y24016D1*
X19460Y24137D1*
X19444Y24261D1*
X19443Y24386D1*
X19458Y24510D1*
X19489Y24631D1*
X19536Y24747D1*
X19596Y24856D1*
X19670Y24956D1*
X19757Y25047D1*
X19854Y25125D1*
X19960Y25191D1*
X20074Y25242D1*
X20183Y25275D1*
X1693D1*
X1796Y25185D1*
X1877Y25091D1*
X1946Y24987D1*
X2002Y24875D1*
X2042Y24756D1*
X2067Y24634D1*
X2076Y24500D1*
X2068Y24375D1*
X2044Y24253D1*
X2005Y24134D1*
X1951Y24022D1*
X1883Y23917D1*
X1802Y23822D1*
X1710Y23738D1*
X1607Y23666D1*
X1497Y23608D1*
X1380Y23565D1*
X1258Y23537D1*
X1134Y23524D1*
X1009Y23528D1*
X885Y23548D1*
X766Y23583D1*
X651Y23633D1*
X544Y23697D1*
X446Y23775D1*
X324Y23911D1*
X325Y12275D1*
Y1693D1*
X439Y1819D1*
X536Y1897D1*
X643Y1963D1*
X757Y2014D1*
X876Y2050D1*
X999Y2071D1*
X1124Y2076D1*
X1249Y2065D1*
X1371Y2038D1*
X1488Y1996D1*
X1599Y1939D1*
X1702Y1868D1*
X1796Y1785D1*
X1877Y1691D1*
X1946Y1587D1*
X2002Y1475D1*
X2042Y1356D1*
X2067Y1234D1*
X2076Y1100D1*
X2068Y975D1*
X12186Y12345D2*
X12114Y12244D1*
X12007Y12180D1*
X11884Y12165D1*
X11765Y12200D1*
X11714Y12242D1*
X11599Y12174D1*
X11476Y12158D1*
X11357Y12193D1*
X11262Y12273D1*
X11207Y12384D1*
X11201Y12508D1*
X11245Y12624D1*
X11332Y12712D1*
X11447Y12758D1*
X11571Y12754D1*
X11684Y12701D1*
X11696Y12686D1*
X11740Y12719D1*
X11855Y12765D1*
X11979Y12761D1*
X12091Y12708D1*
X12173Y12614D1*
X12211Y12467D1*
X12186Y12345D1*
X6059Y7130D2*
X5987Y7029D1*
X5881Y6965D1*
X5758Y6949D1*
X5639Y6984D1*
X5543Y7064D1*
X5488Y7175D1*
X5482Y7299D1*
X5527Y7415D1*
X5614Y7504D1*
X5729Y7550D1*
X5853Y7546D1*
X5965Y7492D1*
X6046Y7399D1*
X6085Y7251D1*
X6059Y7130D1*
Y5530D2*
X5987Y5429D1*
X5881Y5365D1*
X5758Y5349D1*
X5639Y5384D1*
X5543Y5464D1*
X5488Y5575D1*
X5482Y5699D1*
X5527Y5815D1*
X5614Y5904D1*
X5729Y5950D1*
X5853Y5946D1*
X5965Y5892D1*
X6046Y5799D1*
X6085Y5651D1*
X6059Y5530D1*
Y3630D2*
X5987Y3529D1*
X5881Y3465D1*
X5758Y3449D1*
X5639Y3484D1*
X5543Y3564D1*
X5488Y3675D1*
X5482Y3799D1*
X5527Y3915D1*
X5614Y4004D1*
X5729Y4050D1*
X5853Y4046D1*
X5965Y3992D1*
X6046Y3899D1*
X6085Y3751D1*
X6059Y3630D1*
Y11230D2*
X5987Y11129D1*
X5881Y11065D1*
X5758Y11049D1*
X5639Y11084D1*
X5543Y11164D1*
X5488Y11275D1*
X5482Y11399D1*
X5527Y11515D1*
X5614Y11604D1*
X5729Y11650D1*
X5853Y11646D1*
X5965Y11592D1*
X6046Y11499D1*
X6085Y11351D1*
X6059Y11230D1*
Y2980D2*
X5987Y2879D1*
X5881Y2815D1*
X5758Y2799D1*
X5639Y2834D1*
X5543Y2914D1*
X5488Y3025D1*
X5482Y3149D1*
X5527Y3265D1*
X5614Y3354D1*
X5729Y3400D1*
X5853Y3396D1*
X5965Y3342D1*
X6046Y3249D1*
X6085Y3101D1*
X6059Y2980D1*
X2509Y4530D2*
X2437Y4429D1*
X2331Y4365D1*
X2208Y4349D1*
X2089Y4384D1*
X1993Y4464D1*
X1938Y4575D1*
X1932Y4699D1*
X1977Y4815D1*
X2064Y4904D1*
X2179Y4950D1*
X2303Y4946D1*
X2415Y4892D1*
X2496Y4799D1*
X2535Y4651D1*
X2509Y4530D1*
Y6480D2*
X2437Y6379D1*
X2331Y6315D1*
X2208Y6299D1*
X2089Y6334D1*
X1993Y6414D1*
X1938Y6525D1*
X1932Y6649D1*
X1977Y6765D1*
X2064Y6854D1*
X2179Y6900D1*
X2303Y6896D1*
X2415Y6842D1*
X2496Y6749D1*
X2535Y6601D1*
X2509Y6480D1*
X19787Y10141D2*
X19715Y10040D1*
X19608Y9976D1*
X19485Y9960D1*
X19366Y9995D1*
X19271Y10075D1*
X19216Y10186D1*
X19210Y10310D1*
X19254Y10426D1*
X19341Y10515D1*
X19457Y10561D1*
X19581Y10557D1*
X19693Y10503D1*
X19774Y10410D1*
X19812Y10262D1*
X19787Y10141D1*
X12657Y11387D2*
X12585Y11286D1*
X12478Y11222D1*
X12355Y11206D1*
X12236Y11241D1*
X12141Y11321D1*
X12086Y11432D1*
X12080Y11556D1*
X12124Y11672D1*
X12212Y11761D1*
X12327Y11807D1*
X12451Y11803D1*
X12563Y11749D1*
X12644Y11656D1*
X12682Y11508D1*
X12657Y11387D1*
X11937Y11391D2*
X11865Y11290D1*
X11758Y11226D1*
X11635Y11210D1*
X11516Y11245D1*
X11421Y11325D1*
X11366Y11436D1*
X11360Y11560D1*
X11404Y11676D1*
X11491Y11765D1*
X11607Y11811D1*
X11731Y11807D1*
X11843Y11753D1*
X11924Y11660D1*
X11962Y11512D1*
X11937Y11391D1*
X19745Y7788D2*
X19673Y7687D1*
X19566Y7623D1*
X19443Y7607D1*
X19324Y7642D1*
X19229Y7722D1*
X19174Y7833D1*
X19168Y7957D1*
X19212Y8073D1*
X19299Y8162D1*
X19389Y8198D1*
X19261Y8295D1*
X19206Y8406D1*
X19200Y8530D1*
X19244Y8646D1*
X19331Y8735D1*
X19447Y8781D1*
X19571Y8777D1*
X19683Y8723D1*
X19764Y8630D1*
X19802Y8482D1*
X19777Y8361D1*
X19705Y8260D1*
X19598Y8196D1*
X19571Y8193D1*
X19650Y8150D1*
X19732Y8057D1*
X19770Y7909D1*
X19745Y7788D1*
X19741Y5891D2*
X19669Y5790D1*
X19563Y5726D1*
X19440Y5710D1*
X19321Y5745D1*
X19226Y5825D1*
X19171Y5936D1*
X19165Y6060D1*
X19209Y6176D1*
X19296Y6265D1*
X19411Y6311D1*
X19535Y6307D1*
X19647Y6253D1*
X19729Y6160D1*
X19767Y6012D1*
X19741Y5891D1*
X19748Y3259D2*
X19676Y3157D1*
X19569Y3094D1*
X19446Y3078D1*
X19327Y3113D1*
X19232Y3193D1*
X19177Y3304D1*
X19171Y3428D1*
X19215Y3544D1*
X19302Y3632D1*
X19417Y3678D1*
X19541Y3674D1*
X19654Y3621D1*
X19735Y3527D1*
X19773Y3380D1*
X19748Y3259D1*
X18560Y2451D2*
X18537Y2341D1*
X18465Y2240D1*
X18358Y2176D1*
X18235Y2160D1*
X18116Y2195D1*
X18021Y2275D1*
X17966Y2386D1*
X17960Y2510D1*
X18004Y2626D1*
X18091Y2715D1*
X18207Y2761D1*
X18331Y2757D1*
X18443Y2703D1*
X18524Y2610D1*
X18561Y2481D1*
X18608Y2624D1*
X18696Y2712D1*
X18811Y2758D1*
X18935Y2754D1*
X19047Y2701D1*
X19128Y2607D1*
X19166Y2460D1*
X19141Y2339D1*
X19069Y2237D1*
X18962Y2174D1*
X18839Y2158D1*
X18720Y2193D1*
X18625Y2273D1*
X18570Y2384D1*
X18564Y2508D1*
X15987Y2341D2*
X15915Y2240D1*
X15808Y2176D1*
X15685Y2160D1*
X15566Y2195D1*
X15471Y2275D1*
X15416Y2386D1*
X15410Y2510D1*
X15454Y2626D1*
X15541Y2715D1*
X15657Y2761D1*
X15781Y2757D1*
X15893Y2703D1*
X15974Y2610D1*
X16012Y2462D1*
X15987Y2341D1*
X13808Y2351D2*
X13736Y2250D1*
X13629Y2186D1*
X13506Y2171D1*
X13387Y2206D1*
X13292Y2285D1*
X13237Y2397D1*
X13231Y2521D1*
X13275Y2637D1*
X13362Y2725D1*
X13477Y2771D1*
X13602Y2767D1*
X13714Y2714D1*
X13795Y2620D1*
X13833Y2473D1*
X13808Y2351D1*
X11458Y2341D2*
X11386Y2240D1*
X11279Y2176D1*
X11156Y2160D1*
X11037Y2195D1*
X10942Y2275D1*
X10887Y2386D1*
X10881Y2510D1*
X10925Y2626D1*
X11012Y2715D1*
X11127Y2761D1*
X11252Y2757D1*
X11364Y2703D1*
X11445Y2610D1*
X11483Y2462D1*
X11458Y2341D1*
X10737Y5741D2*
X10665Y5640D1*
X10558Y5576D1*
X10435Y5560D1*
X10316Y5595D1*
X10221Y5675D1*
X10166Y5786D1*
X10160Y5910D1*
X10204Y6026D1*
X10291Y6115D1*
X10407Y6161D1*
X10531Y6157D1*
X10643Y6103D1*
X10724Y6010D1*
X10762Y5862D1*
X10737Y5741D1*
Y7699D2*
X10665Y7598D1*
X10558Y7534D1*
X10435Y7519D1*
X10316Y7554D1*
X10221Y7633D1*
X10166Y7744D1*
X10160Y7868D1*
X10204Y7984D1*
X10291Y8073D1*
X10407Y8119D1*
X10531Y8115D1*
X10643Y8062D1*
X10724Y7968D1*
X10762Y7821D1*
X10737Y7699D1*
X10745Y10248D2*
X10693Y10175D1*
X10722Y10042D1*
X10697Y9921D1*
X10663Y9873D1*
X10763Y9823D1*
X10844Y9730D1*
X10882Y9582D1*
X10857Y9461D1*
X10785Y9360D1*
X10678Y9296D1*
X10555Y9280D1*
X10436Y9315D1*
X10341Y9395D1*
X10286Y9506D1*
X10280Y9630D1*
X10332Y9754D1*
X10276Y9775D1*
X10181Y9855D1*
X10126Y9966D1*
X10120Y10090D1*
X10164Y10206D1*
X10194Y10237D1*
X10174Y10294D1*
X10168Y10418D1*
X10212Y10533D1*
X10299Y10622D1*
X10415Y10668D1*
X10539Y10664D1*
X10651Y10611D1*
X10732Y10517D1*
X10770Y10370D1*
X10745Y10248D1*
X16687Y11391D2*
X16615Y11290D1*
X16508Y11226D1*
X16385Y11210D1*
X16266Y11245D1*
X16171Y11325D1*
X16116Y11436D1*
X16110Y11560D1*
X16154Y11676D1*
X16241Y11765D1*
X16357Y11811D1*
X16481Y11807D1*
X16593Y11753D1*
X16674Y11660D1*
X16712Y11512D1*
X16687Y11391D1*
X15087D2*
X15015Y11290D1*
X14908Y11226D1*
X14785Y11210D1*
X14666Y11245D1*
X14633Y11273D1*
X14555Y11160D1*
X14448Y11096D1*
X14325Y11080D1*
X14206Y11115D1*
X14111Y11195D1*
X14056Y11306D1*
X14050Y11430D1*
X14094Y11546D1*
X14181Y11635D1*
X14297Y11681D1*
X14421Y11677D1*
X14529Y11625D1*
X14554Y11676D1*
X14641Y11765D1*
X14757Y11811D1*
X14881Y11807D1*
X14993Y11753D1*
X15074Y11660D1*
X15112Y11512D1*
X15087Y11391D1*
X24882Y4974D2*
X24810Y4872D1*
X24704Y4809D1*
X24581Y4793D1*
X24462Y4828D1*
X24367Y4908D1*
X24311Y5019D1*
X24306Y5143D1*
X24350Y5259D1*
X24437Y5347D1*
X24552Y5393D1*
X24676Y5390D1*
X24788Y5336D1*
X24869Y5242D1*
X24908Y5095D1*
X24882Y4974D1*
X23699Y3169D2*
X23627Y3068D1*
X23521Y3004D1*
X23397Y2988D1*
X23278Y3023D1*
X23183Y3103D1*
X23128Y3214D1*
X23122Y3338D1*
X23167Y3454D1*
X23254Y3542D1*
X23369Y3589D1*
X23493Y3585D1*
X23605Y3531D1*
X23686Y3437D1*
X23724Y3290D1*
X23699Y3169D1*
X19017Y19210D2*
X18945Y19109D1*
X18839Y19045D1*
X18716Y19030D1*
X18597Y19065D1*
X18502Y19145D1*
X18446Y19256D1*
X18441Y19380D1*
X18485Y19496D1*
X18572Y19584D1*
X18687Y19630D1*
X18811Y19626D1*
X18923Y19573D1*
X19005Y19479D1*
X19043Y19332D1*
X19017Y19210D1*
X18140Y21917D2*
X18068Y21816D1*
X17961Y21752D1*
X17838Y21736D1*
X17719Y21771D1*
X17624Y21851D1*
X17569Y21962D1*
X17563Y22086D1*
X17607Y22202D1*
X17695Y22291D1*
X17810Y22337D1*
X17934Y22333D1*
X18046Y22279D1*
X18127Y22186D1*
X18165Y22038D1*
X18140Y21917D1*
X17620Y13567D2*
X17548Y13466D1*
X17441Y13402D1*
X17318Y13386D1*
X17199Y13421D1*
X17104Y13501D1*
X17049Y13612D1*
X17043Y13736D1*
X17087Y13852D1*
X17175Y13941D1*
X17290Y13987D1*
X17414Y13983D1*
X17526Y13929D1*
X17607Y13836D1*
X17645Y13688D1*
X17620Y13567D1*
X1458Y11979D2*
X1386Y11878D1*
X1280Y11814D1*
X1157Y11799D1*
X1038Y11834D1*
X943Y11913D1*
X887Y12025D1*
X882Y12149D1*
X926Y12265D1*
X1013Y12353D1*
X1128Y12399D1*
X1252Y12395D1*
X1364Y12342D1*
X1446Y12248D1*
X1484Y12101D1*
X1458Y11979D1*
X2158Y20129D2*
X2086Y20027D1*
X1979Y19964D1*
X1856Y19948D1*
X1737Y19983D1*
X1642Y20063D1*
X1587Y20174D1*
X1581Y20298D1*
X1625Y20414D1*
X1712Y20502D1*
X1827Y20548D1*
X1951Y20544D1*
X2064Y20491D1*
X2145Y20397D1*
X2183Y20250D1*
X2158Y20129D1*
X21948Y19969D2*
X21876Y19867D1*
X21769Y19804D1*
X21646Y19788D1*
X21527Y19823D1*
X21432Y19903D1*
X21377Y20014D1*
X21371Y20138D1*
X21415Y20254D1*
X21502Y20342D1*
X21617Y20388D1*
X21741Y20384D1*
X21854Y20331D1*
X21935Y20237D1*
X21973Y20090D1*
X21948Y19969D1*
X17765Y15671D2*
X17693Y15570D1*
X17587Y15506D1*
X17464Y15490D1*
X17345Y15525D1*
X17250Y15605D1*
X17195Y15716D1*
X17189Y15840D1*
X17233Y15956D1*
X17320Y16045D1*
X17435Y16091D1*
X17559Y16087D1*
X17671Y16034D1*
X17753Y15940D1*
X17791Y15793D1*
X17765Y15671D1*
X18698Y12339D2*
X18626Y12237D1*
X18519Y12174D1*
X18396Y12158D1*
X18277Y12193D1*
X18182Y12273D1*
X18127Y12384D1*
X18121Y12508D1*
X18165Y12624D1*
X18252Y12712D1*
X18367Y12758D1*
X18491Y12754D1*
X18604Y12701D1*
X18685Y12607D1*
X18723Y12460D1*
X18698Y12339D1*
X16740Y16246D2*
X16668Y16145D1*
X16562Y16081D1*
X16439Y16065D1*
X16320Y16100D1*
X16225Y16180D1*
X16170Y16291D1*
X16164Y16415D1*
X16208Y16531D1*
X16295Y16620D1*
X16410Y16666D1*
X16534Y16662D1*
X16646Y16609D1*
X16728Y16515D1*
X16766Y16368D1*
X16740Y16246D1*
X18038Y9789D2*
X17966Y9687D1*
X17876Y9634D1*
X17796Y9517D1*
X17689Y9454D1*
X17566Y9438D1*
X17447Y9473D1*
X17352Y9553D1*
X17316Y9626D1*
X17277Y9643D1*
X17182Y9723D1*
X17127Y9834D1*
X17121Y9958D1*
X17165Y10074D1*
X17252Y10162D1*
X17367Y10208D1*
X17491Y10204D1*
X17592Y10162D1*
X17707Y10208D1*
X17831Y10204D1*
X17944Y10151D1*
X18025Y10057D1*
X18063Y9910D1*
X18038Y9789D1*
X17540Y16271D2*
X17468Y16170D1*
X17362Y16106D1*
X17239Y16090D1*
X17120Y16125D1*
X17025Y16205D1*
X16970Y16316D1*
X16964Y16440D1*
X17008Y16556D1*
X17095Y16645D1*
X17210Y16691D1*
X17334Y16687D1*
X17446Y16634D1*
X17528Y16540D1*
X17566Y16393D1*
X17540Y16271D1*
X14158Y15969D2*
X14086Y15867D1*
X13979Y15804D1*
X13856Y15788D1*
X13737Y15823D1*
X13642Y15903D1*
X13587Y16014D1*
X13581Y16138D1*
X13625Y16254D1*
X13712Y16342D1*
X13827Y16388D1*
X13951Y16384D1*
X14064Y16331D1*
X14145Y16237D1*
X14183Y16090D1*
X14158Y15969D1*
Y12339D2*
X14086Y12237D1*
X13979Y12174D1*
X13856Y12158D1*
X13737Y12193D1*
X13642Y12273D1*
X13587Y12384D1*
X13584Y12434D1*
X13564Y12364D1*
X13492Y12263D1*
X13385Y12199D1*
X13262Y12183D1*
X13143Y12218D1*
X13048Y12298D1*
X12992Y12421D1*
X12963Y12394D1*
X12857Y12330D1*
X12722Y12318D1*
X12621Y12260D1*
X12498Y12244D1*
X12379Y12279D1*
X12283Y12359D1*
X12228Y12470D1*
X12222Y12594D1*
X12267Y12710D1*
X12354Y12799D1*
X12469Y12845D1*
X12558Y12842D1*
X12590Y12869D1*
X12651Y12893D1*
X12677Y12951D1*
X12764Y13039D1*
X12880Y13085D1*
X13004Y13081D1*
X13116Y13028D1*
X13197Y12934D1*
X13235Y12787D1*
X13357Y12780D1*
X13470Y12726D1*
X13551Y12633D1*
X13584Y12525D1*
X13625Y12624D1*
X13712Y12712D1*
X13827Y12758D1*
X13951Y12754D1*
X14064Y12701D1*
X14145Y12607D1*
X14183Y12460D1*
X14158Y12339D1*
X16115Y666D2*
X16043Y565D1*
X15936Y501D1*
X15813Y485D1*
X15694Y520D1*
X15599Y600D1*
X15544Y711D1*
X15538Y835D1*
X15582Y951D1*
X15669Y1040D1*
X15785Y1086D1*
X15909Y1082D1*
X16021Y1029D1*
X16102Y935D1*
X16140Y787D1*
X16115Y666D1*
X18118Y12869D2*
X18046Y12767D1*
X17939Y12704D1*
X17816Y12688D1*
X17697Y12723D1*
X17602Y12803D1*
X17547Y12914D1*
X17541Y13038D1*
X17585Y13154D1*
X17672Y13242D1*
X17787Y13288D1*
X17911Y13284D1*
X18024Y13231D1*
X18105Y13137D1*
X18143Y12990D1*
X18118Y12869D1*
X19664Y4048D2*
X19592Y3947D1*
X19485Y3883D1*
X19435Y3877D1*
X19355Y3755D1*
X19249Y3691D1*
X19126Y3675D1*
X19007Y3710D1*
X18912Y3790D1*
X18857Y3901D1*
X18851Y4025D1*
X18895Y4141D1*
X18982Y4230D1*
X19101Y4276D1*
X19131Y4333D1*
X19218Y4422D1*
X19334Y4468D1*
X19458Y4464D1*
X19570Y4410D1*
X19651Y4317D1*
X19689Y4169D1*
X19664Y4048D1*
X15355Y14911D2*
X15283Y14810D1*
X15177Y14746D1*
X15053Y14730D1*
X14934Y14765D1*
X14839Y14845D1*
X14784Y14956D1*
X14778Y15080D1*
X14823Y15196D1*
X14910Y15284D1*
X15025Y15331D1*
X15149Y15327D1*
X15261Y15273D1*
X15342Y15179D1*
X15380Y15032D1*
X15355Y14911D1*
X8968Y10589D2*
X8896Y10487D1*
X8789Y10424D1*
X8666Y10408D1*
X8547Y10443D1*
X8452Y10523D1*
X8397Y10634D1*
X8391Y10758D1*
X8398Y10776D1*
X8325Y10805D1*
X8286Y10838D1*
X8229Y10764D1*
X8122Y10700D1*
X7999Y10684D1*
X7880Y10719D1*
X7785Y10799D1*
X7730Y10910D1*
X7724Y11034D1*
X7768Y11150D1*
X7855Y11239D1*
X7971Y11285D1*
X8095Y11281D1*
X8209Y11224D1*
X8300Y11325D1*
X8415Y11371D1*
X8539Y11367D1*
X8651Y11314D1*
X8733Y11220D1*
X8771Y11072D1*
X8757Y11008D1*
X8874Y10951D1*
X8955Y10857D1*
X8993Y10710D1*
X8968Y10589D1*
X22078Y9549D2*
X22012Y9457D1*
X22065Y9387D1*
X22103Y9240D1*
X22078Y9119D1*
X22006Y9017D1*
X21899Y8954D1*
X21776Y8938D1*
X21657Y8973D1*
X21562Y9053D1*
X21507Y9164D1*
X21501Y9288D1*
X21545Y9404D1*
X21591Y9451D1*
X21562Y9483D1*
X21507Y9594D1*
X21501Y9718D1*
X21545Y9834D1*
X21632Y9922D1*
X21747Y9968D1*
X21871Y9964D1*
X21984Y9911D1*
X22065Y9817D1*
X22103Y9670D1*
X22078Y9549D1*
X22418Y17749D2*
X22346Y17647D1*
X22239Y17584D1*
X22116Y17568D1*
X21997Y17603D1*
X21902Y17683D1*
X21847Y17794D1*
X21841Y17918D1*
X21885Y18034D1*
X21972Y18122D1*
X22087Y18168D1*
X22211Y18164D1*
X22324Y18111D1*
X22405Y18017D1*
X22443Y17870D1*
X22418Y17749D1*
X17157Y14049D2*
X17085Y13948D1*
X16978Y13885D1*
X16855Y13869D1*
X16736Y13904D1*
X16641Y13984D1*
X16586Y14095D1*
X16580Y14219D1*
X16624Y14335D1*
X16711Y14423D1*
X16827Y14469D1*
X16951Y14465D1*
X17063Y14412D1*
X17144Y14318D1*
X17182Y14171D1*
X17157Y14049D1*
X4620Y23963D2*
X4540Y23845D1*
X4451Y23757D1*
X4349Y23686D1*
X4235Y23634D1*
X4114Y23602D1*
X3990Y23592D1*
X3866Y23604D1*
X3745Y23637D1*
X3633Y23691D1*
X3531Y23764D1*
X3444Y23853D1*
X3373Y23956D1*
X3322Y24070D1*
X3291Y24191D1*
X3282Y24315D1*
X3295Y24439D1*
X3329Y24559D1*
X3383Y24672D1*
X3457Y24773D1*
X3547Y24859D1*
X3650Y24929D1*
X3764Y24980D1*
X3886Y25010D1*
X4010Y25018D1*
X4134Y25004D1*
X4254Y24969D1*
X4366Y24914D1*
X4466Y24840D1*
X4552Y24749D1*
X4620Y24647D1*
X4707Y24773D1*
X4797Y24859D1*
X4900Y24929D1*
X5014Y24980D1*
X5136Y25010D1*
X5260Y25018D1*
X5384Y25004D1*
X5504Y24969D1*
X5616Y24914D1*
X5716Y24840D1*
X5802Y24749D1*
X5871Y24645D1*
X5921Y24531D1*
X5950Y24410D1*
X5958Y24305D1*
X5947Y24181D1*
X5915Y24060D1*
X5862Y23947D1*
X5790Y23845D1*
X5701Y23757D1*
X5599Y23686D1*
X5485Y23634D1*
X5364Y23602D1*
X5240Y23592D1*
X5116Y23604D1*
X4995Y23637D1*
X4883Y23691D1*
X4781Y23764D1*
X4694Y23853D1*
X4622Y23959D1*
X10737Y3832D2*
X10665Y3731D1*
X10558Y3667D1*
X10435Y3652D1*
X10316Y3687D1*
X10221Y3767D1*
X10166Y3878D1*
X10160Y4002D1*
X10204Y4118D1*
X10291Y4206D1*
X10407Y4252D1*
X10531Y4248D1*
X10643Y4195D1*
X10724Y4101D1*
X10762Y3954D1*
X10737Y3832D1*
X18487Y11392D2*
X18415Y11291D1*
X18308Y11227D1*
X18185Y11212D1*
X18066Y11247D1*
X17971Y11327D1*
X17916Y11438D1*
X17910Y11562D1*
X17954Y11678D1*
X18041Y11766D1*
X18157Y11812D1*
X18281Y11808D1*
X18393Y11755D1*
X18474Y11661D1*
X18512Y11514D1*
X18487Y11392D1*
X1048Y22134D2*
X976Y22032D1*
X869Y21969D1*
X746Y21953D1*
X627Y21988D1*
X532Y22068D1*
X477Y22179D1*
X471Y22303D1*
X515Y22419D1*
X602Y22507D1*
X717Y22553D1*
X841Y22549D1*
X954Y22496D1*
X1035Y22402D1*
X1073Y22255D1*
X1048Y22134D1*
X2158Y20129D2*
X2086Y20027D1*
X1979Y19964D1*
X1856Y19948D1*
X1737Y19983D1*
X1642Y20063D1*
X1587Y20174D1*
X1581Y20298D1*
X1625Y20414D1*
X1712Y20502D1*
X1827Y20548D1*
X1951Y20544D1*
X2064Y20491D1*
X2145Y20397D1*
X2183Y20250D1*
X2158Y20129D1*
X1458Y11979D2*
X1386Y11878D1*
X1280Y11814D1*
X1157Y11799D1*
X1038Y11834D1*
X943Y11913D1*
X887Y12025D1*
X882Y12149D1*
X926Y12265D1*
X1013Y12353D1*
X1128Y12399D1*
X1252Y12395D1*
X1364Y12342D1*
X1446Y12248D1*
X1484Y12101D1*
X1458Y11979D1*
X21822Y5409D2*
X21750Y5308D1*
X21643Y5244D1*
X21520Y5229D1*
X21401Y5263D1*
X21306Y5343D1*
X21251Y5454D1*
X21245Y5578D1*
X21289Y5694D1*
X21377Y5783D1*
X21492Y5829D1*
X21616Y5825D1*
X21728Y5772D1*
X21809Y5678D1*
X21847Y5531D1*
X21822Y5409D1*
X23699Y3169D2*
X23627Y3068D1*
X23521Y3004D1*
X23397Y2988D1*
X23278Y3023D1*
X23183Y3103D1*
X23128Y3214D1*
X23122Y3338D1*
X23167Y3454D1*
X23254Y3542D1*
X23369Y3589D1*
X23493Y3585D1*
X23605Y3531D1*
X23686Y3437D1*
X23724Y3290D1*
X23699Y3169D1*
X1048Y22134D2*
X976Y22032D1*
X869Y21969D1*
X746Y21953D1*
X627Y21988D1*
X532Y22068D1*
X477Y22179D1*
X471Y22303D1*
X515Y22419D1*
X602Y22507D1*
X717Y22553D1*
X841Y22549D1*
X954Y22496D1*
X1035Y22402D1*
X1073Y22255D1*
X1048Y22134D1*
X18942Y4241D2*
X18870Y4140D1*
X18763Y4076D1*
X18640Y4061D1*
X18521Y4096D1*
X18426Y4176D1*
X18371Y4287D1*
X18365Y4411D1*
X18409Y4527D1*
X18497Y4615D1*
X18612Y4661D1*
X18736Y4657D1*
X18848Y4604D1*
X18929Y4510D1*
X18967Y4363D1*
X18942Y4241D1*
X11326Y3024D2*
X11309Y3014D1*
X11186Y2998D1*
X11067Y3033D1*
X10972Y3113D1*
X10916Y3236D1*
X10852Y3263D1*
X10757Y3343D1*
X10702Y3454D1*
X10696Y3578D1*
X10740Y3694D1*
X10827Y3782D1*
X10942Y3828D1*
X11066Y3824D1*
X11179Y3771D1*
X11260Y3677D1*
X11286Y3592D1*
X11394Y3541D1*
X11475Y3447D1*
X11487Y3407D1*
X11557Y3428D1*
X11681Y3424D1*
X11794Y3371D1*
X11875Y3277D1*
X11913Y3130D1*
X11888Y3009D1*
X11816Y2907D1*
X11709Y2844D1*
X11586Y2828D1*
X11467Y2863D1*
X11372Y2943D1*
X11332Y3023D1*
X21087Y10443D2*
X20987Y10473D1*
X20892Y10553D1*
X20837Y10664D1*
X20831Y10788D1*
X20875Y10904D1*
X20962Y10992D1*
X21077Y11038D1*
X21201Y11034D1*
X21303Y10986D1*
X21362Y11042D1*
X21477Y11088D1*
X21601Y11084D1*
X21714Y11031D1*
X21795Y10937D1*
X21833Y10790D1*
X21808Y10669D1*
X21736Y10567D1*
X21659Y10522D1*
X21638Y10459D1*
X21566Y10357D1*
X21459Y10294D1*
X21336Y10278D1*
X21217Y10313D1*
X21122Y10393D1*
X21099Y10438D1*
X22078Y13299D2*
X22006Y13197D1*
X21899Y13134D1*
X21776Y13118D1*
X21657Y13153D1*
X21562Y13233D1*
X21507Y13344D1*
X21501Y13468D1*
X21545Y13584D1*
X21632Y13672D1*
X21747Y13718D1*
X21871Y13714D1*
X21984Y13661D1*
X22065Y13567D1*
X22103Y13420D1*
X22078Y13299D1*
X22069Y12648D2*
X21997Y12547D1*
X21890Y12484D1*
X21767Y12468D1*
X21711Y12484D1*
X21639Y12444D1*
X21516Y12429D1*
X21397Y12464D1*
X21302Y12543D1*
X21247Y12655D1*
X21241Y12779D1*
X21285Y12895D1*
X21372Y12983D1*
X21488Y13029D1*
X21622Y13020D1*
X21738Y13068D1*
X21862Y13064D1*
X21974Y13011D1*
X22056Y12917D1*
X22094Y12770D1*
X22069Y12648D1*
X10837Y1264D2*
X10765Y1162D1*
X10659Y1099D1*
X10535Y1083D1*
X10416Y1118D1*
X10321Y1198D1*
X10266Y1309D1*
X10260Y1433D1*
X10305Y1549D1*
X10392Y1637D1*
X10507Y1683D1*
X10631Y1679D1*
X10743Y1626D1*
X10824Y1532D1*
X10862Y1385D1*
X10837Y1264D1*
X9777Y9921D2*
X9705Y9820D1*
X9598Y9756D1*
X9475Y9740D1*
X9356Y9775D1*
X9261Y9855D1*
X9206Y9966D1*
X9200Y10090D1*
X9244Y10206D1*
X9331Y10295D1*
X9447Y10341D1*
X9571Y10337D1*
X9683Y10283D1*
X9764Y10190D1*
X9802Y10042D1*
X9777Y9921D1*
X10722Y10951D2*
X10650Y10850D1*
X10544Y10786D1*
X10421Y10770D1*
X10301Y10805D1*
X10206Y10885D1*
X10151Y10996D1*
X10145Y11120D1*
X10190Y11236D1*
X10277Y11325D1*
X10392Y11371D1*
X10516Y11367D1*
X10628Y11314D1*
X10709Y11220D1*
X10748Y11072D1*
X10722Y10951D1*
X15717Y11421D2*
X15645Y11320D1*
X15538Y11256D1*
X15415Y11240D1*
X15296Y11275D1*
X15201Y11355D1*
X15146Y11466D1*
X15140Y11590D1*
X15184Y11706D1*
X15271Y11795D1*
X15387Y11841D1*
X15511Y11837D1*
X15623Y11783D1*
X15704Y11690D1*
X15742Y11542D1*
X15717Y11421D1*
X15697Y12341D2*
X15625Y12240D1*
X15518Y12176D1*
X15395Y12160D1*
X15276Y12195D1*
X15181Y12275D1*
X15126Y12386D1*
X15120Y12510D1*
X15164Y12626D1*
X15251Y12715D1*
X15367Y12761D1*
X15491Y12757D1*
X15603Y12703D1*
X15684Y12610D1*
X15722Y12462D1*
X15697Y12341D1*
X5976Y12041D2*
X5904Y11940D1*
X5797Y11876D1*
X5674Y11860D1*
X5555Y11895D1*
X5460Y11975D1*
X5405Y12086D1*
X5399Y12210D1*
X5443Y12326D1*
X5530Y12415D1*
X5646Y12461D1*
X5770Y12457D1*
X5882Y12403D1*
X5963Y12310D1*
X6001Y12162D1*
X5976Y12041D1*
X9710Y7541D2*
X9638Y7440D1*
X9532Y7376D1*
X9409Y7360D1*
X9290Y7395D1*
X9195Y7475D1*
X9139Y7586D1*
X9134Y7710D1*
X9178Y7826D1*
X9265Y7914D1*
X9380Y7961D1*
X9504Y7957D1*
X9616Y7903D1*
X9698Y7809D1*
X9736Y7662D1*
X9710Y7541D1*
X5637Y9921D2*
X5565Y9820D1*
X5458Y9756D1*
X5335Y9740D1*
X5216Y9775D1*
X5121Y9855D1*
X5066Y9966D1*
X5060Y10090D1*
X5104Y10206D1*
X5191Y10295D1*
X5307Y10341D1*
X5431Y10337D1*
X5543Y10283D1*
X5624Y10190D1*
X5662Y10042D1*
X5637Y9921D1*
X8815Y9306D2*
X8798Y9296D1*
X8675Y9280D1*
X8556Y9315D1*
X8461Y9395D1*
X8406Y9506D1*
X8400Y9630D1*
X8444Y9746D1*
X8531Y9835D1*
X8647Y9881D1*
X8771Y9877D1*
X8883Y9823D1*
X8964Y9730D1*
X8977Y9689D1*
X9047Y9710D1*
X9171Y9706D1*
X9283Y9653D1*
X9364Y9559D1*
X9402Y9411D1*
X9377Y9290D1*
X9305Y9189D1*
X9198Y9125D1*
X9075Y9109D1*
X8956Y9144D1*
X8861Y9224D1*
X8821Y9304D1*
X9277Y6921D2*
X9205Y6820D1*
X9098Y6756D1*
X8975Y6740D1*
X8856Y6775D1*
X8761Y6855D1*
X8706Y6966D1*
X8700Y7090D1*
X8744Y7206D1*
X8831Y7295D1*
X8947Y7341D1*
X9071Y7337D1*
X9183Y7283D1*
X9264Y7190D1*
X9302Y7042D1*
X9277Y6921D1*
X5157D2*
X5085Y6820D1*
X4978Y6756D1*
X4855Y6740D1*
X4762Y6768D1*
X4685Y6660D1*
X4578Y6596D1*
X4455Y6580D1*
X4336Y6615D1*
X4241Y6695D1*
X4186Y6806D1*
X4180Y6930D1*
X4224Y7046D1*
X4311Y7135D1*
X4427Y7181D1*
X4551Y7177D1*
X4596Y7155D1*
X4624Y7206D1*
X4711Y7295D1*
X4827Y7341D1*
X4951Y7337D1*
X5063Y7283D1*
X5144Y7190D1*
X5182Y7042D1*
X5157Y6921D1*
X2747Y8661D2*
X2675Y8560D1*
X2568Y8496D1*
X2445Y8480D1*
X2326Y8515D1*
X2231Y8595D1*
X2176Y8706D1*
X2170Y8830D1*
X2214Y8946D1*
X2301Y9035D1*
X2417Y9081D1*
X2541Y9077D1*
X2653Y9023D1*
X2734Y8930D1*
X2772Y8782D1*
X2747Y8661D1*
X9338Y8335D2*
X9265Y8230D1*
X9158Y8166D1*
X9035Y8150D1*
X8916Y8185D1*
X8821Y8265D1*
X8766Y8376D1*
X8760Y8500D1*
X8804Y8616D1*
X8891Y8705D1*
X9007Y8751D1*
X9131Y8747D1*
X9155Y8735D1*
X9184Y8786D1*
X9271Y8875D1*
X9387Y8921D1*
X9511Y8917D1*
X9623Y8863D1*
X9704Y8770D1*
X9742Y8622D1*
X9717Y8501D1*
X9645Y8400D1*
X9538Y8336D1*
X9415Y8320D1*
X9344Y8341D1*
X14527Y3401D2*
X14455Y3300D1*
X14348Y3236D1*
X14225Y3220D1*
X14106Y3255D1*
X14011Y3335D1*
X13956Y3446D1*
X13950Y3570D1*
X13994Y3686D1*
X14081Y3775D1*
X14197Y3821D1*
X14321Y3817D1*
X14433Y3763D1*
X14514Y3670D1*
X14552Y3522D1*
X14527Y3401D1*
X12078Y8879D2*
X12006Y8777D1*
X11899Y8714D1*
X11776Y8698D1*
X11657Y8733D1*
X11562Y8813D1*
X11507Y8924D1*
X11501Y9048D1*
X11545Y9164D1*
X11632Y9252D1*
X11747Y9298D1*
X11871Y9294D1*
X11984Y9241D1*
X12065Y9147D1*
X12103Y9000D1*
X12078Y8879D1*
X12537Y2841D2*
X12465Y2740D1*
X12358Y2676D1*
X12235Y2660D1*
X12116Y2695D1*
X12021Y2775D1*
X11966Y2886D1*
X11960Y3010D1*
X12004Y3126D1*
X12091Y3215D1*
X12207Y3261D1*
X12331Y3257D1*
X12443Y3203D1*
X12524Y3110D1*
X12562Y2962D1*
X12537Y2841D1*
X7737D2*
X7665Y2740D1*
X7558Y2676D1*
X7435Y2660D1*
X7316Y2695D1*
X7221Y2775D1*
X7166Y2886D1*
X7160Y3010D1*
X7204Y3126D1*
X7291Y3215D1*
X7407Y3261D1*
X7531Y3257D1*
X7643Y3203D1*
X7724Y3110D1*
X7762Y2962D1*
X7737Y2841D1*
X13602Y4447D2*
X13597Y4421D1*
X13525Y4320D1*
X13418Y4256D1*
X13295Y4240D1*
X13176Y4275D1*
X13081Y4355D1*
X13026Y4466D1*
X13020Y4590D1*
X13064Y4706D1*
X13151Y4795D1*
X13267Y4841D1*
X13371Y4837D1*
X13404Y4905D1*
X13491Y4994D1*
X13607Y5040D1*
X13731Y5036D1*
X13843Y4982D1*
X13924Y4889D1*
X13962Y4741D1*
X13937Y4620D1*
X13865Y4519D1*
X13758Y4455D1*
X13635Y4439D1*
X13609Y4447D1*
X9777Y4421D2*
X9705Y4320D1*
X9598Y4256D1*
X9475Y4240D1*
X9356Y4275D1*
X9261Y4355D1*
X9206Y4466D1*
X9200Y4590D1*
X9244Y4706D1*
X9331Y4795D1*
X9447Y4841D1*
X9571Y4837D1*
X9683Y4783D1*
X9764Y4690D1*
X9802Y4542D1*
X9777Y4421D1*
X7147Y4620D2*
X7075Y4519D1*
X6968Y4455D1*
X6845Y4439D1*
X6726Y4474D1*
X6631Y4554D1*
X6576Y4665D1*
X6570Y4789D1*
X6614Y4905D1*
X6701Y4994D1*
X6817Y5040D1*
X6941Y5036D1*
X7053Y4982D1*
X7134Y4889D1*
X7172Y4741D1*
X7147Y4620D1*
X8177Y6581D2*
X8105Y6480D1*
X7998Y6416D1*
X7875Y6400D1*
X7756Y6435D1*
X7661Y6515D1*
X7606Y6626D1*
X7600Y6750D1*
X7644Y6866D1*
X7731Y6955D1*
X7847Y7001D1*
X7971Y6997D1*
X8083Y6943D1*
X8164Y6850D1*
X8202Y6702D1*
X8177Y6581D1*
Y5751D2*
X8105Y5650D1*
X7994Y5585D1*
X8054Y5510D1*
X8092Y5362D1*
X8067Y5241D1*
X7995Y5140D1*
X7888Y5076D1*
X7765Y5060D1*
X7646Y5095D1*
X7551Y5175D1*
X7496Y5286D1*
X7490Y5410D1*
X7534Y5526D1*
X7621Y5615D1*
X7697Y5645D1*
X7661Y5685D1*
X7606Y5796D1*
X7600Y5920D1*
X7644Y6036D1*
X7731Y6125D1*
X7847Y6171D1*
X7971Y6167D1*
X8083Y6113D1*
X8164Y6020D1*
X8202Y5872D1*
X8177Y5751D1*
X7295Y6731D2*
X7223Y6630D1*
X7117Y6566D1*
X6993Y6550D1*
X6874Y6585D1*
X6779Y6665D1*
X6724Y6776D1*
X6722Y6911D1*
X6626Y6945D1*
X6531Y7025D1*
X6476Y7136D1*
X6470Y7260D1*
X6514Y7376D1*
X6601Y7465D1*
X6717Y7511D1*
X6841Y7507D1*
X6953Y7453D1*
X7034Y7360D1*
X7072Y7212D1*
X7060Y7155D1*
X7201Y7093D1*
X7282Y6999D1*
X7320Y6852D1*
X7295Y6731D1*
X9764Y5587D2*
X9692Y5486D1*
X9585Y5422D1*
X9462Y5406D1*
X9343Y5441D1*
X9248Y5521D1*
X9193Y5632D1*
X9187Y5756D1*
X9231Y5872D1*
X9318Y5961D1*
X9434Y6007D1*
X9558Y6003D1*
X9670Y5950D1*
X9751Y5856D1*
X9789Y5708D1*
X9764Y5587D1*
X7047Y5921D2*
X6975Y5820D1*
X6868Y5756D1*
X6745Y5740D1*
X6626Y5775D1*
X6531Y5855D1*
X6476Y5966D1*
X6470Y6090D1*
X6514Y6206D1*
X6601Y6295D1*
X6717Y6341D1*
X6841Y6337D1*
X6953Y6283D1*
X7034Y6190D1*
X7072Y6042D1*
X7047Y5921D1*
X4488Y6099D2*
X4416Y5997D1*
X4309Y5934D1*
X4186Y5918D1*
X4067Y5953D1*
X3972Y6033D1*
X3917Y6144D1*
X3911Y6268D1*
X3955Y6384D1*
X4042Y6472D1*
X4157Y6518D1*
X4281Y6514D1*
X4394Y6461D1*
X4475Y6367D1*
X4513Y6220D1*
X4488Y6099D1*
X3329Y5839D2*
X3257Y5737D1*
X3151Y5674D1*
X3027Y5658D1*
X2908Y5693D1*
X2813Y5773D1*
X2758Y5884D1*
X2752Y6008D1*
X2797Y6124D1*
X2884Y6212D1*
X2999Y6258D1*
X3123Y6254D1*
X3235Y6201D1*
X3316Y6107D1*
X3354Y5960D1*
X3329Y5839D1*
X10697Y5011D2*
X10625Y4910D1*
X10518Y4846D1*
X10395Y4830D1*
X10276Y4865D1*
X10181Y4945D1*
X10126Y5056D1*
X10120Y5180D1*
X10164Y5296D1*
X10251Y5385D1*
X10367Y5431D1*
X10491Y5427D1*
X10603Y5373D1*
X10684Y5280D1*
X10722Y5132D1*
X10697Y5011D1*
X13737Y7091D2*
X13665Y6990D1*
X13558Y6926D1*
X13435Y6910D1*
X13316Y6945D1*
X13221Y7025D1*
X13166Y7136D1*
X13163Y7202D1*
X13049Y7134D1*
X12926Y7118D1*
X12807Y7153D1*
X12712Y7233D1*
X12657Y7344D1*
X12651Y7468D1*
X12695Y7584D1*
X12782Y7672D1*
X12897Y7718D1*
X13021Y7714D1*
X13134Y7661D1*
X13215Y7567D1*
X13252Y7433D1*
X13291Y7465D1*
X13407Y7511D1*
X13531Y7507D1*
X13643Y7453D1*
X13724Y7360D1*
X13762Y7212D1*
X13737Y7091D1*
X3892Y7117D2*
X3887Y7091D1*
X3815Y6990D1*
X3708Y6926D1*
X3585Y6910D1*
X3466Y6945D1*
X3371Y7025D1*
X3316Y7136D1*
X3310Y7260D1*
X3354Y7376D1*
X3441Y7465D1*
X3557Y7511D1*
X3599Y7509D1*
X3637Y7584D1*
X3724Y7672D1*
X3839Y7718D1*
X3963Y7714D1*
X4075Y7661D1*
X4156Y7567D1*
X4194Y7420D1*
X4169Y7299D1*
X4097Y7197D1*
X3991Y7134D1*
X3902Y7122D1*
X13487Y5391D2*
X13415Y5290D1*
X13308Y5226D1*
X13185Y5210D1*
X13066Y5245D1*
X12971Y5325D1*
X12916Y5436D1*
X12910Y5560D1*
X12954Y5676D1*
X13041Y5765D1*
X13157Y5811D1*
X13281Y5807D1*
X13393Y5753D1*
X13474Y5660D1*
X13512Y5512D1*
X13487Y5391D1*
X8787Y8671D2*
X8715Y8570D1*
X8608Y8506D1*
X8485Y8490D1*
X8459Y8498D1*
X8385Y8400D1*
X8278Y8336D1*
X8155Y8320D1*
X8036Y8355D1*
X7941Y8435D1*
X7886Y8546D1*
X7880Y8670D1*
X7924Y8786D1*
X8011Y8875D1*
X8127Y8921D1*
X8231Y8917D1*
X8254Y8956D1*
X8341Y9045D1*
X8457Y9091D1*
X8581Y9087D1*
X8693Y9033D1*
X8774Y8940D1*
X8812Y8792D1*
X8787Y8671D1*
X16873Y8684D2*
X16801Y8582D1*
X16694Y8519D1*
X16571Y8503D1*
X16452Y8538D1*
X16357Y8618D1*
X16302Y8729D1*
X16296Y8853D1*
X16340Y8969D1*
X16427Y9057D1*
X16542Y9103D1*
X16666Y9099D1*
X16779Y9046D1*
X16860Y8952D1*
X16898Y8805D1*
X16873Y8684D1*
X7337Y11451D2*
X7265Y11350D1*
X7158Y11286D1*
X7035Y11270D1*
X6916Y11305D1*
X6821Y11385D1*
X6766Y11496D1*
X6760Y11620D1*
X6804Y11736D1*
X6891Y11825D1*
X7007Y11871D1*
X7131Y11867D1*
X7243Y11813D1*
X7324Y11720D1*
X7362Y11572D1*
X7337Y11451D1*
Y8661D2*
X7265Y8560D1*
X7158Y8496D1*
X7035Y8480D1*
X6916Y8515D1*
X6821Y8595D1*
X6766Y8706D1*
X6760Y8830D1*
X6804Y8946D1*
X6891Y9035D1*
X7007Y9081D1*
X7131Y9077D1*
X7243Y9023D1*
X7324Y8930D1*
X7362Y8782D1*
X7337Y8661D1*
X13267Y11261D2*
X13195Y11160D1*
X13088Y11096D1*
X12965Y11080D1*
X12846Y11115D1*
X12751Y11195D1*
X12696Y11306D1*
X12690Y11430D1*
X12734Y11546D1*
X12821Y11635D1*
X12937Y11681D1*
X13061Y11677D1*
X13173Y11623D1*
X13254Y11530D1*
X13292Y11382D1*
X13267Y11261D1*
X7607Y7701D2*
X7535Y7600D1*
X7428Y7536D1*
X7305Y7520D1*
X7186Y7555D1*
X7091Y7635D1*
X7036Y7746D1*
X7030Y7870D1*
X7074Y7986D1*
X7161Y8075D1*
X7277Y8121D1*
X7401Y8117D1*
X7513Y8063D1*
X7594Y7970D1*
X7632Y7822D1*
X7607Y7701D1*
X8608Y12739D2*
X8536Y12637D1*
X8429Y12574D1*
X8306Y12558D1*
X8187Y12593D1*
X8092Y12673D1*
X8037Y12784D1*
X8031Y12908D1*
X8075Y13024D1*
X8162Y13112D1*
X8277Y13158D1*
X8401Y13154D1*
X8514Y13101D1*
X8595Y13007D1*
X8633Y12860D1*
X8608Y12739D1*
X18018Y16761D2*
X17946Y16660D1*
X17839Y16596D1*
X17716Y16581D1*
X17597Y16616D1*
X17502Y16695D1*
X17447Y16807D1*
X17441Y16931D1*
X17485Y17047D1*
X17573Y17135D1*
X17688Y17181D1*
X17812Y17177D1*
X17924Y17124D1*
X18005Y17030D1*
X18043Y16883D1*
X18018Y16761D1*
X6973Y21634D2*
X6901Y21532D1*
X6794Y21469D1*
X6671Y21453D1*
X6552Y21488D1*
X6457Y21568D1*
X6402Y21679D1*
X6396Y21803D1*
X6440Y21919D1*
X6527Y22007D1*
X6642Y22053D1*
X6766Y22049D1*
X6879Y21996D1*
X6960Y21902D1*
X6998Y21755D1*
X6973Y21634D1*
Y19334D2*
X6901Y19232D1*
X6794Y19169D1*
X6671Y19153D1*
X6552Y19188D1*
X6457Y19268D1*
X6402Y19379D1*
X6396Y19503D1*
X6440Y19619D1*
X6527Y19707D1*
X6642Y19753D1*
X6766Y19749D1*
X6879Y19696D1*
X6960Y19602D1*
X6998Y19455D1*
X6973Y19334D1*
X7058Y12749D2*
X6986Y12647D1*
X6879Y12584D1*
X6756Y12568D1*
X6637Y12603D1*
X6542Y12683D1*
X6487Y12794D1*
X6481Y12918D1*
X6525Y13034D1*
X6612Y13122D1*
X6727Y13168D1*
X6851Y13164D1*
X6964Y13111D1*
X7045Y13017D1*
X7083Y12870D1*
X7058Y12749D1*
X3488Y22749D2*
X3416Y22647D1*
X3309Y22584D1*
X3186Y22568D1*
X3067Y22603D1*
X2972Y22683D1*
X2917Y22794D1*
X2911Y22918D1*
X2955Y23034D1*
X3042Y23122D1*
X3157Y23168D1*
X3281Y23164D1*
X3394Y23111D1*
X3475Y23017D1*
X3513Y22870D1*
X3488Y22749D1*
X11168Y13959D2*
X11096Y13857D1*
X10989Y13794D1*
X10866Y13778D1*
X10747Y13813D1*
X10652Y13893D1*
X10597Y14004D1*
X10591Y14128D1*
X10635Y14244D1*
X10722Y14332D1*
X10837Y14378D1*
X10961Y14374D1*
X11074Y14321D1*
X11155Y14227D1*
X11193Y14080D1*
X11168Y13959D1*
X6348Y13809D2*
X6276Y13707D1*
X6169Y13644D1*
X6046Y13628D1*
X5927Y13663D1*
X5832Y13743D1*
X5777Y13854D1*
X5771Y13978D1*
X5815Y14094D1*
X5902Y14182D1*
X6017Y14228D1*
X6141Y14224D1*
X6254Y14171D1*
X6335Y14077D1*
X6373Y13930D1*
X6348Y13809D1*
X17589Y852D2*
X17517Y751D1*
X17410Y687D1*
X17287Y671D1*
X17168Y706D1*
X17073Y786D1*
X17018Y897D1*
X17017Y917D1*
X16949Y943D1*
X16853Y1023D1*
X16798Y1134D1*
X16792Y1258D1*
X16827Y1349D1*
X16791Y1384D1*
X16736Y1495D1*
X16730Y1619D1*
X16775Y1735D1*
X16862Y1823D1*
X16977Y1869D1*
X17101Y1865D1*
X17213Y1812D1*
X17294Y1718D1*
X17333Y1571D1*
X17307Y1449D1*
X17296Y1434D1*
X17356Y1358D1*
X17385Y1265D1*
X17495Y1214D1*
X17576Y1121D1*
X17614Y973D1*
X17589Y852D1*
X3648Y13984D2*
X3576Y13882D1*
X3469Y13819D1*
X3346Y13803D1*
X3227Y13838D1*
X3132Y13918D1*
X3077Y14029D1*
X3071Y14153D1*
X3115Y14269D1*
X3202Y14357D1*
X3317Y14403D1*
X3441Y14399D1*
X3554Y14346D1*
X3635Y14252D1*
X3673Y14105D1*
X3648Y13984D1*
X17098Y2359D2*
X17026Y2257D1*
X16919Y2194D1*
X16796Y2178D1*
X16677Y2213D1*
X16582Y2293D1*
X16527Y2404D1*
X16521Y2528D1*
X16565Y2644D1*
X16652Y2732D1*
X16767Y2778D1*
X16891Y2774D1*
X17004Y2721D1*
X17085Y2627D1*
X17123Y2480D1*
X17098Y2359D1*
X9971Y13649D2*
D24*
X10689Y12931D1*
Y13649D2*
X9971Y12931D1*
X23638Y23362D2*
X24362Y22638D1*
Y23362D2*
X23638Y22638D1*
X3491Y24809D2*
X4499Y23801D1*
Y24809D2*
X3491Y23801D1*
D29*
X17090Y18760D3*
X17129Y21319D3*
D42*
X22800Y9200D3*
Y10200D3*
Y11200D3*
Y12200D3*
Y13200D3*
Y14200D3*
Y15200D3*
Y16200D3*
X23800Y9200D3*
Y10200D3*
Y11200D3*
Y12200D3*
Y13200D3*
Y14200D3*
Y15200D3*
Y16200D3*
X24800Y9200D3*
Y10200D3*
Y11200D3*
Y12200D3*
Y13200D3*
Y14200D3*
Y15200D3*
Y16200D3*
D45*
X4945Y15530D3*
X3945D3*
X2945D3*
X1945D3*
X19980Y21590D3*
Y20590D3*
X22175Y2386D3*
Y3386D3*
X12480Y21560D3*
Y20560D3*
X18634Y14143D3*
Y15143D3*
Y16143D3*
Y17143D3*
Y18143D3*
X10330Y13290D3*
X14077Y17359D3*
X15077D3*
D65*
X23000Y23000D3*
X24000D3*
Y22000D3*
X23000D3*
X24000Y21000D3*
X23000D3*
X24000Y20000D3*
X23000D3*
Y19000D3*
X24000D3*
D67*
X3995Y24305D3*
X5245D3*
M02*
